<svg width="24" height="24" viewBox="0 0 24 24" fill="none" xmlns="http://www.w3.org/2000/svg">
<path d="M12 0C5.35714 0 0 5.02655 0 11.2566C0 14.5133 1.42857 17.4159 3.78571 19.469C4.21429 19.823 4.42857 20.3186 4.42857 20.885V23.5044C4.42857 23.8584 4.78571 24.0708 5.07143 23.8584L7.85714 22.3009C8.21429 22.0885 8.71429 22.0177 9.14286 22.1593C10.0714 22.3717 11 22.4425 11.9286 22.4425C18.5714 22.4425 23.9286 17.4159 23.9286 11.1858C23.9286 4.95575 18.6429 0 12 0ZM18.0714 10.0531L13.6429 15.0796C13.3571 15.3628 13 15.3628 12.7143 15.1504L11.2143 13.9469C10.5714 13.4513 9.71429 13.3097 8.92857 13.5929L6.5 14.4425C5.85714 14.6549 5.28572 13.8761 5.78572 13.3097L10.2857 7.78761C10.5714 7.50442 11 7.43363 11.2857 7.71681L12.8571 9.13274C13.5 9.76991 14.4286 9.9115 15.2857 9.62832L17.3571 8.92035C18 8.70796 18.5 9.48673 18.0714 10.0531Z" fill="#0072FF"/>
<path d="M18.0714 10.0531L13.6429 15.0796C13.3572 15.3628 13 15.3628 12.7143 15.1504L11.2143 13.9469C10.5714 13.4513 9.7143 13.3097 8.92859 13.5929L6.50001 14.4425C5.85716 14.6549 5.28573 13.8761 5.78573 13.3097L10.2857 7.7876C10.5714 7.50442 11 7.43362 11.2857 7.71681L12.8572 9.13273C13.5 9.7699 14.4286 9.9115 15.2857 9.62831L17.3572 8.92035C18 8.70796 18.5 9.48672 18.0714 10.0531Z" fill="white"/>
</svg>
