<?xml version="1.0" encoding="UTF-8"?>
<svg width="18px" height="18px" viewBox="0 0 18 18" version="1.1" xmlns="http://www.w3.org/2000/svg" xmlns:xlink="http://www.w3.org/1999/xlink">
    <title>instagram</title>
    <g id="Page-1" stroke="none" stroke-width="1" fill="none" fill-rule="evenodd">
        <g id="instagram" fill="#C62C38" fill-rule="nonzero">
            <path d="M8.999,4.37701 C7.7726,4.37701 6.59651,4.86418 5.72934,5.73135 C4.86217,6.59852 4.375,7.7747 4.375,9.001 C4.375,10.2274 4.86217,11.4035 5.72934,12.2707 C6.59651,13.1378 7.7726,13.625 8.999,13.625 C10.2254,13.625 11.4015,13.1378 12.2687,12.2707 C13.1358,11.4035 13.623,10.2274 13.623,9.001 C13.623,7.7747 13.1358,6.59852 12.2687,5.73135 C11.4015,4.86418 10.2254,4.37701 8.999,4.37701 Z M8.999,12.004 C8.2023,12.004 7.4382,11.6875 6.87485,11.1242 C6.31149,10.5608 5.995,9.7967 5.995,9 C5.995,8.2033 6.31149,7.4392 6.87485,6.87587 C7.4382,6.31251 8.2023,5.99601 8.999,5.99601 C9.7957,5.99601 10.5598,6.31251 11.1231,6.87587 C11.6865,7.4392 12.003,8.2033 12.003,9 C12.003,9.7967 11.6865,10.5608 11.1231,11.1242 C10.5598,11.6875 9.7957,12.004 8.999,12.004 Z" id="Shape"></path>
            <path d="M13.806,5.28503 C14.4014,5.28503 14.884,4.80239 14.884,4.20703 C14.884,3.61166 14.4014,3.12903 13.806,3.12903 C13.2107,3.12903 12.728,3.61166 12.728,4.20703 C12.728,4.80239 13.2107,5.28503 13.806,5.28503 Z" id="Path"></path>
            <path d="M17.533,3.111 C17.3015,2.51319 16.9477,1.97029 16.4943,1.51706 C16.041,1.06384 15.4979,0.71028 14.9,0.479 C14.2003,0.21636 13.4612,0.07435 12.714,0.059 C11.751,0.017 11.446,0.005 9.004,0.005 C6.56201,0.005 6.24901,0.005 5.29401,0.059 C4.5474,0.07356 3.80877,0.21561 3.11001,0.479 C2.51195,0.71001 1.96878,1.06348 1.51535,1.51673 C1.06192,1.96999 0.70824,2.51303 0.47701,3.111 C0.21432,3.81062 0.07263,4.54984 0.05801,5.297 C0.01501,6.259 0.00201,6.564 0.00201,9.007 C0.00201,11.449 0.00201,11.76 0.05801,12.717 C0.07301,13.465 0.21401,14.203 0.47701,14.904 C0.70889,15.5018 1.06291,16.0446 1.51645,16.4978 C1.96999,16.951 2.51308,17.3046 3.11101,17.536 C3.80845,17.8092 4.54739,17.9614 5.29601,17.986 C6.25901,18.028 6.56401,18.041 9.006,18.041 C11.448,18.041 11.761,18.041 12.716,17.986 C13.4631,17.9708 14.2022,17.8291 14.902,17.567 C15.4998,17.3352 16.0426,16.9813 16.496,16.528 C16.9493,16.0746 17.3032,15.5318 17.535,14.934 C17.798,14.234 17.939,13.496 17.954,12.748 C17.997,11.786 18.01,11.481 18.01,9.038 C18.01,6.59501 18.01,6.285 17.954,5.328 C17.9424,4.57028 17.7999,3.82025 17.533,3.111 Z M16.315,12.643 C16.3086,13.2193 16.2034,13.7902 16.004,14.331 C15.8538,14.7199 15.6239,15.073 15.3291,15.3677 C15.0342,15.6624 14.681,15.8921 14.292,16.042 C13.7572,16.2405 13.1924,16.3456 12.622,16.353 C11.672,16.397 11.404,16.408 8.968,16.408 C6.53001,16.408 6.28101,16.408 5.31301,16.353 C4.74294,16.346 4.17834,16.2408 3.64401,16.042 C3.2537,15.893 2.89902,15.6637 2.6029,15.369 C2.30679,15.0742 2.07585,14.7206 1.92501,14.331 C1.72846,13.7961 1.62333,13.2318 1.61401,12.662 C1.57101,11.712 1.56101,11.444 1.56101,9.008 C1.56101,6.571 1.56101,6.322 1.61401,5.353 C1.62048,4.77703 1.72567,4.20642 1.92501,3.666 C2.23001,2.877 2.85501,2.256 3.64401,1.954 C4.1786,1.75614 4.74304,1.65097 5.31301,1.643 C6.26401,1.6 6.53101,1.588 8.968,1.588 C11.405,1.588 11.655,1.588 12.622,1.643 C13.1924,1.64987 13.7574,1.75508 14.292,1.954 C14.6809,2.10428 15.0342,2.33421 15.329,2.62903 C15.6238,2.92386 15.8537,3.27708 16.004,3.666 C16.2006,4.20095 16.3057,4.76516 16.315,5.335 C16.358,6.28601 16.369,6.553 16.369,8.99 C16.369,11.426 16.369,11.688 16.326,12.644 L16.315,12.644 L16.315,12.643 Z" id="Shape"></path>
        </g>
    </g>
</svg>