<svg width="24" height="24" viewBox="0 0 24 24" fill="none" xmlns="http://www.w3.org/2000/svg">
<path d="M12.0021 24.0182C18.6194 24.0182 23.9838 18.6538 23.9838 12.0365C23.9838 5.41919 18.6194 0.0548096 12.0021 0.0548096C5.38477 0.0548096 0.0203857 5.41919 0.0203857 12.0365C0.0203857 18.6538 5.38477 24.0182 12.0021 24.0182Z" fill="#009DEC"/>
<path d="M18.9739 7.25332L16.3896 19.5137C16.2093 20.3551 15.6684 20.5955 14.9472 20.1748L10.9806 17.2299L9.05739 19.093C8.817 19.3334 8.6968 19.4536 8.2761 19.4536L8.5766 15.4269L15.9088 8.81591C16.2093 8.51541 15.8487 8.39521 15.428 8.63561L6.35291 14.3451L2.44642 13.1431C1.60503 12.9027 1.60502 12.3017 2.62672 11.881L17.8921 5.99122C18.5532 5.75082 19.1542 6.17153 18.9739 7.25332Z" fill="white"/>
</svg>
