<?xml version="1.0" encoding="UTF-8"?>
<svg width="20px" height="22px" viewBox="0 0 20 22" version="1.1" xmlns="http://www.w3.org/2000/svg" xmlns:xlink="http://www.w3.org/1999/xlink">
    <title>viber</title>
    <g id="Page-1" stroke="none" stroke-width="1" fill="none" fill-rule="evenodd">
        <g id="viber" fill="#C62C38" fill-rule="nonzero">
            <path d="M19.4327,12.7727 C20.0754,7.33638 19.1344,3.88547 17.459,2.3491 C14.7508,-0.34544 5.6393,-0.72362 2.38029,2.46728 C0.93439,4.00365 0.42947,6.27274 0.36062,9.0855 C0.29176,11.8982 0.24586,17.1691 4.99668,18.6109 L4.99668,20.7855 C4.99668,20.7855 4.97373,21.6836 5.52455,21.8491 C6.14422,22.0855 6.44258,21.66 8.3934,19.2491 C10.4245,19.4483 12.4737,19.2884 14.4524,18.7764 C15.095,18.54 18.8131,18.0436 19.4327,12.7727 Z M8.7147,17.7364 C8.7147,17.7364 6.64914,20.36 6.00652,21.0455 C5.77701,21.2818 5.5475,21.2818 5.57045,20.8091 L5.57045,17.2164 C1.53111,16.0346 1.78357,11.5436 1.82947,9.18 C1.87537,6.81638 2.28848,4.92547 3.50488,3.60183 C6.35078,0.83638 14.3606,1.45092 16.4262,3.43638 C18.9278,5.70547 18.0327,12.1582 18.0327,12.3709 C17.5278,16.7673 14.4983,17.0509 13.9475,17.24 C12.2466,17.6834 10.4876,17.843 8.7377,17.7127 L8.7147,17.7364 Z" id="Shape"></path>
            <path d="M9.8623,4.09821 C9.8054,4.11565 9.7556,4.15154 9.7201,4.20051 C9.6847,4.24949 9.6655,4.30894 9.6655,4.37002 C9.6655,4.43111 9.6847,4.49056 9.7201,4.53954 C9.7556,4.58851 9.8054,4.62439 9.8623,4.64184 C12.4787,4.66548 14.636,6.53275 14.659,10.0073 C14.659,10.0763 14.6856,10.1424 14.7329,10.1911 C14.7803,10.2399 14.8445,10.2673 14.9115,10.2673 C14.9784,10.2673 15.0426,10.2399 15.09,10.1911 C15.1373,10.1424 15.1639,10.0763 15.1639,10.0073 C15.141,6.27275 12.777,4.12184 9.8623,4.09821 Z" id="Path"></path>
            <path d="M13.3049,9.44 C13.3049,9.5089 13.3315,9.5751 13.3788,9.6238 C13.4262,9.6726 13.4904,9.7 13.5574,9.7 C13.6243,9.7 13.6885,9.6726 13.7359,9.6238 C13.7832,9.5751 13.8098,9.5089 13.8098,9.44 C13.8557,7.38363 12.6393,5.70545 10.3213,5.51636 C10.2636,5.5311 10.212,5.56468 10.1744,5.61208 C10.1368,5.65948 10.115,5.71816 10.1124,5.77934 C10.1098,5.84052 10.1266,5.90092 10.1601,5.95151 C10.1936,6.00209 10.2421,6.04015 10.2983,6.05999 C12.2951,6.22545 13.3508,7.61999 13.282,9.4164 L13.3049,9.44 Z M12.7541,11.7564 C12.589,11.6459 12.3903,11.6017 12.1957,11.6322 C12.001,11.6628 11.8241,11.7658 11.6983,11.9218 L11.3082,12.4182 C11.2395,12.4976 11.1543,12.5601 11.0589,12.601 C10.9636,12.6419 10.8605,12.6602 10.7574,12.6545 C8.118,11.9454 7.40654,9.1091 7.40654,9.1091 C7.39735,8.9955 7.41321,8.8812 7.45296,8.7747 C7.4927,8.6683 7.55529,8.5725 7.63605,8.4945 L8.0951,8.0927 C8.2424,7.94952 8.3367,7.75796 8.3619,7.55093 C8.387,7.3439 8.3413,7.13432 8.2328,6.95818 C7.8606,6.26877 7.42235,5.61948 6.92458,5.01999 C6.81955,4.87893 6.6669,4.78363 6.49687,4.75299 C6.32685,4.72234 6.15185,4.75859 6.00654,4.85454 C5.22622,5.32727 4.39999,6.17818 4.65245,7.05272 C5.11146,7.97454 5.93769,10.9291 8.6,13.1745 C9.8393,14.2145 11.8131,15.3018 12.6623,15.5382 C13.4885,15.8454 14.2688,14.9473 14.7279,14.12 C14.8131,13.964 14.8437,13.7826 14.8144,13.6061 C14.7852,13.4296 14.6979,13.2689 14.5672,13.1509 C14.0155,12.6176 13.4073,12.1498 12.7541,11.7564 Z" id="Shape"></path>
            <path d="M10.6886,7.54913 C11.5377,7.5964 11.9509,8.0455 11.9738,8.9673 C11.9738,9.0394 12.0016,9.1085 12.0511,9.1595 C12.1006,9.2105 12.1677,9.2391 12.2377,9.2391 C12.3077,9.2391 12.3749,9.2105 12.4244,9.1595 C12.4739,9.1085 12.5017,9.0394 12.5017,8.9673 C12.4328,7.73822 11.8131,7.0764 10.7115,7.00549 C10.6538,7.02023 10.6023,7.05381 10.5646,7.10121 C10.527,7.14861 10.5052,7.20729 10.5026,7.26847 C10.5001,7.32965 10.5168,7.39005 10.5503,7.44064 C10.5838,7.49123 10.6323,7.52929 10.6886,7.54913 Z" id="Path"></path>
        </g>
    </g>
</svg>