<svg width="24" height="24" viewBox="0 0 24 24" fill="none" xmlns="http://www.w3.org/2000/svg">
<g clip-path="url(#clip0)">
<path d="M12.0403 24.007C18.6784 24.007 24.0596 18.6257 24.0596 11.9876C24.0596 5.34948 18.6784 -0.0317688 12.0403 -0.0317688C5.40218 -0.0317688 0.0209351 5.34948 0.0209351 11.9876C0.0209351 18.6257 5.40218 24.007 12.0403 24.007Z" fill="#7360F2"/>
<path d="M20.6897 13.9185C21.2915 9.10345 20.3887 6.09405 18.884 4.73982C16.4765 2.33229 8.1254 1.95612 5.19123 4.73982C3.837 6.09405 3.38559 8.1254 3.38559 10.6082C3.31035 13.0909 3.31035 17.7555 7.59875 19.0345V20.9906C7.59875 20.9906 7.59875 21.743 8.05016 21.8934C8.65205 22.0439 8.87775 21.743 10.6834 19.5611C13.6176 19.7868 15.9499 19.2602 16.1756 19.1097C16.7774 18.9593 20.163 18.5078 20.6897 13.9185ZM10.9091 18.2821C10.9091 18.2821 9.02822 20.6144 8.42634 21.2163C8.20063 21.442 8.05016 21.3668 8.05016 20.9906C8.05016 20.7649 8.05016 17.7555 8.05016 17.7555C4.36364 16.7022 4.58935 12.7147 4.66459 10.6834C4.73982 8.57681 5.116 6.92163 6.16929 5.79311C8.72728 3.38558 16.0251 3.91223 17.906 5.64264C20.163 7.67398 19.3354 13.3166 19.3354 13.5423C18.884 17.4545 16.1003 17.6803 15.6489 17.8307C15.4984 17.906 13.4671 18.4326 10.9091 18.2821Z" fill="white"/>
<path d="M11.9624 6.24451C11.6615 6.24451 11.6615 6.69592 11.9624 6.69592C14.3699 6.69592 16.326 8.35109 16.326 11.4357C16.326 11.7367 16.7774 11.7367 16.7774 11.4357C16.7774 8.12538 14.6709 6.24451 11.9624 6.24451Z" fill="white"/>
<path d="M15.1222 10.9091C15.1222 11.21 15.5736 11.21 15.5736 10.9091C15.6489 9.10345 14.5203 7.59874 12.4138 7.44827C12.1128 7.44827 12.0376 7.89968 12.4138 7.89968C14.2194 8.12539 15.1222 9.32915 15.1222 10.9091Z" fill="white"/>
<path d="M14.5956 13.0157C14.2194 12.79 13.768 12.9404 13.6175 13.1661L13.3166 13.5423C13.1661 13.768 12.7899 13.768 12.7899 13.768C10.3824 13.1661 9.78053 10.6082 9.78053 10.6082C9.78053 10.6082 9.78053 10.232 10.0062 10.0815L10.4576 9.70533C10.6834 9.55486 10.8338 9.10345 10.6081 8.72727C10.0062 7.67398 9.63006 7.29781 9.40436 6.99687C9.17865 6.69593 8.87771 6.69593 8.57677 6.8464C7.89965 7.22257 7.1473 7.97492 7.37301 8.80251C7.74918 9.63009 8.57677 12.2633 10.9843 14.2194C12.1128 15.1223 13.9185 16.1003 14.6708 16.326C15.4232 16.5517 16.1755 15.7994 16.5517 15.047C16.7022 14.6708 16.7022 14.3699 16.4012 14.1442C15.7993 13.768 15.1222 13.3166 14.5956 13.0157Z" fill="white"/>
<path d="M12.7147 9.2539C13.4671 9.32914 13.8433 9.70531 13.9185 10.5329C13.9185 10.8338 14.3699 10.8338 14.3699 10.5329C14.2947 9.47961 13.768 8.87773 12.7147 8.80249C12.489 8.72726 12.4138 9.2539 12.7147 9.2539Z" fill="white"/>
</g>
<defs>
<clipPath id="clip0">
<rect width="24" height="24" fill="white"/>
</clipPath>
</defs>
</svg>
