<svg width="16" height="16" viewBox="0 0 16 16" fill="none" xmlns="http://www.w3.org/2000/svg">
<path d="M13.8708 8.5599C14.2833 5.28874 13.6646 3.24426 12.6333 2.32425C10.9833 0.688672 5.25984 0.433112 3.24889 2.32425C2.32076 3.24426 2.01139 4.62428 2.01139 6.31098C1.95982 7.99767 1.95982 11.1666 4.8989 12.0355V13.3644C4.8989 13.3644 4.8989 13.8755 5.20828 13.9778C5.62078 14.08 5.77547 13.8755 7.01297 12.3933C9.02392 12.5466 10.6224 12.1888 10.7771 12.0866C11.1896 11.9844 13.5099 11.6777 13.8708 8.5599ZM7.16766 11.5244C7.16766 11.5244 5.87859 13.1089 5.46609 13.5177C5.3114 13.6711 5.20828 13.62 5.20828 13.3644C5.20828 13.2111 5.20828 11.1666 5.20828 11.1666C2.6817 10.451 2.83639 7.74211 2.88795 6.36209C2.93952 4.93095 3.19733 3.80649 3.91921 3.03982C5.67234 1.40424 10.6739 1.76202 11.963 2.93759C13.5099 4.31761 12.9427 8.151 12.9427 8.30434C12.6333 10.9622 10.7255 11.1155 10.4161 11.2177C10.313 11.2688 8.9208 11.6266 7.16766 11.5244Z" fill="white"/>
<path d="M7.63959 3.20605C7.4249 3.20605 7.4249 3.52809 7.63959 3.52809C9.35709 3.52809 10.7526 4.70887 10.7526 6.90941C10.7526 7.1241 11.0746 7.1241 11.0746 6.90941C11.0746 4.54785 9.57178 3.20605 7.63959 3.20605Z" fill="white"/>
<path d="M9.89376 6.53384C9.89376 6.74853 10.2158 6.74853 10.2158 6.53384C10.2695 5.24572 9.46439 4.17229 7.96157 4.06494C7.74689 4.06494 7.69322 4.38697 7.96157 4.38697C9.2497 4.54799 9.89376 5.40674 9.89376 6.53384Z" fill="white"/>
<path d="M9.51806 8.03654C9.2497 7.87552 8.92767 7.98287 8.82033 8.14388L8.60564 8.41224C8.4983 8.57326 8.22994 8.57326 8.22994 8.57326C6.51244 8.14388 6.08307 6.31904 6.08307 6.31904C6.08307 6.31904 6.08307 6.05068 6.24408 5.94334L6.56612 5.67498C6.72713 5.56764 6.83447 5.2456 6.67346 4.97725C6.24408 4.22584 5.97573 3.95748 5.81471 3.74279C5.65369 3.52811 5.43901 3.52811 5.22432 3.63545C4.74127 3.90381 4.20456 4.44053 4.36557 5.03092C4.63393 5.62131 5.22432 7.49982 6.94182 8.89529C7.7469 9.53935 9.03502 10.2371 9.57174 10.3981C10.1085 10.5591 10.6452 10.0224 10.9135 9.48568C11.0209 9.21732 11.0209 9.00263 10.8062 8.84162C10.3768 8.57326 9.89377 8.25122 9.51806 8.03654Z" fill="white"/>
<path d="M8.1763 5.35316C8.71302 5.40683 8.98138 5.67519 9.03505 6.26558C9.03505 6.48027 9.35708 6.48027 9.35708 6.26558C9.30341 5.51417 8.9277 5.0848 8.1763 5.03113C8.01528 4.97746 7.96161 5.35316 8.1763 5.35316Z" fill="white"/>
</svg>
