<?xml version="1.0" encoding="UTF-8"?>
<svg width="20px" height="12px" viewBox="0 0 20 12" version="1.1" xmlns="http://www.w3.org/2000/svg" xmlns:xlink="http://www.w3.org/1999/xlink">
    <title>Path</title>
    <g id="Page-1" stroke="none" stroke-width="1" fill="none" fill-rule="evenodd">
        <g id="vk" fill="#C62C38" fill-rule="nonzero">
            <path d="M19.579,0.85501 C19.719,0.39001 19.579,0.04901 18.917,0.04901 L16.724,0.04901 C16.166,0.04901 15.911,0.34401 15.771,0.66801 C15.771,0.66801 14.656,3.38701 13.076,5.15 C12.566,5.663 12.333,5.825 12.055,5.825 C11.916,5.825 11.714,5.663 11.714,5.198 L11.714,0.85501 C11.714,0.29701 11.553,0.04901 11.088,0.04901 L7.642,0.04901 C7.294,0.04901 7.084,0.30701 7.084,0.55301 C7.084,1.08101 7.874,1.20301 7.955,2.69101 L7.955,5.919 C7.955,6.626 7.828,6.755 7.548,6.755 C6.805,6.755 4.997,4.026 3.924,0.90201 C3.715,0.29501 3.504,0.05001 2.944,0.05001 L0.752,0.05001 C0.125,0.05001 0,0.34501 0,0.66901 C0,1.25101 0.743,4.131 3.461,7.94 C5.273,10.541 7.824,11.951 10.148,11.951 C11.541,11.951 11.713,11.638 11.713,11.098 L11.713,9.132 C11.713,8.506 11.846,8.38 12.287,8.38 C12.611,8.38 13.169,8.544 14.47,9.797 C15.956,11.283 16.202,11.95 17.037,11.95 L19.229,11.95 C19.855,11.95 20.168,11.637 19.988,11.019 C19.791,10.404 19.081,9.509 18.139,8.45 C17.627,7.846 16.862,7.196 16.629,6.871 C16.304,6.452 16.398,6.267 16.629,5.895 C16.63,5.896 19.301,2.13401 19.579,0.85501 Z" id="Path"></path>
        </g>
    </g>
</svg>