<svg width="24" height="24" viewBox="0 0 24 24" fill="none" xmlns="http://www.w3.org/2000/svg">
<g clip-path="url(#clip0)">
<path d="M12.0022 24.0186C18.6195 24.0186 23.984 18.6542 23.984 12.0368C23.984 5.41946 18.6195 0.0550232 12.0022 0.0550232C5.38482 0.0550232 0.0203857 5.41946 0.0203857 12.0368C0.0203857 18.6542 5.38482 24.0186 12.0022 24.0186Z" fill="#25D366"/>
<path d="M18.4407 5.58424C16.831 3.97464 14.7445 3.08041 12.4792 3.08041C7.8292 3.08041 4.01384 6.89577 4.01384 11.5457C4.01384 13.0361 4.43114 14.4669 5.14652 15.7784L3.95422 20.1303L8.42534 18.938C9.67726 19.5938 11.0484 19.9514 12.4792 19.9514C17.1291 19.9514 21.0041 16.1361 21.0041 11.4861C21.0041 9.28037 20.0503 7.19384 18.4407 5.58424ZM12.4792 18.5803C11.2272 18.5803 9.97533 18.2226 8.90226 17.6265L8.6638 17.4476L5.98113 18.163L6.69651 15.5995L6.51767 15.3611C5.80229 14.2284 5.4446 12.9765 5.4446 11.6053C5.4446 7.73038 8.60419 4.57079 12.4792 4.57079C14.3272 4.57079 16.1157 5.28617 17.4272 6.65731C18.7387 7.96884 19.5733 9.75729 19.5733 11.6053C19.5733 15.4207 16.3541 18.5803 12.4792 18.5803ZM16.3541 13.3342C16.1157 13.215 15.1022 12.738 14.9234 12.6784C14.7445 12.6188 14.5657 12.5592 14.4465 12.7976C14.3272 13.0361 13.9099 13.4534 13.7907 13.6323C13.6715 13.7515 13.5522 13.8111 13.3138 13.6919C12.0619 13.0957 11.2869 12.5592 10.4523 11.188C10.2138 10.8304 10.6907 10.8304 11.0484 10.0554C11.108 9.93613 11.108 9.8169 11.0484 9.69767C10.9888 9.57844 10.5715 8.56499 10.3926 8.14768C10.2138 7.73038 10.0349 7.78999 9.91572 7.78999C9.79649 7.78999 9.67726 7.78999 9.49841 7.78999C9.37918 7.78999 9.14072 7.84961 8.96188 8.02845C8.78303 8.26691 8.2465 8.74383 8.2465 9.8169C8.2465 10.89 9.02149 11.8438 9.08111 12.0227C9.20034 12.1419 10.5715 14.288 12.7176 15.2419C14.0291 15.838 14.5657 15.8976 15.2811 15.7784C15.6984 15.7188 16.533 15.2419 16.7118 14.7649C16.8907 14.288 16.8907 13.8707 16.831 13.7515C16.7118 13.4534 16.533 13.4534 16.3541 13.3342Z" fill="white"/>
</g>
<defs>
<clipPath id="clip0">
<rect width="24" height="24" fill="white"/>
</clipPath>
</defs>
</svg>
