<?xml version="1.0" encoding="UTF-8"?>
<svg width="19px" height="19px" viewBox="0 0 19 19" version="1.1" xmlns="http://www.w3.org/2000/svg" xmlns:xlink="http://www.w3.org/1999/xlink">
    <title>Shape</title>
    <g id="Page-1" stroke="none" stroke-width="1" fill="none" fill-rule="evenodd">
        <g id="whatsapp" fill="#C62C38">
            <path d="M15.403,2.63303 C14.5714,1.79591 13.5819,1.13214 12.4919,0.68018 C11.4019,0.22821 10.233,-0.00297 9.053,1.1724986e-06 C4.105,1.1724986e-06 0.077,4.02703 0.075,8.977 C0.075,10.559 0.488,12.103 1.273,13.465 L0,18.116 L4.759,16.867 C6.07539,17.5836 7.5502,17.9594 9.049,17.96 L9.053,17.96 C14,17.96 18.028,13.933 18.0300371,8.983 C18.0334,7.8035 17.803,6.63502 17.3521,5.54509 C16.9012,4.45516 16.2387,3.4654 15.403,2.63303 Z M9.053,16.4450001 L9.05,16.4450001 C7.7135,16.4452 6.40163,16.0856 5.252,15.404 L4.98,15.242 L2.156,15.983 L2.909,13.23 L2.732,12.948 C1.98479,11.7585 1.58923,10.3818 1.59099409,8.977 C1.593,4.86303 4.94,1.51601167 9.056,1.51601167 C10.0363,1.51385 11.0072,1.70611 11.9127,2.08168 C12.8181,2.45725 13.6401,3.00867 14.331,3.70403 C15.0256,4.39607 15.5762,5.21892 15.9509,6.12503 C16.3256,7.0311 16.517,8.0025 16.5140347,8.983 C16.512,13.097 13.165,16.4450001 9.053,16.4450001 Z M13.146,10.856 C12.921,10.743 11.819,10.201 11.613,10.126 C11.408,10.051 11.259,10.014 11.109,10.238 C10.959,10.462 10.529,10.967 10.398,11.117 C10.267,11.267 10.136,11.285 9.912,11.173 C9.688,11.061 8.965,10.824 8.108,10.06 C7.441,9.465 6.991,8.731 6.86,8.506 C6.729,8.281 6.846,8.16 6.959,8.048 C7.06,7.948 7.183,7.786 7.295,7.655 C7.407,7.524 7.444,7.431 7.519,7.281 C7.594,7.131 7.557,7 7.5,6.88803 C7.444,6.77503 6.995,5.67103 6.808,5.22203 C6.627,4.78703 6.442,4.84503 6.304,4.83903 C6.16108,4.83318 6.01804,4.83052 5.875,4.83096847 C5.76126,4.83393 5.64934,4.86029 5.54626,4.90848 C5.44318,4.95666 5.35117,5.02562 5.276,5.11103 C5.07,5.33603 4.491,5.87803 4.491,6.98203 C4.491,8.086 5.295,9.153 5.407,9.303 C5.519,9.453 6.989,11.718 9.239,12.69 C9.775,12.921 10.193,13.059 10.518,13.163 C11.055,13.334 11.544,13.309 11.931,13.252 C12.362,13.188 13.258,12.71 13.445,12.186 C13.632,11.662 13.632,11.213 13.576,11.119 C13.52,11.025 13.369,10.968 13.146,10.856 Z" id="Shape"></path>
        </g>
    </g>
</svg>