<svg width="16" height="16" viewBox="0 0 16 16" fill="none" xmlns="http://www.w3.org/2000/svg">
<path d="M14.3953 4.80217C14.3194 4.52044 14.171 4.2635 13.9649 4.05695C13.7588 3.85039 13.5022 3.70141 13.2207 3.62483C12.1767 3.33817 8.00001 3.3335 8.00001 3.3335C8.00001 3.3335 3.82401 3.32883 2.77934 3.60283C2.49796 3.68293 2.24189 3.83402 2.03572 4.04159C1.82955 4.24916 1.6802 4.50625 1.60201 4.78817C1.32667 5.83217 1.32401 7.9975 1.32401 7.9975C1.32401 7.9975 1.32134 10.1735 1.59467 11.2068C1.74801 11.7782 2.19801 12.2295 2.77001 12.3835C3.82467 12.6702 7.99001 12.6748 7.99001 12.6748C7.99001 12.6748 12.1667 12.6795 13.2107 12.4062C13.4923 12.3297 13.7492 12.1811 13.9558 11.975C14.1624 11.7688 14.3116 11.5123 14.3887 11.2308C14.6647 10.1875 14.6667 8.02283 14.6667 8.02283C14.6667 8.02283 14.68 5.84617 14.3953 4.80217ZM6.66401 10.0035L6.66734 6.0035L10.1387 8.00683L6.66401 10.0035Z" fill="white"/>
</svg>
