<svg width="14" height="10" viewBox="0 0 14 10" fill="none" xmlns="http://www.w3.org/2000/svg">
<path d="M13.3953 1.80198C13.3194 1.52025 13.171 1.26332 12.9649 1.05676C12.7588 0.850205 12.5022 0.701225 12.2206 0.624651C11.1766 0.337985 6.99998 0.333318 6.99998 0.333318C6.99998 0.333318 2.82398 0.328651 1.77931 0.602651C1.49793 0.682749 1.24186 0.833836 1.03569 1.04141C0.829515 1.24898 0.680166 1.50607 0.601976 1.78798C0.326642 2.83198 0.323976 4.99732 0.323976 4.99732C0.323976 4.99732 0.321309 7.17332 0.594642 8.20665C0.747976 8.77798 1.19798 9.22932 1.76998 9.38332C2.82464 9.66999 6.98998 9.67465 6.98998 9.67465C6.98998 9.67465 11.1666 9.67932 12.2106 9.40598C12.4923 9.32955 12.7491 9.18091 12.9557 8.97477C13.1623 8.76864 13.3116 8.51214 13.3886 8.23065C13.6646 7.18732 13.6666 5.02265 13.6666 5.02265C13.6666 5.02265 13.68 2.84598 13.3953 1.80198ZM5.66398 7.00332L5.66731 3.00332L9.13864 5.00665L5.66398 7.00332Z" fill="#C62C38"/>
</svg>
