<svg width="20" height="20" viewBox="0 0 20 20" fill="none" xmlns="http://www.w3.org/2000/svg">
<path fill-rule="evenodd" clip-rule="evenodd" d="M15.0001 10C15.0001 10.1658 14.9343 10.3247 14.8171 10.4419C14.6999 10.5591 14.5409 10.625 14.3751 10.625H7.13389L9.81764 13.3075C9.87575 13.3656 9.92185 13.4346 9.9533 13.5105C9.98474 13.5864 10.0009 13.6678 10.0009 13.75C10.0009 13.8322 9.98474 13.9136 9.9533 13.9895C9.92185 14.0654 9.87575 14.1344 9.81764 14.1925C9.75953 14.2506 9.69054 14.2967 9.61462 14.3282C9.5387 14.3596 9.45732 14.3758 9.37514 14.3758C9.29296 14.3758 9.21159 14.3596 9.13566 14.3282C9.05974 14.2967 8.99075 14.2506 8.93264 14.1925L5.18264 10.4425C5.12444 10.3844 5.07826 10.3155 5.04675 10.2395C5.01524 10.1636 4.99902 10.0822 4.99902 10C4.99902 9.91779 5.01524 9.83639 5.04675 9.76045C5.07826 9.68452 5.12444 9.61555 5.18264 9.5575L8.93264 5.8075C9.05 5.69014 9.20917 5.62421 9.37514 5.62421C9.54111 5.62421 9.70028 5.69014 9.81764 5.8075C9.935 5.92485 10.0009 6.08403 10.0009 6.25C10.0009 6.41597 9.935 6.57514 9.81764 6.6925L7.13389 9.375H14.3751C14.5409 9.375 14.6999 9.44084 14.8171 9.55805C14.9343 9.67526 15.0001 9.83424 15.0001 10Z" fill="#245ED3"/>
</svg>
