<svg width="16" height="16" viewBox="0 0 16 16" fill="none" xmlns="http://www.w3.org/2000/svg">
<g clip-path="url(#clip0)">
<path d="M15.7806 6.22932L15.0735 5.52223C14.7806 5.22932 14.3057 5.22932 14.0128 5.52223L13.836 5.69901L10.3005 2.16348L10.4773 1.9867C10.7702 1.69379 10.7702 1.21892 10.4773 0.926042L9.77017 0.218917C9.47727 -0.0739895 9.00239 -0.0739895 8.70952 0.218917L4.82042 4.10801C4.52752 4.40092 4.52752 4.87579 4.82042 5.16867L5.52752 5.87576C5.82042 6.16867 6.2953 6.16867 6.58817 5.87576L6.76496 5.69898L8.00239 6.93642L5.46989 9.46892L5.29311 9.29214C4.90258 8.9016 4.26942 8.9016 3.87889 9.29214L0.293143 12.8779C-0.0973887 13.2685 -0.0973887 13.9016 0.293143 14.2922L1.70736 15.7064C2.09789 16.0969 2.73105 16.0969 3.12158 15.7064L6.70736 12.1206C7.09789 11.7301 7.09789 11.0969 6.70736 10.7064L6.53058 10.5296L9.06308 7.9971L10.3005 9.23454L10.1237 9.41132C9.83083 9.70423 9.83083 10.1791 10.1237 10.472L10.8308 11.1791C11.1237 11.472 11.5986 11.472 11.8915 11.1791L15.7806 7.28998C16.0735 6.9971 16.0735 6.52223 15.7806 6.22932Z" fill="#C62C38"/>
</g>
<defs>
<clipPath id="clip0">
<rect width="16" height="16" fill="white"/>
</clipPath>
</defs>
</svg>
