<svg width="10" height="12" viewBox="0 0 10 12" fill="none" xmlns="http://www.w3.org/2000/svg">
<path d="M4.53314 0.191803L0.19942 4.52543C0.075714 4.64913 0.00781219 4.81401 0.00781219 4.98981C0.0078122 5.16581 0.0758116 5.33059 0.19942 5.4543L0.592978 5.84776C0.716489 5.97137 0.881464 6.03946 1.05736 6.03946C1.23317 6.03946 1.4037 5.97137 1.52721 5.84776L4.06095 3.31958L4.06095 11.3517C4.06095 11.7139 4.34446 12 4.7067 12L5.26309 12C5.62533 12 5.93742 11.7139 5.93742 11.3517L5.93742 3.2909L8.4853 5.84766C8.60901 5.97127 8.7695 6.03937 8.9454 6.03937C9.1211 6.03937 9.28393 5.97127 9.40754 5.84766L9.79983 5.4542C9.92354 5.33049 9.99095 5.16571 9.99095 4.98971C9.99095 4.81391 9.92266 4.64904 9.79895 4.52533L5.46533 0.191705C5.34123 0.0677059 5.17557 -0.000487553 4.99948 -2.18193e-07C4.8228 -0.000390263 4.65704 0.0677059 4.53314 0.191803Z" fill="#3760DA"/>
</svg>
