<svg width="18" height="16" viewBox="0 0 18 16" fill="none" xmlns="http://www.w3.org/2000/svg">
<path fill-rule="evenodd" clip-rule="evenodd" d="M13.8068 4.98483H17.3327C17.3327 2.15383 15.6364 0.5 12.7623 0.5H5.23639C2.36231 0.5 0.666016 2.15383 0.666016 4.94872V11.0513C0.666016 13.8462 2.36231 15.5 5.23639 15.5H12.7623C15.6364 15.5 17.3327 13.8462 17.3327 11.0513V10.7913H13.8068C12.1704 10.7913 10.8438 9.49793 10.8438 7.9025C10.8438 6.30707 12.1704 5.01372 13.8068 5.01372V4.98483ZM13.8067 6.22707H16.7104C17.0541 6.22707 17.3326 6.49867 17.3326 6.83371V8.94252C17.3286 9.27593 17.0524 9.54527 16.7104 9.54917H13.8734C13.045 9.56003 12.3205 9.00703 12.1326 8.22033C12.0385 7.73197 12.1706 7.22803 12.4935 6.84357C12.8164 6.45911 13.2971 6.23345 13.8067 6.22707ZM13.9326 8.4442H14.2066C14.5585 8.4442 14.8437 8.16613 14.8437 7.82312C14.8437 7.4801 14.5585 7.20203 14.2066 7.20203H13.9326C13.7643 7.2001 13.6022 7.26392 13.4826 7.37925C13.3629 7.49458 13.2955 7.65183 13.2955 7.81589C13.2955 8.1601 13.5795 8.44025 13.9326 8.4442ZM4.61428 4.98477H9.31798C9.66981 4.98477 9.95502 4.70669 9.95502 4.36368C9.95502 4.02066 9.66981 3.74259 9.31798 3.74259H4.61428C4.26532 3.74257 3.9813 4.01626 3.97724 4.35646C3.97722 4.70066 4.26126 4.98081 4.61428 4.98477Z" fill="#349F5F"/>
</svg>
