<svg width="80" height="31" viewBox="0 0 80 31" fill="none" xmlns="http://www.w3.org/2000/svg">
<path d="M79.7975 11.4031C79.5949 11.0617 79.2574 10.8568 78.8523 10.7885L58.8692 8.12555C58.1266 8.05727 57.4515 8.53524 57.384 9.28634C57.3165 10.0374 57.789 10.7203 58.5316 10.7885L61.3671 11.1982V14.6123L54.6835 13.8612V7.1696L57.1139 3.4141C57.384 3.00441 57.384 2.45815 57.1814 2.04846C56.9789 1.63877 56.5063 1.36564 56.0338 1.36564L28.0844 0C27.6118 0 27.2068 0.204846 26.9367 0.546256L20.2532 9.96916C20.2532 10.0374 20.2532 10.0374 20.1857 10.1057L1.48523 8.05727C1.08017 7.98899 0.742616 8.12555 0.472574 8.39868C0.135021 8.67181 0 9.0815 0 9.42291C0 21.304 13.7722 31 30.6498 31H73.3165C73.924 31 74.3966 30.5903 74.5992 30.0441L79.9325 12.4956C80.0675 12.1542 80 11.7445 79.7975 11.4031ZM64 14.8172V11.4714L69.3333 12.2225V15.4317L64 14.8172C64 14.8855 64 14.8172 64 14.8172ZM41.2489 3.34581L53.6034 3.96035L52.2532 6.00881C52.0506 6.21366 51.9831 6.48678 51.9831 6.75991V13.5881L39.9662 12.2907L41.2489 3.34581ZM28.692 2.73128L38.616 3.20925L37.4008 11.9493C37.4008 11.9493 37.4008 11.9493 37.4008 12.0176L23.2911 10.5154L28.692 2.73128ZM72.3713 28.337H30.6498C18.903 28.337 8.77637 23.3524 4.65823 16.3877L73.5865 24.1718L72.3713 28.337ZM74.3966 21.5088L3.37553 13.5881C3.10549 12.7687 2.83544 11.8811 2.76793 10.9934L75.2743 18.8458L74.3966 21.5088ZM76.0169 16.1828L71.9662 15.7731V12.6322L76.8945 13.315L76.0169 16.1828Z" fill="#C62C38"/>
</svg>
