<svg width="75" height="40" viewBox="0 0 75 40" fill="none" xmlns="http://www.w3.org/2000/svg">
<path d="M1.22951 32.4529H5.05465C5.7377 37.2556 10.1776 40.6175 14.959 39.8628C18.7842 39.3139 21.7896 36.2951 22.3361 32.4529H52.5956C53.2787 37.2556 57.7186 40.6175 62.5 39.9314C66.5984 39.3139 69.7404 35.952 70.0137 31.7668L74.6585 27.1012C74.8634 26.8954 75 26.5523 75 26.2093V14.8885C75 14.6141 74.9317 14.3397 74.7268 14.1338L70.2186 8.50775L72.4044 4.11667C72.7459 3.49918 72.4727 2.74446 71.8579 2.4014C71.7213 2.33279 71.5847 2.26418 71.4481 2.26418L64.6175 1.50947L52.3907 0.343086C44.3306 -0.548853 36.2705 0.480307 28.6885 3.29334C24.3169 5.07722 20.2869 7.5472 16.6667 10.5661L14.276 12.5558L12.5683 13.5163L4.71311 16.6038C4.64481 16.6038 4.64481 16.6724 4.5765 16.6724C1.77596 18.1819 0 21.1321 0 24.3568V31.2179C0 31.904 0.546448 32.4529 1.22951 32.4529ZM13.7295 37.4614C10.2459 37.4614 7.44535 34.6484 7.44535 31.1493C7.44535 27.6501 10.2459 24.8371 13.7295 24.8371C17.2131 24.8371 20.0137 27.6501 20.0137 31.1493C20.0137 34.6484 17.2131 37.4614 13.7295 37.4614ZM61.2705 37.4614C57.7869 37.4614 54.9863 34.6484 54.9863 31.1493C54.9863 27.6501 57.7869 24.8371 61.2705 24.8371C64.7541 24.8371 67.5546 27.6501 67.5546 31.1493C67.4863 34.6484 64.6858 37.4614 61.2705 37.4614ZM72.541 19.8971H68.5109L67.8962 17.3585H72.541V19.8971ZM65.0956 4.18528L69.3306 4.66556L67.6229 8.09609C67.418 8.50775 67.4863 9.05664 67.7596 9.4683L72.1311 14.9572H66.2568C65.5738 14.9572 65.0273 15.506 65.0273 16.1921C65.0273 16.2608 65.0273 16.398 65.0956 16.4666L66.3251 21.4752C66.4617 22.024 66.9399 22.4357 67.5546 22.4357H72.541V25.6604L69.6721 28.5421C69.6721 28.5421 69.6721 28.5421 69.6721 28.4734C69.5355 28.0618 69.3989 27.7187 69.194 27.3757C69.1257 27.3071 69.1257 27.2385 69.0574 27.1698C68.8525 26.8268 68.6475 26.4837 68.4426 26.1407C68.3743 26.0721 68.3743 26.0035 68.306 25.9349C68.1011 25.6604 67.8279 25.386 67.6229 25.1115C67.6229 25.0429 67.5546 25.0429 67.5546 24.9743C67.2814 24.6999 67.0082 24.4254 66.6667 24.2196C66.5984 24.151 66.5301 24.0824 66.4618 24.0824C66.1202 23.8765 65.7787 23.6021 65.4372 23.4649C65.3689 23.4649 65.3689 23.3963 65.3005 23.3963C64.959 23.259 64.6175 23.0532 64.276 22.9846C64.2076 22.9846 64.1393 22.916 64.071 22.916C63.6612 22.7788 63.3197 22.7102 62.9098 22.6415C62.8415 22.6415 62.7049 22.6415 62.6366 22.5729C62.2268 22.5043 61.7486 22.4357 61.3388 22.4357C61.0656 22.4357 60.7924 22.4357 60.4508 22.5043C60.3825 22.5043 60.2459 22.5043 60.1776 22.5729C59.9727 22.5729 59.8361 22.6415 59.6311 22.6415C59.4945 22.6415 59.4262 22.7102 59.2896 22.7102C59.153 22.7788 58.9481 22.7788 58.8115 22.8474C58.6749 22.8474 58.6066 22.916 58.4699 22.9846C58.3333 23.0532 58.1967 23.1218 57.9918 23.1218C57.8552 23.1904 57.7869 23.1904 57.6503 23.259C57.5137 23.3277 57.3771 23.3963 57.2404 23.4649C57.1038 23.5335 57.0355 23.6021 56.8989 23.6021C56.7623 23.6707 56.6257 23.7393 56.4891 23.8765C56.4208 23.9451 56.2842 24.0138 56.2159 24.0824C56.0792 24.151 55.9426 24.2882 55.8743 24.3568C55.806 24.4254 55.6694 24.494 55.6011 24.5626C55.4645 24.6999 55.3962 24.7685 55.2596 24.9057C55.1913 24.9743 55.123 25.0429 55.0546 25.1115C54.918 25.2487 54.8497 25.386 54.7131 25.4546C54.6448 25.5232 54.5765 25.5918 54.5082 25.6604C54.3716 25.7976 54.235 26.0035 54.1667 26.1407C54.1667 26.2093 54.0984 26.2093 54.0301 26.2779C53.8934 26.4837 53.7568 26.7582 53.6202 26.964C53.5519 27.0326 53.5519 27.1012 53.5519 27.1698C53.4836 27.3757 53.347 27.5129 53.2787 27.7187C53.2104 27.7873 53.2104 27.9246 53.1421 27.9932C53.0738 28.1304 53.0055 28.3362 52.9372 28.4734C52.8689 28.6107 52.8689 28.6793 52.8689 28.8165C52.8005 28.9537 52.8005 29.1596 52.7322 29.2968C52.7322 29.434 52.6639 29.5026 52.6639 29.6398C52.6639 29.7084 52.5956 29.8457 52.5956 29.9143H39.1393L39.7541 27.3757H48.7705V24.9057H40.3689L42.9645 14.4083L58.8115 13.5849C59.2213 13.5849 59.6311 13.3105 59.8361 12.9674L65.0956 4.18528ZM45.9016 2.53863C46.1749 2.53863 46.5164 2.53863 46.7896 2.53863C48.5656 2.53863 50.3415 2.60724 52.1175 2.81307L62.3634 3.91084L58.0601 11.115L43.6475 11.8011L45.9016 2.53863ZM18.306 12.4872C21.7213 9.60552 25.5464 7.34137 29.6448 5.6261C34.0164 3.91084 38.6612 2.88168 43.306 2.67585L40.9836 12.0069L17.4863 13.1733L18.306 12.4872ZM2.52732 24.3568C2.52732 22.0927 3.75683 19.9657 5.7377 18.868L13.4563 15.8491L40.4372 14.4769L37.8415 24.8371H23.7705V27.4443H37.1585L36.5437 29.9829H22.4044C22.4044 29.9143 22.3361 29.777 22.3361 29.7084C22.3361 29.5712 22.2678 29.5026 22.2678 29.3654C22.1995 29.2282 22.1995 29.0223 22.1311 28.8851C22.1311 28.7479 22.0628 28.6793 22.0628 28.5421C21.9945 28.4048 21.9262 28.199 21.8579 28.0618C21.7896 27.9932 21.7896 27.856 21.7213 27.7873C21.653 27.5815 21.5847 27.4443 21.4481 27.2385C21.3798 27.1698 21.3798 27.1012 21.3115 27.0326C21.1749 26.8268 21.0383 26.5524 20.9016 26.3465C20.9016 26.2779 20.8333 26.2779 20.765 26.2093C20.6284 26.0035 20.4918 25.8662 20.4235 25.729C20.3552 25.6604 20.2869 25.5918 20.2186 25.5232C20.082 25.386 20.0137 25.2487 19.8771 25.1801C19.8087 25.1115 19.7404 25.0429 19.6721 24.9743C19.5355 24.8371 19.4672 24.7685 19.3306 24.6313C19.2623 24.5626 19.1257 24.494 19.0574 24.4254C18.9208 24.3568 18.7842 24.2196 18.7158 24.151C18.6475 24.0824 18.5109 24.0138 18.4426 23.9451C18.306 23.8765 18.1694 23.8079 18.0328 23.6707C17.9645 23.6021 17.8279 23.5335 17.7596 23.5335C17.623 23.4649 17.4863 23.3963 17.3497 23.3277C17.2131 23.259 17.1448 23.259 17.0082 23.1904C16.8716 23.1218 16.735 23.0532 16.5301 23.0532C16.3934 22.9846 16.3251 22.9846 16.1885 22.916C16.0519 22.8474 15.847 22.8474 15.7104 22.7788C15.5738 22.7788 15.5055 22.7102 15.3689 22.7102C15.1639 22.6415 15.0273 22.6415 14.8224 22.6415C14.7541 22.6415 14.6175 22.6415 14.5492 22.5729C14.276 22.5043 14.0027 22.5043 13.6612 22.5043C13.388 22.5043 13.1148 22.5043 12.7732 22.5729C12.7049 22.5729 12.5683 22.5729 12.5 22.6415C12.2951 22.6415 12.1585 22.7102 11.9536 22.7102C11.8169 22.7102 11.7486 22.7788 11.612 22.7788C11.4754 22.8474 11.2705 22.8474 11.1339 22.916C10.9973 22.916 10.929 22.9846 10.7923 23.0532C10.6557 23.1218 10.5191 23.1904 10.3142 23.1904C10.1776 23.259 10.1093 23.259 9.97268 23.3277C9.83607 23.3963 9.69945 23.4649 9.56284 23.5335C9.42623 23.6021 9.35792 23.6707 9.22131 23.6707C9.0847 23.7393 8.94809 23.8079 8.81147 23.9451C8.74317 24.0138 8.60656 24.0824 8.53825 24.151C8.40164 24.2196 8.26503 24.3568 8.19672 24.4254C8.12842 24.494 7.9918 24.5626 7.9235 24.6313C7.78689 24.7685 7.71858 24.8371 7.58197 24.9743C7.51366 24.9743 7.51366 25.0429 7.44535 25.0429H2.52732V24.3568ZM2.52732 27.4443H5.87432C5.80601 27.5129 5.80601 27.6501 5.7377 27.7187C5.6694 27.7873 5.6694 27.9246 5.60109 27.9932C5.53279 28.1304 5.46448 28.3362 5.39617 28.4734C5.32787 28.6107 5.32787 28.6793 5.32787 28.8165C5.25956 28.9537 5.25956 29.1596 5.19126 29.2968C5.19126 29.434 5.12295 29.5026 5.12295 29.6398C5.12295 29.7084 5.05465 29.8457 5.05465 29.9143H2.52732V27.4443Z" fill="#C62C38"/>
</svg>
