<svg width="18" height="18" viewBox="0 0 18 18" fill="none" xmlns="http://www.w3.org/2000/svg">
<path fill-rule="evenodd" clip-rule="evenodd" d="M5.10964 0.667969H12.8921C15.7263 0.667969 17.3263 2.27547 17.3346 5.10964V12.893C17.3346 15.7263 15.7263 17.3346 12.8921 17.3346H5.10964C2.27547 17.3346 0.667969 15.7263 0.667969 12.893V5.10964C0.667969 2.27547 2.27547 0.667969 5.10964 0.667969ZM9.04223 13.8846C9.4014 13.8846 9.70057 13.6179 9.7339 13.2596V4.7679C9.76723 4.50956 9.64307 4.2504 9.41807 4.10956C9.1839 3.9679 8.90057 3.9679 8.6764 4.10956C8.45057 4.2504 8.3264 4.50956 8.35057 4.7679V13.2596C8.39307 13.6179 8.69223 13.8846 9.04223 13.8846ZM12.8762 13.8847C13.2262 13.8847 13.5253 13.618 13.5678 13.2597V10.5264C13.592 10.2589 13.4678 10.0097 13.242 9.86804C13.0178 9.72637 12.7345 9.72637 12.5012 9.86804C12.2753 10.0097 12.1512 10.2589 12.1845 10.5264V13.2597C12.2178 13.618 12.517 13.8847 12.8762 13.8847ZM5.85039 13.2597C5.81706 13.618 5.51789 13.8847 5.15873 13.8847C4.80039 13.8847 4.50039 13.618 4.46789 13.2597V7.50135C4.44289 7.24218 4.56706 6.98468 4.79289 6.84301C5.01706 6.70135 5.30123 6.70135 5.52623 6.84301C5.75039 6.98468 5.87623 7.24218 5.85039 7.50135V13.2597Z" fill="#55BC7E"/>
</svg>
