<svg width="18" height="18" viewBox="0 0 18 18" fill="none" xmlns="http://www.w3.org/2000/svg">
<path fill-rule="evenodd" clip-rule="evenodd" d="M11.1215 8.99996L16.8087 14.6872C17.0408 14.9192 17.1763 15.1401 17.246 15.37C17.3157 15.5999 17.3157 15.835 17.246 16.065C17.1763 16.2949 17.0408 16.5158 16.8087 16.7478L16.748 16.8085C16.516 17.0405 16.2951 17.1761 16.0652 17.2458C15.8353 17.3154 15.6002 17.3154 15.3702 17.2458C15.1403 17.1761 14.9194 17.0405 14.6874 16.8085L9.00021 11.1213L3.31299 16.8085C3.08097 17.0405 2.86009 17.1761 2.63018 17.2458C2.40026 17.3154 2.16513 17.3154 1.93521 17.2458C1.70529 17.1761 1.48442 17.0405 1.2524 16.8085L1.19167 16.7478C0.959648 16.5158 0.824101 16.2949 0.754414 16.065C0.684727 15.835 0.684727 15.5999 0.754414 15.37C0.824101 15.1401 0.959648 14.9192 1.19167 14.6872L6.87889 8.99996L1.19167 3.31274C0.959648 3.08072 0.824101 2.85985 0.754414 2.62993C0.684727 2.40001 0.684727 2.16488 0.754414 1.93497C0.824101 1.70505 0.959648 1.48417 1.19167 1.25216L1.2524 1.19142C1.48442 0.959404 1.70529 0.823856 1.93521 0.75417C2.16513 0.684483 2.40026 0.684483 2.63018 0.75417C2.86009 0.823856 3.08097 0.959404 3.31299 1.19142L9.00021 6.87864L14.6874 1.19142C14.9194 0.959404 15.1403 0.823856 15.3702 0.75417C15.6002 0.684483 15.8353 0.684483 16.0652 0.75417C16.2951 0.823856 16.516 0.959404 16.748 1.19142L16.8087 1.25216C17.0408 1.48417 17.1763 1.70505 17.246 1.93497C17.3157 2.16488 17.3157 2.40001 17.246 2.62993C17.1763 2.85985 17.0408 3.08072 16.8087 3.31274L11.1215 8.99996Z" fill="#333333"/>
</svg>
