<svg width="16" height="18" viewBox="0 0 16 18" fill="none" xmlns="http://www.w3.org/2000/svg">
<path fill-rule="evenodd" clip-rule="evenodd" d="M14.9059 3.36947C15.2301 3.36947 15.5 3.63863 15.5 3.98113V4.29779C15.5 4.63195 15.2301 4.90945 14.9059 4.90945H1.09488C0.769883 4.90945 0.5 4.63195 0.5 4.29779V3.98113C0.5 3.63863 0.769883 3.36947 1.09488 3.36947H3.52464C4.01821 3.36947 4.44775 3.01864 4.55879 2.52364L4.68603 1.95531C4.88378 1.18115 5.53458 0.666992 6.27939 0.666992H9.72061C10.4573 0.666992 11.1154 1.18115 11.3059 1.91448L11.442 2.52281C11.5522 3.01864 11.9818 3.36947 12.4762 3.36947H14.9059ZM13.6713 14.9454C13.925 12.5812 14.3692 6.96461 14.3692 6.90794C14.3854 6.73628 14.3294 6.57378 14.2184 6.44295C14.0993 6.32045 13.9485 6.24795 13.7824 6.24795H2.2236C2.05664 6.24795 1.89779 6.32045 1.78757 6.44295C1.67572 6.57378 1.62061 6.73628 1.62872 6.90794C1.63021 6.91835 1.64614 7.1162 1.67279 7.44696C1.79115 8.91633 2.1208 13.0088 2.33382 14.9454C2.48456 16.372 3.42064 17.2687 4.77655 17.3012C5.82285 17.3253 6.90076 17.3337 8.00299 17.3337C9.04119 17.3337 10.0956 17.3253 11.1743 17.3012C12.5772 17.277 13.5125 16.3962 13.6713 14.9454Z" fill="#6A6A7A"/>
</svg>
