<svg width="16" height="18" viewBox="0 0 16 18" fill="none" xmlns="http://www.w3.org/2000/svg">
<path fill-rule="evenodd" clip-rule="evenodd" d="M14.9059 3.36849C15.2301 3.36849 15.5 3.63765 15.5 3.98015V4.29681C15.5 4.63098 15.2301 4.90847 14.9059 4.90847H1.09488C0.769883 4.90847 0.5 4.63098 0.5 4.29681V3.98015C0.5 3.63765 0.769883 3.36849 1.09488 3.36849H3.52464C4.01821 3.36849 4.44775 3.01766 4.55879 2.52266L4.68603 1.95434C4.88378 1.18018 5.53458 0.666016 6.27939 0.666016H9.72061C10.4573 0.666016 11.1154 1.18018 11.3059 1.9135L11.442 2.52183C11.5522 3.01766 11.9818 3.36849 12.4762 3.36849H14.9059ZM13.6713 14.9444C13.925 12.5802 14.3692 6.96363 14.3692 6.90697C14.3854 6.7353 14.3294 6.5728 14.2184 6.44197C14.0993 6.31947 13.9485 6.24697 13.7824 6.24697H2.2236C2.05664 6.24697 1.89779 6.31947 1.78757 6.44197C1.67572 6.5728 1.62061 6.7353 1.62872 6.90697C1.63021 6.91738 1.64614 7.11522 1.67279 7.44598C1.79115 8.91535 2.1208 13.0078 2.33382 14.9444C2.48456 16.371 3.42064 17.2677 4.77655 17.3002C5.82285 17.3244 6.90076 17.3327 8.00299 17.3327C9.04119 17.3327 10.0956 17.3244 11.1743 17.3002C12.5772 17.276 13.5125 16.3952 13.6713 14.9444Z" fill="#9090A3"/>
</svg>
