<svg width="72" height="64" viewBox="0 0 72 64" fill="none" xmlns="http://www.w3.org/2000/svg">
<path d="M15.9305 56.4339C15.4435 56.1562 14.7478 56.2951 14.4696 56.8504C14.2609 57.1975 13.8435 57.4751 13.4261 57.4751C12.7305 57.4751 12.2435 56.9198 12.2435 56.2951C12.2435 55.6009 12.8 55.115 13.4261 55.115C13.9826 55.115 14.4696 54.6291 14.4696 54.0738C14.4696 53.5185 13.9826 53.0326 13.4261 53.0326C11.6174 53.0326 10.087 54.4903 10.087 56.3645C10.087 58.1692 11.5478 59.6964 13.4261 59.6964C14.6087 59.6964 15.7218 59.0716 16.2783 58.0304C16.6261 57.3363 16.4174 56.7116 15.9305 56.4339Z" fill="#C62C38"/>
<path d="M68.2435 45.744C63.6522 44.1475 57.3913 43.8699 52.9391 43.8699H52.1044L41.113 36.5813C39.4435 35.4707 37.4957 34.9154 35.5478 34.9154H23.1652C21.0783 34.9154 19.0609 35.3319 17.113 36.2343L8.34783 40.1909C7.7913 40.4686 7.23478 40.6074 6.6087 40.6768L2.78261 41.3015C1.18261 41.5792 0 42.9675 0 44.564V50.5336C0 52.3384 1.04348 53.9349 2.71304 54.6291L5.63478 55.8785C5.63478 55.9479 5.63478 56.0868 5.63478 56.1562C5.63478 60.4599 9.11304 63.9306 13.4261 63.9306C16.5565 63.9306 19.2696 62.0564 20.5217 59.4187H53.7043C54.9565 62.0564 57.6696 63.9306 60.8 63.9306C64.5565 63.9306 67.687 61.2928 68.4522 57.7527L69.4261 57.5445C70.9565 57.1974 72 55.8785 72 54.3514V51.0195C72 48.6594 70.4696 46.577 68.2435 45.744ZM13.4261 61.9176C10.2957 61.9176 7.72174 59.3492 7.72174 56.2256C7.72174 53.102 10.2957 50.5336 13.4261 50.5336C16.5565 50.5336 19.1304 53.102 19.1304 56.2256C19.1304 59.3492 16.6261 61.9176 13.4261 61.9176ZM60.8 61.9176C57.6696 61.9176 55.0956 59.3492 55.0956 56.2256C55.0956 53.102 57.6696 50.5336 60.8 50.5336C63.9304 50.5336 66.5043 53.102 66.5043 56.2256C66.5043 59.3492 64 61.9176 60.8 61.9176ZM69.913 54.3514C69.913 54.9067 69.4957 55.3926 68.9391 55.5315L68.5913 55.6009C68.313 51.5748 64.9044 48.3818 60.8 48.3818C57.6696 48.3818 54.9565 50.256 53.7043 52.8937H33.1826L30.8174 49.7007C30.1913 48.8677 29.2174 48.3818 28.1739 48.3818H23.6522C23.2348 48.3818 22.887 48.59 22.6783 48.9371C22.4696 49.2842 22.5391 49.7007 22.7478 50.0477L25.4609 53.6573C26.087 54.4902 27.0609 54.9761 28.1043 54.9761H53.0783C53.0087 55.3926 53.0087 55.7397 53.0087 56.1562C53.0087 56.5727 53.0087 56.9892 53.0783 57.3362H21.2174C21.287 56.9197 21.287 56.5727 21.287 56.1562C21.287 51.8525 17.8087 48.3818 13.4957 48.3818C10.0174 48.3818 7.09565 50.6725 6.05217 53.7961L3.54783 52.7549C2.71304 52.4078 2.15652 51.5748 2.15652 50.603V44.6334C2.15652 44.0781 2.57391 43.5228 3.13043 43.4534L6.95652 42.8286C7.72174 42.6898 8.48696 42.4816 9.18261 42.1345L17.9478 38.1779C19.5478 37.4143 21.287 37.0673 23.0957 37.0673H23.7217L21.2174 39.5662C20.1043 40.6768 19.9652 42.4122 20.8 43.731L21.3565 44.564C21.9826 45.4664 23.0261 46.0217 24.1391 46.0217H25.8087C26.3652 46.0217 26.8522 45.5358 26.8522 44.9805C26.8522 44.4252 26.3652 43.9393 25.8087 43.9393H24.1391C23.7217 43.9393 23.3739 43.731 23.1652 43.384L22.6087 42.551C22.2609 42.0651 22.3304 41.4404 22.7478 41.0239L25.7391 38.039C26.3652 37.4143 27.2696 36.9978 28.1739 36.9978H35.4783C37.0783 36.9978 38.6087 37.4837 39.9304 38.3167L48.2783 43.8699H30.4C29.8435 43.8699 29.3565 44.3558 29.3565 44.9111C29.3565 45.4664 29.8435 45.9523 30.4 45.9523H51.8261H52.9391C60.7304 45.9523 65.1826 46.9241 67.5478 47.7571C68.9391 48.243 69.913 49.5618 69.913 51.0195V54.3514ZM30.5391 52.8937H28.1043C27.7565 52.8937 27.3391 52.6855 27.1304 52.4078L25.7391 50.4642H28.1739C28.5217 50.4642 28.9391 50.6725 29.1478 50.9501L30.5391 52.8937Z" fill="#C62C38"/>
<path d="M63.3044 56.4339C62.8174 56.1562 62.1217 56.2951 61.8435 56.8504C61.6348 57.1975 61.2174 57.4751 60.8 57.4751C60.1044 57.4751 59.6174 56.9198 59.6174 56.2951C59.6174 55.6009 60.1739 55.115 60.8 55.115C61.3565 55.115 61.8435 54.6291 61.8435 54.0738C61.8435 53.5185 61.3565 53.0326 60.8 53.0326C58.9913 53.0326 57.4609 54.4903 57.4609 56.3645C57.4609 58.1692 58.9217 59.6964 60.8 59.6964C61.9826 59.6964 63.0957 59.0716 63.6522 58.0304C64 57.3363 63.7913 56.7116 63.3044 56.4339Z" fill="#C62C38"/>
<path d="M34.6435 17.3536C34.4348 17.0759 34.0869 16.8677 33.7391 16.8677H28.6609L31.3043 11.6616C31.5826 11.1757 31.3739 10.4816 30.8174 10.2733C30.3304 9.99567 29.6348 10.2039 29.4261 10.7592L26.0174 17.4924C25.8782 17.8395 25.8782 18.1866 26.0869 18.5336C26.2956 18.8113 26.6435 19.0195 26.9913 19.0195H32.0695L29.4261 24.2256C29.1478 24.7115 29.3565 25.4056 29.913 25.6139C30.0522 25.6833 30.1913 25.7527 30.4 25.7527C30.8174 25.7527 31.1652 25.5445 31.3739 25.1974L34.7826 18.4642C34.8522 18.0477 34.8522 17.7007 34.6435 17.3536Z" fill="#C62C38"/>
<path d="M37.1478 4.51193H34.7826V3.33189C34.7826 1.4577 33.3217 0 31.513 0H29.2174C27.4087 0 25.8783 1.4577 25.8783 3.33189V4.51193H23.5826C21.7739 4.51193 20.2435 5.96963 20.2435 7.84382V28.1128C20.2435 29.9176 21.7043 31.4447 23.5826 31.4447H37.1478C38.9565 31.4447 40.4869 29.987 40.4869 28.1128V7.7744C40.4174 5.96963 38.9565 4.51193 37.1478 4.51193ZM28.0348 3.33189C28.0348 2.63774 28.5913 2.15184 29.2174 2.15184H31.4435C32.1391 2.15184 32.6261 2.70716 32.6261 3.33189V4.51193H27.9652V3.33189H28.0348ZM38.3304 28.0434C38.3304 28.7375 37.7739 29.2234 37.1478 29.2234H23.5826C22.8869 29.2234 22.4 28.6681 22.4 28.0434V7.7744C22.4 7.08026 22.9565 6.59436 23.5826 6.59436H37.1478C37.8435 6.59436 38.3304 7.14968 38.3304 7.7744V28.0434Z" fill="#C62C38"/>
</svg>
