<svg width="21" height="19" viewBox="0 0 21 19" fill="none" xmlns="http://www.w3.org/2000/svg">
<path fill-rule="evenodd" clip-rule="evenodd" d="M15.6454 0.125C17.0423 0.125 18.3861 0.677083 19.3746 1.66771C20.3642 2.65625 20.9173 3.98958 20.9173 5.38542V13.6146C20.9173 16.5208 18.5527 18.875 15.6454 18.875H5.35482C2.44753 18.875 0.0839844 16.5208 0.0839844 13.6146V5.38542C0.0839844 2.47917 2.43711 0.125 5.35482 0.125H15.6454ZM17.3027 6.93749L17.3861 6.85416C17.635 6.55208 17.635 6.11458 17.3746 5.81249C17.2298 5.65728 17.0309 5.56249 16.8236 5.54166C16.6048 5.5302 16.3965 5.60416 16.2392 5.74999L11.5423 9.49999C10.9381 10.001 10.0725 10.001 9.45898 9.49999L4.77148 5.74999C4.44752 5.51041 3.99961 5.54166 3.72981 5.82291C3.44856 6.10416 3.41731 6.55208 3.65586 6.86458L3.79231 6.99999L8.5319 10.6979C9.11523 11.1562 9.82252 11.4062 10.5631 11.4062C11.3017 11.4062 12.0215 11.1562 12.6038 10.6979L17.3027 6.93749Z" fill="white"/>
</svg>
