<svg width="64" height="64" viewBox="0 0 64 64" fill="none" xmlns="http://www.w3.org/2000/svg">
<path d="M57.5947 49.0353V32.9239C57.5947 32.7328 57.5312 32.5418 57.4044 32.3507L52.2032 24.0721V20.1239C52.2032 19.5507 51.6957 19.0413 51.1249 19.0413H46.9386C46.3677 19.0413 45.8603 19.5507 45.8603 20.1239V20.506L6.85135 0.892039C5.20219 -0.381593 2.79188 -0.25423 1.26958 1.21045C-0.379575 2.86617 -0.379575 5.60448 1.26958 7.2602L3.23589 9.23433V9.29801V27.6383C0.952437 28.2114 -0.443004 30.5677 0.191288 32.7965C0.508433 34.3886 1.71359 35.5985 3.17246 35.9806V39.3557C3.17246 39.9289 3.67989 40.4383 4.25075 40.4383C4.82161 40.4383 5.32905 40.9478 5.32905 41.5209C5.32905 42.094 4.82161 42.6035 4.25075 42.6035C3.67989 42.6035 3.17246 42.094 3.17246 41.4572C3.17246 40.8841 2.66502 40.3746 2.09416 40.3746C1.5233 40.3746 1.01587 40.8841 1.01587 41.4572C1.01587 43.2403 2.41131 44.705 4.18732 44.705C5.96334 44.705 7.42221 43.304 7.42221 41.5209C7.42221 40.1836 6.59763 38.91 5.26562 38.4642V35.9806C7.54907 35.4075 8.94451 33.0512 8.31022 30.8224C7.92964 29.294 6.72449 28.1478 5.26562 27.7657V11.3995L20.6155 26.8104L17.1903 32.3507C17.0634 32.5418 17 32.7328 17 32.9239V49.0353C12.9405 49.6721 10.1497 53.493 10.7205 57.5687C11.2914 61.1985 14.3994 63.9368 18.0783 63.9368H56.5164C60.6393 63.9368 63.9376 60.498 63.9376 56.3587C63.9376 52.7289 61.2735 49.6085 57.5947 49.0353ZM6.40734 31.8413C6.40734 33.0512 5.45591 34.0065 4.25075 34.0065C3.0456 34.0065 2.15759 32.9876 2.15759 31.8413C2.15759 30.695 3.10903 29.6761 4.31418 29.6761C5.51933 29.6761 6.40734 30.6313 6.40734 31.8413ZM19.22 44.705H55.5015V48.9716H19.22V44.705ZM55.5015 42.5398H38.4391V25.4095H50.6809L55.5649 33.2423V42.5398H55.5015ZM48.0169 21.1428H50.1734V23.308H48.0169V21.1428ZM45.8603 23.2443H29.2418L11.7988 5.73184L45.8603 22.8622V23.2443ZM2.79188 5.73184C1.90387 4.96766 1.84044 3.56667 2.66502 2.73881C3.4896 1.84726 4.82161 1.78358 5.70962 2.61144C5.70962 2.61144 5.70962 2.67512 5.77305 2.73881L26.2607 23.308H23.4698C23.0892 23.308 22.7721 23.499 22.5818 23.8174L21.8841 24.9637L2.79188 5.73184ZM19.22 33.2423L24.1041 25.4095H36.3459V42.5398H19.22V33.2423ZM56.5798 61.8353H18.1417C15.224 61.8353 12.8137 59.4154 12.8137 56.4861C12.8137 53.5567 15.224 51.1368 18.1417 51.1368H56.5798C59.4975 51.1368 61.9078 53.5567 61.9078 56.4861C61.9078 59.4154 59.4975 61.8353 56.5798 61.8353Z" fill="#C62C38"/>
</svg>
