<svg width="16" height="16" viewBox="0 0 16 16" fill="none" xmlns="http://www.w3.org/2000/svg">
<path d="M5.00016 9.66666C3.94683 9.66666 3.06483 10.3733 2.7755 11.3333H1.3335V12.6667H2.7755C3.06483 13.6267 3.94683 14.3333 5.00016 14.3333C6.0535 14.3333 6.9355 13.6267 7.22483 12.6667H14.6668V11.3333H7.22483C6.9355 10.3733 6.0535 9.66666 5.00016 9.66666ZM5.00016 13C4.44883 13 4.00016 12.5513 4.00016 12C4.00016 11.4487 4.44883 11 5.00016 11C5.5515 11 6.00016 11.4487 6.00016 12C6.00016 12.5513 5.5515 13 5.00016 13ZM11.0002 5.66666C9.94683 5.66666 9.06483 6.37332 8.7755 7.33332H1.3335V8.66666H8.7755C9.06483 9.62666 9.94683 10.3333 11.0002 10.3333C12.0535 10.3333 12.9355 9.62666 13.2248 8.66666H14.6668V7.33332H13.2248C12.9355 6.37332 12.0535 5.66666 11.0002 5.66666ZM11.0002 8.99999C10.4488 8.99999 10.0002 8.55132 10.0002 7.99999C10.0002 7.44866 10.4488 6.99999 11.0002 6.99999C11.5515 6.99999 12.0002 7.44866 12.0002 7.99999C12.0002 8.55132 11.5515 8.99999 11.0002 8.99999Z" fill="#727D88"/>
<path d="M8.55816 3.33332C8.26883 2.37332 7.38683 1.66666 6.3335 1.66666C5.28016 1.66666 4.39816 2.37332 4.10883 3.33332H1.3335V4.66666H4.10883C4.39816 5.62666 5.28016 6.33332 6.3335 6.33332C7.38683 6.33332 8.26883 5.62666 8.55816 4.66666H14.7502V3.33332H8.55816ZM6.3335 4.99999C5.78216 4.99999 5.3335 4.55132 5.3335 3.99999C5.3335 3.44866 5.78216 2.99999 6.3335 2.99999C6.88483 2.99999 7.3335 3.44866 7.3335 3.99999C7.3335 4.55132 6.88483 4.99999 6.3335 4.99999Z" fill="#727D88"/>
</svg>
