<svg width="18" height="18" viewBox="0 0 18 18" fill="none" xmlns="http://www.w3.org/2000/svg">
<path fill-rule="evenodd" clip-rule="evenodd" d="M10.2096 3.06616H12.768C15.843 3.06616 17.343 4.70783 17.3346 8.07449V12.1328C17.3346 15.3495 15.3513 17.3328 12.1263 17.3328H5.86797C2.65964 17.3328 0.667969 15.3495 0.667969 12.1245V5.86616C0.667969 2.41616 2.2013 0.666158 5.2263 0.666158H6.54297C7.3188 0.657825 8.04297 1.01616 8.51797 1.62449L9.2513 2.59949C9.48464 2.89116 9.83464 3.06616 10.2096 3.06616ZM5.14085 11.7409H12.8575C13.1992 11.7409 13.4742 11.4575 13.4742 11.1159C13.4742 10.7659 13.1992 10.4909 12.8575 10.4909H5.14085C4.79085 10.4909 4.51585 10.7659 4.51585 11.1159C4.51585 11.4575 4.79085 11.7409 5.14085 11.7409Z" fill="#55BC7E"/>
</svg>
