<svg width="16" height="18" viewBox="0 0 16 18" fill="none" xmlns="http://www.w3.org/2000/svg">
<path fill-rule="evenodd" clip-rule="evenodd" d="M11.6757 1.30751L11.6766 1.93219C13.9721 2.1121 15.4885 3.67632 15.4909 6.07512L15.5 13.0966C15.5033 15.712 13.8602 17.3212 11.2265 17.3253L4.79324 17.3336C2.17599 17.337 0.512347 15.6895 0.509056 13.0666L0.500006 6.12759C0.496714 3.71297 1.95961 2.15292 4.25514 1.94219L4.25432 1.3175C4.2535 0.951018 4.52501 0.675323 4.88703 0.675323C5.24905 0.67449 5.52057 0.949353 5.52139 1.31584L5.52221 1.89888L10.4095 1.89221L10.4087 1.30917C10.4078 0.942689 10.6794 0.667827 11.0414 0.666994C11.3952 0.666161 11.6749 0.941023 11.6757 1.30751ZM1.76806 6.38492L14.2248 6.36826V6.07674C14.1895 4.28597 13.291 3.34644 11.6784 3.20651L11.6792 3.84786C11.6792 4.20601 11.4003 4.49003 11.0465 4.49003C10.6845 4.49087 10.4121 4.20768 10.4121 3.84952L10.4113 3.17486L5.52402 3.18152L5.52484 3.85535C5.52484 4.21434 5.25415 4.49753 4.89213 4.49753C4.53011 4.49836 4.25777 4.216 4.25777 3.85702L4.25695 3.21567C2.65254 3.37643 1.76477 4.31929 1.76724 6.12588L1.76806 6.38492ZM10.7002 10.1704V10.1796C10.7084 10.5628 11.0211 10.8534 11.4004 10.8451C11.7706 10.8359 12.066 10.5186 12.0578 10.1355C12.0405 9.76898 11.7435 9.46997 11.374 9.4708C10.9956 9.47913 10.6994 9.78731 10.7002 10.1704ZM11.3798 13.9103C11.0013 13.9019 10.696 13.5863 10.6952 13.2031C10.687 12.82 10.9906 12.5027 11.3691 12.4935H11.3773C11.764 12.4935 12.0775 12.8092 12.0775 13.2006C12.0783 13.5921 11.7656 13.9094 11.3798 13.9103ZM7.31014 10.1839C7.32659 10.5671 7.64007 10.8661 8.01855 10.8494C8.3888 10.8319 8.68417 10.5154 8.66772 10.1323C8.65867 9.75746 8.35424 9.46594 7.98399 9.46678C7.60552 9.48344 7.30932 9.80078 7.31014 10.1839ZM8.02185 13.8728C7.64337 13.8894 7.33072 13.5904 7.31344 13.2073C7.31344 12.8241 7.60881 12.5076 7.98729 12.4901C8.35754 12.4893 8.66279 12.7808 8.67101 13.1548C8.68829 13.5388 8.39209 13.8553 8.02185 13.8728ZM3.92041 10.213C3.93686 10.5962 4.25034 10.896 4.62882 10.8785C4.99907 10.8619 5.29444 10.5445 5.27716 10.1614C5.26894 9.78659 4.96451 9.49507 4.59344 9.4959C4.21496 9.51256 3.91959 9.8299 3.92041 10.213ZM4.63212 13.877C4.25364 13.8945 3.94099 13.5946 3.92371 13.2115C3.92288 12.8283 4.21908 12.511 4.59756 12.4943C4.96781 12.4935 5.27306 12.785 5.28128 13.1598C5.29856 13.543 5.00319 13.8603 4.63212 13.877Z" fill="#55BC7E"/>
</svg>
