<svg width="19" height="21" viewBox="0 0 19 21" fill="none" xmlns="http://www.w3.org/2000/svg">
<path fill-rule="evenodd" clip-rule="evenodd" d="M0.646484 8.74783C0.646484 3.9563 4.65053 0.0834961 9.49382 0.0834961C14.3508 0.0834961 18.3548 3.9563 18.3548 8.74783C18.3548 11.1623 17.4767 13.4039 16.0314 15.3039C14.4369 17.3997 12.4716 19.2256 10.2596 20.6589C9.75327 20.9902 9.29635 21.0152 8.7407 20.6589C6.516 19.2256 4.55074 17.3997 2.96992 15.3039C1.52355 13.4039 0.646484 11.1623 0.646484 8.74783ZM6.57794 9.01761C6.57794 10.6228 7.88776 11.8852 9.49379 11.8852C11.1009 11.8852 12.4233 10.6228 12.4233 9.01761C12.4233 7.42495 11.1009 6.10103 9.49379 6.10103C7.88776 6.10103 6.57794 7.42495 6.57794 9.01761Z" fill="white"/>
</svg>
