<svg width="18" height="18" viewBox="0 0 18 18" fill="none" xmlns="http://www.w3.org/2000/svg">
<path fill-rule="evenodd" clip-rule="evenodd" d="M7.24547 8.35768C6.88089 8.35768 6.59261 8.64101 6.59261 8.99935C6.59261 9.34935 6.88089 9.64101 7.24547 9.64101L12.3318 9.64102V8.35769H15.7818L14.4485 7.03269C14.1985 6.78269 14.1985 6.37435 14.4485 6.12435C14.6985 5.86602 15.1068 5.86602 15.3568 6.11602L17.7902 8.54102C17.9152 8.66602 17.9818 8.82435 17.9818 8.99935C17.9818 9.16602 17.9152 9.33269 17.7902 9.44935L15.3568 11.8744C15.2318 11.9994 15.0652 12.066 14.9068 12.066C14.7402 12.066 14.5735 11.9994 14.4485 11.8744C14.1985 11.6244 14.1985 11.216 14.4485 10.966L15.7818 9.64102L12.3327 9.64101V13.6243C12.3327 15.666 10.6454 17.3327 8.55967 17.3327H4.43055C2.35327 17.3327 0.666016 15.6743 0.666016 13.6327V4.37435C0.666016 2.32435 2.36175 0.666016 4.43903 0.666016H8.57663C10.6454 0.666016 12.3327 2.32435 12.3327 4.36601V8.35768H7.24547Z" fill="white"/>
</svg>
