<svg width="4" height="14" viewBox="0 0 4 14" fill="none" xmlns="http://www.w3.org/2000/svg">
<path d="M2.00065 10.334C2.44268 10.334 2.8666 10.5096 3.17916 10.8221C3.49172 11.1347 3.66732 11.5586 3.66732 12.0007C3.66732 12.4427 3.49172 12.8666 3.17916 13.1792C2.8666 13.4917 2.44268 13.6673 2.00065 13.6673C1.55862 13.6673 1.1347 13.4917 0.82214 13.1792C0.509579 12.8666 0.333984 12.4427 0.333984 12.0007C0.333984 11.5586 0.509579 11.1347 0.82214 10.8221C1.1347 10.5096 1.55862 10.334 2.00065 10.334ZM2.00065 5.33398C2.44268 5.33398 2.8666 5.50958 3.17916 5.82214C3.49172 6.1347 3.66732 6.55862 3.66732 7.00065C3.66732 7.44268 3.49172 7.8666 3.17916 8.17916C2.8666 8.49172 2.44268 8.66732 2.00065 8.66732C1.55862 8.66732 1.1347 8.49172 0.82214 8.17916C0.509579 7.8666 0.333984 7.44268 0.333984 7.00065C0.333984 6.55862 0.509579 6.1347 0.82214 5.82214C1.1347 5.50958 1.55862 5.33398 2.00065 5.33398ZM2.00065 0.333984C2.44268 0.333984 2.8666 0.509579 3.17916 0.82214C3.49172 1.1347 3.66732 1.55862 3.66732 2.00065C3.66732 2.44268 3.49172 2.8666 3.17916 3.17916C2.8666 3.49172 2.44268 3.66732 2.00065 3.66732C1.55862 3.66732 1.1347 3.49172 0.82214 3.17916C0.509579 2.8666 0.333984 2.44268 0.333984 2.00065C0.333984 1.55862 0.509579 1.1347 0.82214 0.82214C1.1347 0.509579 1.55862 0.333984 2.00065 0.333984Z" fill="#55BC7E"/>
</svg>
