<svg width="70" height="45" viewBox="0 0 70 45" fill="none" xmlns="http://www.w3.org/2000/svg">
<path d="M58.0342 21.2115C56.2393 21.2115 54.5774 21.6079 53.0484 22.3348L52.849 22.0705L51.3865 19.7577C54.7768 18.1718 58.7654 17.3128 63.3523 17.3128C64.0836 17.3128 64.7483 16.7181 64.7483 15.9251V13.4802C64.7483 7.40088 59.962 2.57709 54.3115 0.859031C52.5166 0.264317 50.5223 0 48.5945 0C47.7968 0 47.1985 0.594714 47.1985 1.38767V6.47577C43.9411 5.35242 40.5508 4.55947 37.094 4.62555C33.1054 4.69163 29.3162 6.74009 26.9231 9.97797L23.6657 14.4053L18.8129 10.7709C16.8851 9.31718 14.5584 8.52423 12.1652 8.52423H8.44254C4.18803 8.59031 0.731244 12.0264 0.731244 16.2555C0.731244 16.9824 1.32953 17.6432 2.12726 17.6432H9.24027L11.8993 20.9471C5.31814 21.0132 0 26.3656 0 32.9075C0 39.5815 5.45109 44.9339 12.0988 44.9339C17.8158 44.9339 22.6021 40.9692 23.8651 35.6828L26.7901 39.2511C27.056 39.5815 27.4549 39.7797 27.8538 39.7797H38.2906C39.0218 39.7797 39.6201 39.185 39.6866 38.4581C39.6866 38.3921 39.8196 33.1057 42.811 27.8855C44.4065 25.1101 46.5337 22.7974 49.1263 21.0793L50.5888 23.4581L50.7882 23.7225C47.9962 25.9031 46.1349 29.2731 46.1349 33.1057C46.1349 39.6476 51.5195 45 58.1007 45C64.6819 45 70.0665 39.6476 70.0665 33.1057C70.0665 26.5639 64.6154 21.2115 58.0342 21.2115ZM29.1833 11.5639C31.0446 8.98678 34.0361 7.40088 37.227 7.3348C40.6173 7.26872 44.0741 8.12775 47.265 9.31718V12.0925L32.1747 20.6828L25.9259 16.0573L29.1833 11.5639ZM12.0988 42.2247C6.91358 42.2247 2.72555 38.0617 2.72555 32.9075C2.72555 27.7533 6.91358 23.5903 12.0988 23.5903C12.83 23.5903 13.5613 23.6564 14.2925 23.8546L16.0209 25.9692L14.5584 27.7533C13.8272 27.4229 13.0294 27.2247 12.1652 27.2247C9.10731 27.2247 6.64767 29.6696 6.64767 32.7093C6.64767 35.7489 9.10731 38.1938 12.1652 38.1938C15.2232 38.1938 17.6828 35.7489 17.6828 32.7093C17.6828 31.5198 17.284 30.4626 16.6857 29.5374L17.8158 28.2159L21.472 32.7093C21.472 32.7753 21.472 32.8414 21.472 32.9736C21.472 38.0617 17.284 42.2247 12.0988 42.2247ZM12.2317 32.511C12.83 32.9736 13.6942 32.9075 14.1595 32.3789L14.7578 31.7181C14.8908 31.9824 14.9573 32.3128 14.9573 32.6432C14.9573 34.163 13.6942 35.4185 12.1652 35.4185C10.6363 35.4185 9.37322 34.163 9.37322 32.6432C9.37322 31.1233 10.6363 29.8678 12.1652 29.8678C12.3647 29.8678 12.4976 29.8678 12.6971 29.9339L12.0988 30.5947C11.6334 31.1894 11.6999 32.0485 12.2317 32.511ZM40.3514 26.4978C37.9582 30.7269 37.1605 34.9559 36.9611 37.0705H28.5185L10.9022 15.3965C10.6363 15.0661 10.2374 14.8678 9.83856 14.8678H3.65622C4.25451 12.8194 6.18234 11.2335 8.44254 11.2335H12.1652C13.9601 11.2335 15.755 11.8282 17.151 12.9515L31.1776 23.326C31.5764 23.6564 32.2412 23.6564 32.7066 23.3921L49.2593 13.9427C49.6581 13.6784 49.924 13.2819 49.924 12.7533V8.25991V2.77533C55.1757 3.17181 58.3001 5.61674 60.0285 7.73128C60.3609 8.12775 60.6933 8.59031 60.8927 9.05286H58.1007C57.3694 9.05286 56.7047 9.64758 56.7047 10.4405C56.7047 11.2335 57.3029 11.8282 58.1007 11.8282H61.8234C61.9563 12.3568 61.9563 12.9515 61.9563 13.4802V14.6035C53.1814 14.9339 44.8718 18.6344 40.3514 26.4978ZM58.0342 42.3568C52.9155 42.3568 48.7274 38.1938 48.7274 33.1057C48.7274 30.1982 50.057 27.6872 52.1178 25.9692L53.9791 28.9427C53.0484 29.9339 52.4501 31.2555 52.4501 32.7093C52.4501 35.7489 54.9098 38.1938 57.9677 38.1938C61.0256 38.1938 63.4853 35.7489 63.4853 32.7093C63.4853 29.6696 61.0256 27.2247 57.9677 27.2247C57.3694 27.2247 56.8376 27.2907 56.3058 27.489L54.5109 24.5154C55.5745 24.0529 56.8376 23.7885 58.0342 23.7885C63.1529 23.7885 67.3409 27.9515 67.3409 33.0396C67.3409 38.1278 63.1529 42.3568 58.0342 42.3568ZM58.433 30.7929L57.9012 29.9339C57.9677 29.9339 57.9677 29.9339 58.0342 29.9339C59.5632 29.9339 60.8262 31.1894 60.8262 32.7093C60.8262 34.2291 59.5632 35.4846 58.0342 35.4846C56.5052 35.4846 55.2422 34.2291 55.2422 32.7093C55.2422 32.2467 55.3751 31.7841 55.5745 31.3877L56.1064 32.2467C56.5052 32.8414 57.3694 33.0396 57.9677 32.6432C58.6325 32.2467 58.8319 31.3877 58.433 30.7929Z" fill="#C62C38"/>
</svg>
