<svg width="16" height="18" viewBox="0 0 16 18" fill="none" xmlns="http://www.w3.org/2000/svg">
<path fill-rule="evenodd" clip-rule="evenodd" d="M5.43855 12.657H9.927C10.2653 12.657 10.5458 12.3736 10.5458 12.032C10.5458 11.6903 10.2653 11.4153 9.927 11.4153H5.43855C5.10027 11.4153 4.81974 11.6903 4.81974 12.032C4.81974 12.3736 5.10027 12.657 5.43855 12.657ZM8.22733 7.25045H5.43855C5.10027 7.25045 4.81974 7.53378 4.81974 7.87545C4.81974 8.21712 5.10027 8.49212 5.43855 8.49212H8.22733C8.56561 8.49212 8.84614 8.21712 8.84614 7.87545C8.84614 7.53378 8.56561 7.25045 8.22733 7.25045ZM14.1144 6.52069C14.3083 6.51845 14.5195 6.51601 14.7114 6.51601C14.9177 6.51601 15.0827 6.68268 15.0827 6.89101V13.591C15.0827 15.6577 13.4243 17.3327 11.3781 17.3327H4.81041C2.66519 17.3327 0.916016 15.5743 0.916016 13.4077V4.42435C0.916016 2.35768 2.58268 0.666016 4.63714 0.666016H9.04308C9.2576 0.666016 9.42262 0.841016 9.42262 1.04935V3.73268C9.42262 5.25768 10.6685 6.50768 12.1784 6.51601C12.5311 6.51601 12.842 6.51865 13.1141 6.52096C13.3258 6.52275 13.514 6.52435 13.68 6.52435C13.7975 6.52435 13.9497 6.52259 14.1144 6.52069ZM14.3424 5.30342C13.6642 5.30592 12.8647 5.30342 12.2896 5.29758C11.3771 5.29758 10.6254 4.53842 10.6254 3.61675V1.42008C10.6254 1.06092 11.0569 0.882584 11.3036 1.14175C11.7506 1.61113 12.3649 2.25651 12.9763 2.89876C13.585 3.53815 14.1907 4.17444 14.6254 4.63092C14.8663 4.88342 14.6898 5.30258 14.3424 5.30342Z" fill="#55BC7E"/>
</svg>
