<svg width="16" height="16" viewBox="0 0 16 16" fill="none" xmlns="http://www.w3.org/2000/svg">
<path fill-rule="evenodd" clip-rule="evenodd" d="M5.81366 14.6899L13.1356 5.2212C13.5336 4.71059 13.6751 4.12025 13.5424 3.51916C13.4275 2.97271 13.0914 2.45314 12.5874 2.05899L11.3582 1.08255C10.2882 0.231533 8.96176 0.321114 8.20127 1.29755L7.37887 2.36446C7.27276 2.49793 7.29928 2.69501 7.43193 2.80251C7.43193 2.80251 9.51003 4.46872 9.55424 4.50455C9.69573 4.63892 9.80185 4.81808 9.82838 5.03308C9.87259 5.45411 9.58077 5.84827 9.14747 5.90201C8.94408 5.92889 8.74953 5.86618 8.60805 5.74973L6.42383 4.01185C6.31771 3.93213 6.15854 3.94915 6.07011 4.05664L0.879282 10.7752C0.543249 11.1963 0.42829 11.7427 0.543249 12.2712L1.20647 15.1468C1.24184 15.2991 1.37449 15.4066 1.53366 15.4066L4.45185 15.3707C4.98242 15.3618 5.47763 15.1199 5.81366 14.6899ZM9.90145 13.7932H14.6599C15.1241 13.7932 15.5017 14.1757 15.5017 14.646C15.5017 15.1172 15.1241 15.4988 14.6599 15.4988H9.90145C9.43719 15.4988 9.0596 15.1172 9.0596 14.646C9.0596 14.1757 9.43719 13.7932 9.90145 13.7932Z" fill="#55BC7E"/>
</svg>
