<svg width="21" height="21" viewBox="0 0 21 21" fill="none" xmlns="http://www.w3.org/2000/svg">
<path d="M16.9244 12.979C16.2247 12.8285 15.6712 13.1533 15.1811 13.437C14.6792 13.7294 13.7248 14.5036 13.1777 14.3055C10.3768 13.1522 7.74246 10.7007 6.6021 7.88854C6.40111 7.32979 7.17174 6.36931 7.46193 5.86146C7.74353 5.36985 8.06167 4.8111 7.91657 4.10617C7.78545 3.4727 6.08942 1.3146 5.48968 0.724446C5.09416 0.334622 4.68896 0.120219 4.27302 0.0855684C2.70919 0.0184321 0.962647 2.10507 0.656331 2.60426C-0.111073 3.6687 -0.106774 5.08506 0.669228 6.80245C2.53937 11.4154 9.6126 18.377 14.2428 20.3174C15.0973 20.717 15.8787 20.9173 16.5805 20.9173C17.2673 20.9173 17.8788 20.7257 18.4044 20.3456C18.801 20.1171 20.9732 18.2838 20.9162 16.678C20.8818 16.2687 20.6679 15.8594 20.2832 15.463C19.6974 14.8577 17.5532 13.1111 16.9244 12.979Z" fill="white"/>
</svg>
