<svg width="16" height="18" viewBox="0 0 16 18" fill="none" xmlns="http://www.w3.org/2000/svg">
<path fill-rule="evenodd" clip-rule="evenodd" d="M4.50833 0.666992H11.4925C14.0667 0.666992 15.5 2.15033 15.5 4.69199V13.3003C15.5 15.8837 14.0667 17.3337 11.4925 17.3337H4.50833C1.975 17.3337 0.5 15.8837 0.5 13.3003V4.69199C0.5 2.15033 1.975 0.666992 4.50833 0.666992ZM4.7332 4.55026V4.54193H7.22404C7.5832 4.54193 7.87487 4.83359 7.87487 5.19109C7.87487 5.55859 7.5832 5.85026 7.22404 5.85026H4.7332C4.37404 5.85026 4.0832 5.55859 4.0832 5.20026C4.0832 4.84193 4.37404 4.55026 4.7332 4.55026ZM4.7332 9.61688H11.2665C11.6249 9.61688 11.9165 9.32521 11.9165 8.96688C11.9165 8.60854 11.6249 8.31604 11.2665 8.31604H4.7332C4.37404 8.31604 4.0832 8.60854 4.0832 8.96688C4.0832 9.32521 4.37404 9.61688 4.7332 9.61688ZM4.73318 13.4253H11.2665C11.599 13.3919 11.8498 13.1078 11.8498 12.7753C11.8498 12.4336 11.599 12.1503 11.2665 12.1169H4.73318C4.48318 12.0919 4.24151 12.2086 4.10818 12.4253C3.97484 12.6336 3.97484 12.9086 4.10818 13.1253C4.24151 13.3336 4.48318 13.4586 4.73318 13.4253Z" fill="#55BC7E"/>
</svg>
