<svg width="13" height="13" viewBox="0 0 13 13" fill="none" xmlns="http://www.w3.org/2000/svg">
<path d="M5.34861 11C6.53439 10.9998 7.686 10.6036 8.62007 9.87468L11.5568 12.8053L12.5015 11.8627L9.5647 8.93201C10.2956 7.99979 10.6928 6.8503 10.693 5.66668C10.693 2.72601 8.2954 0.333344 5.34861 0.333344C2.40182 0.333344 0.00416565 2.72601 0.00416565 5.66668C0.00416565 8.60734 2.40182 11 5.34861 11ZM5.34861 1.66668C7.5592 1.66668 9.35694 3.46068 9.35694 5.66668C9.35694 7.87268 7.5592 9.66668 5.34861 9.66668C3.13801 9.66668 1.34028 7.87268 1.34028 5.66668C1.34028 3.46068 3.13801 1.66668 5.34861 1.66668Z" fill="#727D88"/>
</svg>
