<?xml version="1.0" encoding="UTF-8"?>
<svg width="20px" height="20px" viewBox="0 0 20 20" version="1.1" xmlns="http://www.w3.org/2000/svg" xmlns:xlink="http://www.w3.org/1999/xlink">
    <title>star__full</title>
    <g id="Page-1" stroke="none" stroke-width="1" fill="none" fill-rule="evenodd">
        <g id="star__full" transform="translate(0.000000, -0.001953)" fill-rule="nonzero">
            <path d="M19.947,7.18096315 C19.8842,6.99583315 19.7685,6.83316315 19.6142,6.71302315 C19.46,6.59289315 19.2739,6.52056315 19.079,6.50496315 L13.378,6.05196315 L10.911,0.590963151 C10.8325,0.415083151 10.7047,0.265693151 10.5431,0.160823151 C10.3815,0.0559631511 10.193,0 10.0004,0 C9.80770998,0 9.61915998,0.0555431511 9.45744998,0.160233151 C9.29573998,0.264913151 9.16778998,0.414163151 9.08902998,0.589963151 L6.62202998,6.05196315 L0.921025983,6.50496315 C0.729481983,6.52014315 0.546363983,6.59017315 0.393580983,6.70670315 C0.240797983,6.82322315 0.124818983,6.98129315 0.0595193826,7.16199315 C-0.00578039743,7.34270315 -0.0176359174,7.53840315 0.0253711826,7.72567315 C0.0683783826,7.91294315 0.164426983,8.08385315 0.302025983,8.21796315 L4.51502998,12.3249532 L3.02502998,18.7769532 C2.97977998,18.9722532 2.99427998,19.1766532 3.06664998,19.3636532 C3.13900998,19.5505532 3.26588998,19.7114532 3.43082998,19.8254532 C3.59576998,19.9393532 3.79114998,20.0010532 3.99160998,20.0026812 C4.19207998,20.0041532 4.38836998,19.9453532 4.55502998,19.8339532 L10,16.2039532 L15.445,19.8339532 C15.6154,19.9470532 15.8162,20.0052532 16.0207,20.0007532 C16.2251,19.9963532 16.4232,19.9293532 16.5884,19.8088532 C16.7536,19.6884532 16.878,19.5202532 16.9448,19.3270532 C17.0116,19.1337532 17.0176,18.9247532 16.962,18.7279532 L15.133,12.3279532 L19.669,8.24596315 C19.966,7.97796315 20.075,7.55996315 19.947,7.18096315 Z" id="Path" fill="#FFFFFF"></path>
            <path d="M10.0004,0 C9.80770998,0 9.61915998,0.0555431511 9.45744998,0.160233151 C9.29573998,0.264913151 9.16778998,0.414163151 9.08902998,0.589963151 L6.62202998,6.05196315 L0.921025983,6.50496315 C0.729481983,6.52014315 0.546363983,6.59017315 0.393580983,6.70670315 C0.240797983,6.82322315 0.124818983,6.98129315 0.0595193826,7.16199315 C-0.00578039743,7.34270315 -0.0176359174,7.53840315 0.0253711826,7.72567315 C0.0683783826,7.91294315 0.164426983,8.08385315 0.302025983,8.21796315 L4.51502998,12.3249532 L3.02502998,18.7769532 C2.97977998,18.9722532 2.99427998,19.1766532 3.06664998,19.3636532 C3.13900998,19.5505532 3.26588998,19.7114532 3.43082998,19.8254532 C3.59576998,19.9393532 3.79114998,20.0010532 3.99160998,20.0027081 C4.19207998,20.0041532 4.38836998,19.9453532 4.55502998,19.8339532 L10,16.2039532 C10.1286667,5.40131772 10.1288,0 10.0004,0 Z" id="Path" fill="#FABF24"></path>
        </g>
    </g>
</svg>