<svg width="18" height="18" viewBox="0 0 18 18" fill="none" xmlns="http://www.w3.org/2000/svg">
<path fill-rule="evenodd" clip-rule="evenodd" d="M5.10964 0.666992H12.8921C15.7263 0.666992 17.3263 2.27449 17.3346 5.10866V12.892C17.3346 15.7253 15.7263 17.3337 12.8921 17.3337H5.10964C2.27547 17.3337 0.667969 15.7253 0.667969 12.892V5.10866C0.667969 2.27449 2.27547 0.666992 5.10964 0.666992ZM9.04223 13.8836C9.4014 13.8836 9.70057 13.6169 9.7339 13.2586V4.76692C9.76723 4.50859 9.64307 4.24942 9.41807 4.10859C9.1839 3.96692 8.90057 3.96692 8.6764 4.10859C8.45057 4.24942 8.3264 4.50859 8.35057 4.76692V13.2586C8.39307 13.6169 8.69223 13.8836 9.04223 13.8836ZM12.8762 13.8837C13.2262 13.8837 13.5253 13.6171 13.5678 13.2587V10.5254C13.592 10.2579 13.4678 10.0087 13.242 9.86706C13.0178 9.72539 12.7345 9.72539 12.5012 9.86706C12.2753 10.0087 12.1512 10.2579 12.1845 10.5254V13.2587C12.2178 13.6171 12.517 13.8837 12.8762 13.8837ZM5.85039 13.2587C5.81706 13.617 5.51789 13.8837 5.15873 13.8837C4.80039 13.8837 4.50039 13.617 4.46789 13.2587V7.50037C4.44289 7.2412 4.56706 6.9837 4.79289 6.84204C5.01706 6.70037 5.30123 6.70037 5.52623 6.84204C5.75039 6.9837 5.87623 7.2412 5.85039 7.50037V13.2587Z" fill="#349F5F"/>
</svg>
