<svg width="70" height="70" viewBox="0 0 70 70" fill="none" xmlns="http://www.w3.org/2000/svg">
<circle cx="35" cy="35" r="35" fill="#58CF6D"/>
<g clip-path="url(#clip0)">
<path d="M45.2279 26.1464C45.6389 25.7316 46.1973 25.4963 46.7812 25.492C47.3651 25.4877 47.927 25.7147 48.344 26.1234C48.761 26.5321 48.9993 27.0893 49.0068 27.6732C49.0143 28.257 48.7903 28.8201 48.3839 29.2394L36.6239 43.9409C36.4219 44.1584 36.1781 44.333 35.9071 44.4542C35.6361 44.5754 35.3434 44.6407 35.0466 44.6463C34.7498 44.6519 34.4549 44.5977 34.1795 44.4868C33.9042 44.3759 33.654 44.2106 33.4439 44.0009L25.6469 36.2069C25.2326 35.7923 24.9999 35.2302 25 34.6441C25.0001 34.058 25.2331 33.496 25.6476 33.0816C26.0622 32.6673 26.6243 32.4346 27.2104 32.4347C27.7965 32.4349 28.3586 32.6678 28.7729 33.0824L34.9394 39.2504L45.1694 26.2154C45.188 26.1917 45.208 26.1691 45.2294 26.1479L45.2279 26.1464Z" fill="white"/>
</g>
<defs>
<clipPath id="clip0">
<rect width="24" height="24" fill="white" transform="translate(25 24)"/>
</clipPath>
</defs>
</svg>
