<svg width="18" height="14" viewBox="0 0 18 14" fill="none" xmlns="http://www.w3.org/2000/svg">
<path fill-rule="evenodd" clip-rule="evenodd" d="M4.09355 0.75H8.92027C10.9386 0.75 12.3478 2.14086 12.3478 4.13409V9.8659C12.3478 11.8591 10.9386 13.25 8.92027 13.25H4.09355C2.0752 13.25 0.666016 11.8591 0.666016 9.8659V4.13409C0.666016 2.14086 2.0752 0.75 4.09355 0.75ZM15.6326 2.73081C15.9984 2.54468 16.4276 2.56414 16.7768 2.78411C17.126 3.00323 17.3343 3.38394 17.3343 3.80018V10.197C17.3343 10.6141 17.126 10.9939 16.7768 11.213C16.586 11.3323 16.3726 11.3932 16.1576 11.3932C15.9784 11.3932 15.7993 11.3509 15.6318 11.2655L14.3976 10.6428C13.9409 10.411 13.6576 9.94569 13.6576 9.42877V4.56752C13.6576 4.04976 13.9409 3.58444 14.3976 3.35433L15.6326 2.73081Z" fill="#55BC7E"/>
</svg>
