<?xml version="1.0" encoding="UTF-8"?>
<svg width="763px" height="273px" viewBox="0 0 763 273" version="1.1" xmlns="http://www.w3.org/2000/svg" xmlns:xlink="http://www.w3.org/1999/xlink">
    <title>graph</title>
    <g id="Page-1" stroke="none" stroke-width="1" fill="none" fill-rule="evenodd">
        <g id="graph" transform="translate(0.480000, 0.688000)" fill-rule="nonzero">
            <path d="M2.4,1.376 L-1.77635684e-14,3.008 L-1.77635684e-14,1.76 L2.4,0.112 L3.52,0.112 L3.52,11.312 L2.4,11.312 L2.4,1.376 Z M19.0406,11.424 C18.4753,11.424 17.9633,11.333 17.5046,11.152 C17.0566,10.96 16.6726,10.656 16.3526,10.24 C16.0326,9.824 15.7873,9.291 15.6166,8.64 C15.446,7.979 15.3606,7.173 15.3606,6.224 L15.3606,5.2 C15.3606,4.261 15.446,3.467 15.6166,2.816 C15.798,2.155 16.0486,1.616 16.3686,1.2 C16.6886,0.784 17.0726,0.48 17.5206,0.288 C17.9793,0.096 18.486,1.24344979e-14 19.0406,1.24344979e-14 C19.5953,1.24344979e-14 20.0966,0.096 20.5446,0.288 C21.0033,0.469 21.3926,0.768 21.7126,1.184 C22.0326,1.6 22.278,2.139 22.4486,2.8 C22.63,3.461 22.7206,4.261 22.7206,5.2 L22.7206,6.224 C22.7206,7.163 22.63,7.963 22.4486,8.624 C22.278,9.275 22.0326,9.808 21.7126,10.224 C21.3926,10.64 21.0033,10.944 20.5446,11.136 C20.0966,11.328 19.5953,11.424 19.0406,11.424 Z M19.0406,10.368 C19.4246,10.368 19.7713,10.304 20.0806,10.176 C20.4006,10.037 20.6673,9.808 20.8806,9.488 C21.1046,9.168 21.2753,8.741 21.3926,8.208 C21.51,7.675 21.5686,7.013 21.5686,6.224 L21.5686,5.2 C21.5686,4.411 21.51,3.755 21.3926,3.232 C21.2753,2.699 21.1046,2.272 20.8806,1.952 C20.6566,1.632 20.39,1.403 20.0806,1.264 C19.7713,1.125 19.4246,1.056 19.0406,1.056 C18.6566,1.056 18.3046,1.125 17.9846,1.264 C17.6753,1.392 17.4086,1.616 17.1846,1.936 C16.9713,2.256 16.806,2.683 16.6886,3.216 C16.5713,3.749 16.5126,4.411 16.5126,5.2 L16.5126,6.224 C16.5126,7.013 16.5713,7.675 16.6886,8.208 C16.806,8.731 16.9766,9.152 17.2006,9.472 C17.4246,9.792 17.6913,10.021 18.0006,10.16 C18.31,10.299 18.6566,10.368 19.0406,10.368 Z M10.0406,11.424 C9.4753,11.424 8.9633,11.333 8.5046,11.152 C8.0566,10.96 7.6726,10.656 7.3526,10.24 C7.0326,9.824 6.7873,9.291 6.6166,8.64 C6.446,7.979 6.3606,7.173 6.3606,6.224 L6.3606,5.2 C6.3606,4.261 6.446,3.467 6.6166,2.816 C6.798,2.155 7.0486,1.616 7.3686,1.2 C7.6886,0.784 8.0726,0.48 8.5206,0.288 C8.9793,0.096 9.486,1.24344979e-14 10.0406,1.24344979e-14 C10.5953,1.24344979e-14 11.0966,0.096 11.5446,0.288 C12.0033,0.469 12.3926,0.768 12.7126,1.184 C13.0326,1.6 13.278,2.139 13.4486,2.8 C13.63,3.461 13.7206,4.261 13.7206,5.2 L13.7206,6.224 C13.7206,7.163 13.63,7.963 13.4486,8.624 C13.278,9.275 13.0326,9.808 12.7126,10.224 C12.3926,10.64 12.0033,10.944 11.5446,11.136 C11.0966,11.328 10.5953,11.424 10.0406,11.424 Z M10.0406,10.368 C10.4246,10.368 10.7713,10.304 11.0806,10.176 C11.4006,10.037 11.6673,9.808 11.8806,9.488 C12.1046,9.168 12.2753,8.741 12.3926,8.208 C12.51,7.675 12.5686,7.013 12.5686,6.224 L12.5686,5.2 C12.5686,4.411 12.51,3.755 12.3926,3.232 C12.2753,2.699 12.1046,2.272 11.8806,1.952 C11.6566,1.632 11.39,1.403 11.0806,1.264 C10.7713,1.125 10.4246,1.056 10.0406,1.056 C9.6566,1.056 9.3046,1.125 8.9846,1.264 C8.6753,1.392 8.4086,1.616 8.1846,1.936 C7.9713,2.256 7.806,2.683 7.6886,3.216 C7.5713,3.749 7.5126,4.411 7.5126,5.2 L7.5126,6.224 C7.5126,7.013 7.5713,7.675 7.6886,8.208 C7.806,8.731 7.9766,9.152 8.2006,9.472 C8.4246,9.792 8.6913,10.021 9.0006,10.16 C9.31,10.299 9.6566,10.368 10.0406,10.368 Z" id="Shape" fill="#3C455E"></path>
            <path d="M3.68,128.424 C2.752,128.424 1.95733,128.195 1.296,127.736 C0.64533,127.277 0.21333,126.605 0,125.72 L1.184,125.72 C1.376,126.275 1.68533,126.691 2.112,126.968 C2.53867,127.235 3.06133,127.368 3.68,127.368 C4.448,127.368 5.06133,127.133 5.52,126.664 C5.97867,126.184 6.208,125.523 6.208,124.68 C6.208,123.827 5.97867,123.165 5.52,122.696 C5.06133,122.227 4.448,121.992 3.68,121.992 C3.136,121.992 2.672,122.115 2.288,122.36 C1.904,122.605 1.616,122.883 1.424,123.192 L0.32,123.192 L0.8,117.112 L6.64,117.112 L6.64,118.136 L1.824,118.136 L1.52,121.848 C1.79733,121.56 2.13333,121.336 2.528,121.176 C2.92267,121.016 3.36,120.936 3.84,120.936 C4.352,120.936 4.82133,121.027 5.248,121.208 C5.68533,121.379 6.05867,121.629 6.368,121.96 C6.67733,122.28 6.91733,122.675 7.088,123.144 C7.26933,123.603 7.36,124.115 7.36,124.68 C7.36,125.245 7.26933,125.757 7.088,126.216 C6.91733,126.675 6.66667,127.069 6.336,127.4 C6.016,127.731 5.62667,127.987 5.168,128.168 C4.72,128.339 4.224,128.424 3.68,128.424 Z M13.0469,128.424 C12.4815,128.424 11.9695,128.333 11.5109,128.152 C11.0629,127.96 10.6789,127.656 10.3589,127.24 C10.0389,126.824 9.7935,126.291 9.6229,125.64 C9.4522,124.979 9.3669,124.173 9.3669,123.224 L9.3669,122.2 C9.3669,121.261 9.4522,120.467 9.6229,119.816 C9.8042,119.155 10.0549,118.616 10.3749,118.2 C10.6949,117.784 11.0789,117.48 11.5269,117.288 C11.9855,117.096 12.4922,117 13.0469,117 C13.6015,117 14.1029,117.096 14.5509,117.288 C15.0095,117.469 15.3989,117.768 15.7189,118.184 C16.0389,118.6 16.2842,119.139 16.4549,119.8 C16.6362,120.461 16.7269,121.261 16.7269,122.2 L16.7269,123.224 C16.7269,124.163 16.6362,124.963 16.4549,125.624 C16.2842,126.275 16.0389,126.808 15.7189,127.224 C15.3989,127.64 15.0095,127.944 14.5509,128.136 C14.1029,128.328 13.6015,128.424 13.0469,128.424 Z M13.0469,127.368 C13.4309,127.368 13.7775,127.304 14.0869,127.176 C14.4069,127.037 14.6735,126.808 14.8869,126.488 C15.1109,126.168 15.2815,125.741 15.3989,125.208 C15.5162,124.675 15.5749,124.013 15.5749,123.224 L15.5749,122.2 C15.5749,121.411 15.5162,120.755 15.3989,120.232 C15.2815,119.699 15.1109,119.272 14.8869,118.952 C14.6629,118.632 14.3962,118.403 14.0869,118.264 C13.7775,118.125 13.4309,118.056 13.0469,118.056 C12.6629,118.056 12.3109,118.125 11.9909,118.264 C11.6815,118.392 11.4149,118.616 11.1909,118.936 C10.9775,119.256 10.8122,119.683 10.6949,120.216 C10.5775,120.749 10.5189,121.411 10.5189,122.2 L10.5189,123.224 C10.5189,124.013 10.5775,124.675 10.6949,125.208 C10.8122,125.731 10.9829,126.152 11.2069,126.472 C11.4309,126.792 11.6975,127.021 12.0069,127.16 C12.3162,127.299 12.6629,127.368 13.0469,127.368 Z" id="Shape" fill="#3C455E"></path>
            <path d="M4.4,268.424 C3.83467,268.424 3.32267,268.333 2.864,268.152 C2.416,267.96 2.032,267.656 1.712,267.24 C1.392,266.824 1.14667,266.291 0.976,265.64 C0.80533,264.979 0.72,264.173 0.72,263.224 L0.72,262.2 C0.72,261.261 0.80533,260.467 0.976,259.816 C1.15733,259.155 1.408,258.616 1.728,258.2 C2.048,257.784 2.432,257.48 2.88,257.288 C3.33867,257.096 3.84533,257 4.4,257 C4.95467,257 5.456,257.096 5.904,257.288 C6.36267,257.469 6.752,257.768 7.072,258.184 C7.392,258.6 7.63733,259.139 7.808,259.8 C7.98933,260.461 8.08,261.261 8.08,262.2 L8.08,263.224 C8.08,264.163 7.98933,264.963 7.808,265.624 C7.63733,266.275 7.392,266.808 7.072,267.224 C6.752,267.64 6.36267,267.944 5.904,268.136 C5.456,268.328 4.95467,268.424 4.4,268.424 Z M4.4,267.368 C4.784,267.368 5.13067,267.304 5.44,267.176 C5.76,267.037 6.02667,266.808 6.24,266.488 C6.464,266.168 6.63467,265.741 6.752,265.208 C6.86933,264.675 6.928,264.013 6.928,263.224 L6.928,262.2 C6.928,261.411 6.86933,260.755 6.752,260.232 C6.63467,259.699 6.464,259.272 6.24,258.952 C6.016,258.632 5.74933,258.403 5.44,258.264 C5.13067,258.125 4.784,258.056 4.4,258.056 C4.016,258.056 3.664,258.125 3.344,258.264 C3.03467,258.392 2.768,258.616 2.544,258.936 C2.33067,259.256 2.16533,259.683 2.048,260.216 C1.93067,260.749 1.872,261.411 1.872,262.2 L1.872,263.224 C1.872,264.013 1.93067,264.675 2.048,265.208 C2.16533,265.731 2.336,266.152 2.56,266.472 C2.784,266.792 3.05067,267.021 3.36,267.16 C3.66933,267.299 4.016,267.368 4.4,267.368 Z" id="Shape" fill="#3C455E"></path>
            <rect id="Rectangle" fill="#E2E6F0" x="70" y="0" width="1" height="245"></rect>
            <path d="M61.2178,257.112 L69.5378,257.112 L69.5378,268.312 L68.4178,268.312 L68.4178,258.136 L62.3378,258.136 L62.3378,268.312 L61.2178,268.312 L61.2178,257.112 Z M72.3409,260.312 L73.3969,260.312 L73.3969,263.752 L77.8449,263.752 L77.8449,260.312 L78.9009,260.312 L78.9009,268.312 L77.8449,268.312 L77.8449,264.712 L73.3969,264.712 L73.3969,268.312 L72.3409,268.312 L72.3409,260.312 Z" id="Shape" fill="#3C455E"></path>
            <rect id="Rectangle" fill="#E2E6F0" x="183.52" y="0.312" width="1" height="245"></rect>
            <path d="M177.015,257.112 L180.535,257.112 C181.815,257.112 182.748,257.379 183.335,257.912 C183.921,258.435 184.215,259.16 184.215,260.088 C184.215,260.643 184.081,261.123 183.815,261.528 C183.559,261.933 183.185,262.248 182.695,262.472 L182.695,262.504 C183.303,262.717 183.761,263.053 184.071,263.512 C184.38,263.96 184.535,264.515 184.535,265.176 C184.535,266.189 184.241,266.968 183.655,267.512 C183.068,268.045 182.135,268.312 180.855,268.312 L177.015,268.312 L177.015,257.112 Z M178.135,258.136 L178.135,262.04 L180.455,262.04 C181.393,262.04 182.06,261.869 182.455,261.528 C182.86,261.176 183.063,260.696 183.063,260.088 C183.063,259.48 182.86,259.005 182.455,258.664 C182.06,258.312 181.393,258.136 180.455,258.136 L178.135,258.136 Z M178.135,263.064 L178.135,267.288 L180.775,267.288 C181.713,267.288 182.38,267.112 182.775,266.76 C183.18,266.397 183.383,265.869 183.383,265.176 C183.383,264.483 183.18,263.96 182.775,263.608 C182.38,263.245 181.713,263.064 180.775,263.064 L178.135,263.064 Z M188.41,261.272 L185.738,261.272 L185.738,260.312 L192.138,260.312 L192.138,261.272 L189.466,261.272 L189.466,268.312 L188.41,268.312 L188.41,261.272 Z" id="Shape" fill="#3C455E"></path>
            <rect id="Rectangle" fill="#E2E6F0" x="297.02" y="0.312" width="1" height="245"></rect>
            <path d="M293.198,268.424 C292.526,268.424 291.913,268.307 291.358,268.072 C290.803,267.837 290.323,267.496 289.918,267.048 C289.513,266.589 289.198,266.029 288.974,265.368 C288.75,264.696 288.638,263.928 288.638,263.064 L288.638,262.2 C288.638,261.379 288.75,260.648 288.974,260.008 C289.198,259.357 289.513,258.813 289.918,258.376 C290.323,257.928 290.803,257.587 291.358,257.352 C291.923,257.117 292.537,257 293.198,257 C293.806,257 294.35,257.091 294.83,257.272 C295.321,257.443 295.747,257.677 296.11,257.976 C296.473,258.275 296.761,258.627 296.974,259.032 C297.198,259.427 297.353,259.853 297.438,260.312 L296.254,260.312 C296.169,259.992 296.041,259.693 295.87,259.416 C295.71,259.139 295.502,258.899 295.246,258.696 C294.99,258.483 294.691,258.317 294.35,258.2 C294.009,258.083 293.625,258.024 293.198,258.024 C292.707,258.024 292.254,258.115 291.838,258.296 C291.422,258.477 291.059,258.744 290.75,259.096 C290.451,259.448 290.217,259.885 290.046,260.408 C289.875,260.92 289.79,261.517 289.79,262.2 L289.79,263.064 C289.79,263.779 289.875,264.408 290.046,264.952 C290.227,265.496 290.467,265.949 290.766,266.312 C291.075,266.675 291.438,266.947 291.854,267.128 C292.27,267.309 292.718,267.4 293.198,267.4 C294.062,267.4 294.745,267.171 295.246,266.712 C295.758,266.253 296.094,265.667 296.254,264.952 L297.438,264.952 C297.353,265.453 297.198,265.917 296.974,266.344 C296.761,266.76 296.473,267.123 296.11,267.432 C295.747,267.741 295.321,267.987 294.83,268.168 C294.35,268.339 293.806,268.424 293.198,268.424 Z M299.677,260.312 L300.509,260.312 L300.637,261.512 L300.669,261.512 C301.021,261.053 301.41,260.723 301.837,260.52 C302.264,260.307 302.765,260.2 303.341,260.2 C303.81,260.2 304.242,260.285 304.637,260.456 C305.032,260.616 305.368,260.861 305.645,261.192 C305.933,261.512 306.157,261.912 306.317,262.392 C306.477,262.872 306.557,263.421 306.557,264.04 L306.557,264.584 C306.557,265.203 306.477,265.752 306.317,266.232 C306.157,266.701 305.933,267.101 305.645,267.432 C305.357,267.752 305.016,267.997 304.621,268.168 C304.226,268.339 303.8,268.424 303.341,268.424 C302.189,268.424 301.33,268.013 300.765,267.192 L300.733,267.192 L300.733,271.512 L299.677,271.512 L299.677,260.312 Z M303.101,267.464 C303.805,267.464 304.376,267.229 304.813,266.76 C305.25,266.28 305.469,265.555 305.469,264.584 L305.469,264.04 C305.469,263.091 305.245,262.376 304.797,261.896 C304.36,261.405 303.794,261.16 303.101,261.16 C302.397,261.16 301.826,261.4 301.389,261.88 C300.952,262.349 300.733,263.069 300.733,264.04 L300.733,264.584 C300.733,265.533 300.952,266.253 301.389,266.744 C301.837,267.224 302.408,267.464 303.101,267.464 Z" id="Shape" fill="#3C455E"></path>
            <rect id="Rectangle" fill="#E2E6F0" x="411.02" y="0.312" width="1" height="245"></rect>
            <path d="M407.758,264.184 C407.118,264.184 406.579,264.12 406.142,263.992 C405.704,263.864 405.342,263.699 405.054,263.496 C404.776,263.293 404.558,263.059 404.398,262.792 C404.248,262.525 404.136,262.253 404.062,261.976 C403.987,261.688 403.944,261.411 403.934,261.144 C403.923,260.867 403.918,260.616 403.918,260.392 L403.918,257.112 L405.038,257.112 L405.038,260.312 C405.038,260.611 405.054,260.925 405.086,261.256 C405.118,261.587 405.219,261.896 405.39,262.184 C405.56,262.461 405.827,262.696 406.19,262.888 C406.563,263.069 407.086,263.16 407.758,263.16 C408.707,263.16 409.614,263.021 410.478,262.744 L410.478,257.112 L411.598,257.112 L411.598,268.312 L410.478,268.312 L410.478,263.8 C410.019,263.928 409.555,264.024 409.086,264.088 C408.627,264.152 408.184,264.184 407.758,264.184 Z M416.028,261.272 L413.356,261.272 L413.356,260.312 L419.756,260.312 L419.756,261.272 L417.084,261.272 L417.084,268.312 L416.028,268.312 L416.028,261.272 Z" id="Shape" fill="#3C455E"></path>
            <rect id="Rectangle" fill="#E2E6F0" x="524.52" y="0.312" width="1" height="245"></rect>
            <path d="M517.335,257.112 L525.655,257.112 L525.655,268.312 L524.535,268.312 L524.535,258.136 L518.455,258.136 L518.455,268.312 L517.335,268.312 L517.335,257.112 Z M530.09,261.272 L527.418,261.272 L527.418,260.312 L533.818,260.312 L533.818,261.272 L531.146,261.272 L531.146,268.312 L530.09,268.312 L530.09,261.272 Z" id="Shape" fill="#3C455E"></path>
            <rect id="Rectangle" fill="#E2E6F0" x="639.02" y="0.312" width="1" height="245"></rect>
            <path d="M635.323,268.424 C634.651,268.424 634.038,268.307 633.483,268.072 C632.928,267.837 632.448,267.496 632.043,267.048 C631.638,266.589 631.323,266.029 631.099,265.368 C630.875,264.696 630.763,263.928 630.763,263.064 L630.763,262.2 C630.763,261.379 630.875,260.648 631.099,260.008 C631.323,259.357 631.638,258.813 632.043,258.376 C632.448,257.928 632.928,257.587 633.483,257.352 C634.048,257.117 634.662,257 635.323,257 C635.931,257 636.475,257.091 636.955,257.272 C637.446,257.443 637.872,257.677 638.235,257.976 C638.598,258.275 638.886,258.627 639.099,259.032 C639.323,259.427 639.478,259.853 639.563,260.312 L638.379,260.312 C638.294,259.992 638.166,259.693 637.995,259.416 C637.835,259.139 637.627,258.899 637.371,258.696 C637.115,258.483 636.816,258.317 636.475,258.2 C636.134,258.083 635.75,258.024 635.323,258.024 C634.832,258.024 634.379,258.115 633.963,258.296 C633.547,258.477 633.184,258.744 632.875,259.096 C632.576,259.448 632.342,259.885 632.171,260.408 C632,260.92 631.915,261.517 631.915,262.2 L631.915,263.064 C631.915,263.779 632,264.408 632.171,264.952 C632.352,265.496 632.592,265.949 632.891,266.312 C633.2,266.675 633.563,266.947 633.979,267.128 C634.395,267.309 634.843,267.4 635.323,267.4 C636.187,267.4 636.87,267.171 637.371,266.712 C637.883,266.253 638.219,265.667 638.379,264.952 L639.563,264.952 C639.478,265.453 639.323,265.917 639.099,266.344 C638.886,266.76 638.598,267.123 638.235,267.432 C637.872,267.741 637.446,267.987 636.955,268.168 C636.475,268.339 635.931,268.424 635.323,268.424 Z M644.938,268.424 C643.85,268.424 642.986,268.077 642.346,267.384 C641.717,266.68 641.402,265.587 641.402,264.104 L641.402,263.24 C641.402,262.632 641.429,262.056 641.482,261.512 C641.535,260.968 641.626,260.472 641.754,260.024 C641.893,259.576 642.079,259.181 642.314,258.84 C642.549,258.488 642.853,258.2 643.226,257.976 C643.557,257.784 643.882,257.656 644.202,257.592 C644.533,257.517 644.879,257.464 645.242,257.432 C645.605,257.4 645.994,257.363 646.41,257.32 C646.826,257.267 647.29,257.16 647.802,257 L647.802,257.976 C647.397,258.125 647.002,258.221 646.618,258.264 C646.245,258.307 645.882,258.344 645.53,258.376 C645.189,258.408 644.863,258.451 644.554,258.504 C644.245,258.557 643.962,258.664 643.706,258.824 C643.311,259.08 643.013,259.443 642.81,259.912 C642.618,260.381 642.49,260.995 642.426,261.752 L642.458,261.752 C642.735,261.304 643.098,260.963 643.546,260.728 C644.005,260.483 644.533,260.36 645.13,260.36 C645.61,260.36 646.053,260.445 646.458,260.616 C646.863,260.787 647.21,261.032 647.498,261.352 C647.797,261.672 648.026,262.067 648.186,262.536 C648.357,263.005 648.442,263.533 648.442,264.12 L648.442,264.664 C648.442,265.251 648.357,265.779 648.186,266.248 C648.015,266.707 647.775,267.101 647.466,267.432 C647.167,267.752 646.799,267.997 646.362,268.168 C645.935,268.339 645.461,268.424 644.938,268.424 Z M644.938,267.464 C645.663,267.464 646.245,267.229 646.682,266.76 C647.13,266.28 647.354,265.581 647.354,264.664 L647.354,264.12 C647.354,263.203 647.13,262.509 646.682,262.04 C646.245,261.56 645.663,261.32 644.938,261.32 C644.191,261.32 643.594,261.555 643.146,262.024 C642.709,262.493 642.49,263.192 642.49,264.12 L642.49,264.664 C642.49,265.571 642.714,266.264 643.162,266.744 C643.61,267.224 644.202,267.464 644.938,267.464 Z" id="Shape" fill="#3C455E"></path>
            <rect id="Rectangle" fill="#E2E6F0" x="753.02" y="0.312" width="1" height="245"></rect>
            <path d="M745.96,257.112 L749.48,257.112 C750.76,257.112 751.693,257.379 752.28,257.912 C752.867,258.435 753.16,259.16 753.16,260.088 C753.16,260.643 753.027,261.123 752.76,261.528 C752.504,261.933 752.131,262.248 751.64,262.472 L751.64,262.504 C752.248,262.717 752.707,263.053 753.016,263.512 C753.325,263.96 753.48,264.515 753.48,265.176 C753.48,266.189 753.187,266.968 752.6,267.512 C752.013,268.045 751.08,268.312 749.8,268.312 L745.96,268.312 L745.96,257.112 Z M747.08,258.136 L747.08,262.04 L749.4,262.04 C750.339,262.04 751.005,261.869 751.4,261.528 C751.805,261.176 752.008,260.696 752.008,260.088 C752.008,259.48 751.805,259.005 751.4,258.664 C751.005,258.312 750.339,258.136 749.4,258.136 L747.08,258.136 Z M747.08,263.064 L747.08,267.288 L749.72,267.288 C750.659,267.288 751.325,267.112 751.72,266.76 C752.125,266.397 752.328,265.869 752.328,265.176 C752.328,264.483 752.125,263.96 751.72,263.608 C751.325,263.245 750.659,263.064 749.72,263.064 L747.08,263.064 Z M758.682,268.424 C758.181,268.424 757.722,268.344 757.306,268.184 C756.89,268.013 756.533,267.763 756.234,267.432 C755.946,267.101 755.722,266.691 755.562,266.2 C755.402,265.709 755.322,265.144 755.322,264.504 L755.322,263.96 C755.322,263.363 755.402,262.835 755.562,262.376 C755.733,261.907 755.962,261.512 756.25,261.192 C756.549,260.872 756.901,260.627 757.306,260.456 C757.722,260.285 758.181,260.2 758.682,260.2 C759.151,260.2 759.573,260.264 759.946,260.392 C760.319,260.509 760.639,260.68 760.906,260.904 C761.173,261.117 761.386,261.368 761.546,261.656 C761.706,261.933 761.818,262.232 761.882,262.552 L760.794,262.552 C760.677,262.157 760.458,261.827 760.138,261.56 C759.818,261.293 759.359,261.16 758.762,261.16 C758.079,261.16 757.514,261.4 757.066,261.88 C756.629,262.36 756.41,263.053 756.41,263.96 L756.41,264.504 C756.41,265.485 756.634,266.227 757.082,266.728 C757.53,267.219 758.09,267.464 758.762,267.464 C759.359,267.464 759.818,267.325 760.138,267.048 C760.458,266.771 760.677,266.392 760.794,265.912 L761.882,265.912 C761.818,266.275 761.706,266.611 761.546,266.92 C761.386,267.219 761.173,267.48 760.906,267.704 C760.639,267.928 760.319,268.104 759.946,268.232 C759.573,268.36 759.151,268.424 758.682,268.424 Z" id="Shape" fill="#3C455E"></path>
            <rect id="Rectangle" fill="#E2E6F0" x="62.52" y="245.312" width="697" height="1"></rect>
        </g>
    </g>
</svg>