<svg width="763" height="275" viewBox="0 0 763 275" fill="none" xmlns="http://www.w3.org/2000/svg">
<path d="M0.4 14.288L5.648 6.8H7.04V14.288H8.56V15.312H7.04V18H5.92V15.312H0.4V14.288ZM5.92 14.288V8.096L1.632 14.288H5.92ZM13.9269 18.112C13.3615 18.112 12.8495 18.0213 12.3909 17.84C11.9429 17.648 11.5589 17.344 11.2389 16.928C10.9189 16.512 10.6735 15.9787 10.5029 15.328C10.3322 14.6667 10.2469 13.8613 10.2469 12.912V11.888C10.2469 10.9493 10.3322 10.1547 10.5029 9.504C10.6842 8.84267 10.9349 8.304 11.2549 7.888C11.5749 7.472 11.9589 7.168 12.4069 6.976C12.8655 6.784 13.3722 6.688 13.9269 6.688C14.4815 6.688 14.9829 6.784 15.4309 6.976C15.8895 7.15733 16.2789 7.456 16.5989 7.872C16.9189 8.288 17.1642 8.82667 17.3349 9.488C17.5162 10.1493 17.6069 10.9493 17.6069 11.888V12.912C17.6069 13.8507 17.5162 14.6507 17.3349 15.312C17.1642 15.9627 16.9189 16.496 16.5989 16.912C16.2789 17.328 15.8895 17.632 15.4309 17.824C14.9829 18.016 14.4815 18.112 13.9269 18.112ZM13.9269 17.056C14.3109 17.056 14.6575 16.992 14.9669 16.864C15.2869 16.7253 15.5535 16.496 15.7669 16.176C15.9909 15.856 16.1615 15.4293 16.2789 14.896C16.3962 14.3627 16.4549 13.7013 16.4549 12.912V11.888C16.4549 11.0987 16.3962 10.4427 16.2789 9.92C16.1615 9.38667 15.9909 8.96 15.7669 8.64C15.5429 8.32 15.2762 8.09067 14.9669 7.952C14.6575 7.81333 14.3109 7.744 13.9269 7.744C13.5429 7.744 13.1909 7.81333 12.8709 7.952C12.5615 8.08 12.2949 8.304 12.0709 8.624C11.8575 8.944 11.6922 9.37067 11.5749 9.904C11.4575 10.4373 11.3989 11.0987 11.3989 11.888V12.912C11.3989 13.7013 11.4575 14.3627 11.5749 14.896C11.6922 15.4187 11.8629 15.84 12.0869 16.16C12.3109 16.48 12.5775 16.7093 12.8869 16.848C13.1962 16.9867 13.5429 17.056 13.9269 17.056ZM23.6925 18.112C23.1272 18.112 22.6152 18.0213 22.1565 17.84C21.7085 17.648 21.3245 17.344 21.0045 16.928C20.6845 16.512 20.4392 15.9787 20.2685 15.328C20.0978 14.6667 20.0125 13.8613 20.0125 12.912V11.888C20.0125 10.9493 20.0978 10.1547 20.2685 9.504C20.4498 8.84267 20.7005 8.304 21.0205 7.888C21.3405 7.472 21.7245 7.168 22.1725 6.976C22.6312 6.784 23.1378 6.688 23.6925 6.688C24.2472 6.688 24.7485 6.784 25.1965 6.976C25.6552 7.15733 26.0445 7.456 26.3645 7.872C26.6845 8.288 26.9298 8.82667 27.1005 9.488C27.2818 10.1493 27.3725 10.9493 27.3725 11.888V12.912C27.3725 13.8507 27.2818 14.6507 27.1005 15.312C26.9298 15.9627 26.6845 16.496 26.3645 16.912C26.0445 17.328 25.6552 17.632 25.1965 17.824C24.7485 18.016 24.2472 18.112 23.6925 18.112ZM23.6925 17.056C24.0765 17.056 24.4232 16.992 24.7325 16.864C25.0525 16.7253 25.3192 16.496 25.5325 16.176C25.7565 15.856 25.9272 15.4293 26.0445 14.896C26.1618 14.3627 26.2205 13.7013 26.2205 12.912V11.888C26.2205 11.0987 26.1618 10.4427 26.0445 9.92C25.9272 9.38667 25.7565 8.96 25.5325 8.64C25.3085 8.32 25.0418 8.09067 24.7325 7.952C24.4232 7.81333 24.0765 7.744 23.6925 7.744C23.3085 7.744 22.9565 7.81333 22.6365 7.952C22.3272 8.08 22.0605 8.304 21.8365 8.624C21.6232 8.944 21.4578 9.37067 21.3405 9.904C21.2232 10.4373 21.1645 11.0987 21.1645 11.888V12.912C21.1645 13.7013 21.2232 14.3627 21.3405 14.896C21.4578 15.4187 21.6285 15.84 21.8525 16.16C22.0765 16.48 22.3432 16.7093 22.6525 16.848C22.9618 16.9867 23.3085 17.056 23.6925 17.056Z" fill="#3C455E"/>
<path d="M4.56 68.112C3.42933 68.112 2.544 67.7973 1.904 67.168C1.27467 66.5387 0.933333 65.6693 0.88 64.56H2.032C2.08533 65.36 2.32533 65.9787 2.752 66.416C3.17867 66.8427 3.78133 67.056 4.56 67.056C5.392 67.056 6.02133 66.8587 6.448 66.464C6.87467 66.0587 7.088 65.5307 7.088 64.88C7.088 64.2507 6.88 63.7387 6.464 63.344C6.048 62.9493 5.46133 62.752 4.704 62.752H3.2V61.728H4.704C5.376 61.728 5.89867 61.5467 6.272 61.184C6.656 60.8107 6.848 60.3307 6.848 59.744C6.848 59.136 6.65067 58.6507 6.256 58.288C5.872 57.9253 5.30667 57.744 4.56 57.744C3.888 57.744 3.35467 57.9413 2.96 58.336C2.576 58.72 2.34667 59.248 2.272 59.92H1.12C1.14133 59.4293 1.23733 58.9867 1.408 58.592C1.57867 58.1973 1.808 57.8613 2.096 57.584C2.39467 57.296 2.752 57.0773 3.168 56.928C3.584 56.768 4.048 56.688 4.56 56.688C5.104 56.688 5.58933 56.7627 6.016 56.912C6.44267 57.0613 6.8 57.2693 7.088 57.536C7.38667 57.8027 7.61067 58.128 7.76 58.512C7.92 58.8853 8 59.296 8 59.744C8 60.288 7.86667 60.7787 7.6 61.216C7.344 61.6427 6.97067 61.9787 6.48 62.224C7.056 62.4693 7.49333 62.8213 7.792 63.28C8.09067 63.7387 8.24 64.272 8.24 64.88C8.24 65.36 8.15467 65.7973 7.984 66.192C7.824 66.5867 7.58933 66.928 7.28 67.216C6.97067 67.4933 6.58667 67.712 6.128 67.872C5.66933 68.032 5.14667 68.112 4.56 68.112ZM13.8413 68.112C12.9133 68.112 12.1186 67.8827 11.4573 67.424C10.8066 66.9653 10.3746 66.2933 10.1613 65.408H11.3453C11.5373 65.9627 11.8466 66.3787 12.2733 66.656C12.6999 66.9227 13.2226 67.056 13.8413 67.056C14.6093 67.056 15.2226 66.8213 15.6813 66.352C16.1399 65.872 16.3693 65.2107 16.3693 64.368C16.3693 63.5147 16.1399 62.8533 15.6813 62.384C15.2226 61.9147 14.6093 61.68 13.8413 61.68C13.2973 61.68 12.8333 61.8027 12.4493 62.048C12.0653 62.2933 11.7773 62.5707 11.5853 62.88H10.4813L10.9613 56.8H16.8013V57.824H11.9853L11.6813 61.536C11.9586 61.248 12.2946 61.024 12.6893 60.864C13.0839 60.704 13.5213 60.624 14.0013 60.624C14.5133 60.624 14.9826 60.7147 15.4093 60.896C15.8466 61.0667 16.2199 61.3173 16.5293 61.648C16.8386 61.968 17.0786 62.3627 17.2493 62.832C17.4306 63.2907 17.5213 63.8027 17.5213 64.368C17.5213 64.9333 17.4306 65.4453 17.2493 65.904C17.0786 66.3627 16.8279 66.7573 16.4973 67.088C16.1773 67.4187 15.7879 67.6747 15.3293 67.856C14.8813 68.0267 14.3853 68.112 13.8413 68.112ZM23.2081 68.112C22.6428 68.112 22.1308 68.0213 21.6721 67.84C21.2241 67.648 20.8401 67.344 20.5201 66.928C20.2001 66.512 19.9548 65.9787 19.7841 65.328C19.6135 64.6667 19.5281 63.8613 19.5281 62.912V61.888C19.5281 60.9493 19.6135 60.1547 19.7841 59.504C19.9655 58.8427 20.2161 58.304 20.5361 57.888C20.8561 57.472 21.2401 57.168 21.6881 56.976C22.1468 56.784 22.6535 56.688 23.2081 56.688C23.7628 56.688 24.2641 56.784 24.7121 56.976C25.1708 57.1573 25.5601 57.456 25.8801 57.872C26.2001 58.288 26.4455 58.8267 26.6161 59.488C26.7975 60.1493 26.8881 60.9493 26.8881 61.888V62.912C26.8881 63.8507 26.7975 64.6507 26.6161 65.312C26.4455 65.9627 26.2001 66.496 25.8801 66.912C25.5601 67.328 25.1708 67.632 24.7121 67.824C24.2641 68.016 23.7628 68.112 23.2081 68.112ZM23.2081 67.056C23.5921 67.056 23.9388 66.992 24.2481 66.864C24.5681 66.7253 24.8348 66.496 25.0481 66.176C25.2721 65.856 25.4428 65.4293 25.5601 64.896C25.6775 64.3627 25.7361 63.7013 25.7361 62.912V61.888C25.7361 61.0987 25.6775 60.4427 25.5601 59.92C25.4428 59.3867 25.2721 58.96 25.0481 58.64C24.8241 58.32 24.5575 58.0907 24.2481 57.952C23.9388 57.8133 23.5921 57.744 23.2081 57.744C22.8241 57.744 22.4721 57.8133 22.1521 57.952C21.8428 58.08 21.5761 58.304 21.3521 58.624C21.1388 58.944 20.9735 59.3707 20.8561 59.904C20.7388 60.4373 20.6801 61.0987 20.6801 61.888V62.912C20.6801 63.7013 20.7388 64.3627 20.8561 64.896C20.9735 65.4187 21.1441 65.84 21.3681 66.16C21.5921 66.48 21.8588 66.7093 22.1681 66.848C22.4775 66.9867 22.8241 67.056 23.2081 67.056Z" fill="#3C455E"/>
<path d="M0.72 116.976L4.688 113.04C5.02933 112.699 5.328 112.389 5.584 112.112C5.85067 111.835 6.06933 111.573 6.24 111.328C6.42133 111.083 6.55467 110.848 6.64 110.624C6.72533 110.4 6.768 110.165 6.768 109.92C6.768 109.291 6.54933 108.773 6.112 108.368C5.67467 107.952 5.07733 107.744 4.32 107.744C3.56267 107.744 2.96533 107.952 2.528 108.368C2.09067 108.773 1.872 109.291 1.872 109.92H0.72C0.72 109.461 0.805333 109.035 0.976 108.64C1.14667 108.245 1.38667 107.904 1.696 107.616C2.00533 107.328 2.384 107.104 2.832 106.944C3.28 106.773 3.776 106.688 4.32 106.688C4.864 106.688 5.36 106.773 5.808 106.944C6.256 107.104 6.63467 107.328 6.944 107.616C7.25333 107.904 7.49333 108.245 7.664 108.64C7.83467 109.035 7.92 109.461 7.92 109.92C7.92 110.539 7.70667 111.141 7.28 111.728C6.864 112.315 6.28267 112.971 5.536 113.696L2.176 116.976H7.92V118H0.72V116.976ZM13.3569 118.112C12.4289 118.112 11.6342 117.883 10.9729 117.424C10.3222 116.965 9.89021 116.293 9.67688 115.408H10.8609C11.0529 115.963 11.3622 116.379 11.7889 116.656C12.2155 116.923 12.7382 117.056 13.3569 117.056C14.1249 117.056 14.7382 116.821 15.1969 116.352C15.6555 115.872 15.8849 115.211 15.8849 114.368C15.8849 113.515 15.6555 112.853 15.1969 112.384C14.7382 111.915 14.1249 111.68 13.3569 111.68C12.8129 111.68 12.3489 111.803 11.9649 112.048C11.5809 112.293 11.2929 112.571 11.1009 112.88H9.99688L10.4769 106.8H16.3169V107.824H11.5009L11.1969 111.536C11.4742 111.248 11.8102 111.024 12.2049 110.864C12.5995 110.704 13.0369 110.624 13.5169 110.624C14.0289 110.624 14.4982 110.715 14.9249 110.896C15.3622 111.067 15.7355 111.317 16.0449 111.648C16.3542 111.968 16.5942 112.363 16.7649 112.832C16.9462 113.291 17.0369 113.803 17.0369 114.368C17.0369 114.933 16.9462 115.445 16.7649 115.904C16.5942 116.363 16.3435 116.757 16.0129 117.088C15.6929 117.419 15.3035 117.675 14.8449 117.856C14.3969 118.027 13.9009 118.112 13.3569 118.112ZM22.7238 118.112C22.1584 118.112 21.6464 118.021 21.1878 117.84C20.7398 117.648 20.3558 117.344 20.0358 116.928C19.7158 116.512 19.4704 115.979 19.2998 115.328C19.1291 114.667 19.0438 113.861 19.0438 112.912V111.888C19.0438 110.949 19.1291 110.155 19.2998 109.504C19.4811 108.843 19.7318 108.304 20.0518 107.888C20.3718 107.472 20.7558 107.168 21.2038 106.976C21.6624 106.784 22.1691 106.688 22.7238 106.688C23.2784 106.688 23.7798 106.784 24.2278 106.976C24.6864 107.157 25.0758 107.456 25.3958 107.872C25.7158 108.288 25.9611 108.827 26.1318 109.488C26.3131 110.149 26.4038 110.949 26.4038 111.888V112.912C26.4038 113.851 26.3131 114.651 26.1318 115.312C25.9611 115.963 25.7158 116.496 25.3958 116.912C25.0758 117.328 24.6864 117.632 24.2278 117.824C23.7798 118.016 23.2784 118.112 22.7238 118.112ZM22.7238 117.056C23.1078 117.056 23.4544 116.992 23.7638 116.864C24.0838 116.725 24.3504 116.496 24.5638 116.176C24.7878 115.856 24.9584 115.429 25.0758 114.896C25.1931 114.363 25.2518 113.701 25.2518 112.912V111.888C25.2518 111.099 25.1931 110.443 25.0758 109.92C24.9584 109.387 24.7878 108.96 24.5638 108.64C24.3398 108.32 24.0731 108.091 23.7638 107.952C23.4544 107.813 23.1078 107.744 22.7238 107.744C22.3398 107.744 21.9878 107.813 21.6678 107.952C21.3584 108.08 21.0918 108.304 20.8678 108.624C20.6544 108.944 20.4891 109.371 20.3718 109.904C20.2544 110.437 20.1957 111.099 20.1957 111.888V112.912C20.1957 113.701 20.2544 114.363 20.3718 114.896C20.4891 115.419 20.6598 115.84 20.8838 116.16C21.1078 116.48 21.3744 116.709 21.6838 116.848C21.9931 116.987 22.3398 117.056 22.7238 117.056Z" fill="#3C455E"/>
<path d="M2.88 158.064L0.48 159.696V158.448L2.88 156.8H4V168H2.88V158.064ZM10.1538 168.112C9.22575 168.112 8.43108 167.883 7.76975 167.424C7.11908 166.965 6.68708 166.293 6.47375 165.408H7.65775C7.84975 165.963 8.15908 166.379 8.58575 166.656C9.01242 166.923 9.53508 167.056 10.1538 167.056C10.9218 167.056 11.5351 166.821 11.9938 166.352C12.4524 165.872 12.6818 165.211 12.6818 164.368C12.6818 163.515 12.4524 162.853 11.9938 162.384C11.5351 161.915 10.9218 161.68 10.1538 161.68C9.60975 161.68 9.14575 161.803 8.76175 162.048C8.37775 162.293 8.08975 162.571 7.89775 162.88H6.79375L7.27375 156.8H13.1138V157.824H8.29775L7.99375 161.536C8.27108 161.248 8.60708 161.024 9.00175 160.864C9.39642 160.704 9.83375 160.624 10.3138 160.624C10.8258 160.624 11.2951 160.715 11.7218 160.896C12.1591 161.067 12.5324 161.317 12.8418 161.648C13.1511 161.968 13.3911 162.363 13.5618 162.832C13.7431 163.291 13.8338 163.803 13.8338 164.368C13.8338 164.933 13.7431 165.445 13.5618 165.904C13.3911 166.363 13.1404 166.757 12.8098 167.088C12.4898 167.419 12.1004 167.675 11.6418 167.856C11.1938 168.027 10.6978 168.112 10.1538 168.112ZM19.5206 168.112C18.9553 168.112 18.4433 168.021 17.9846 167.84C17.5366 167.648 17.1526 167.344 16.8326 166.928C16.5126 166.512 16.2673 165.979 16.0966 165.328C15.926 164.667 15.8406 163.861 15.8406 162.912V161.888C15.8406 160.949 15.926 160.155 16.0966 159.504C16.278 158.843 16.5286 158.304 16.8486 157.888C17.1686 157.472 17.5526 157.168 18.0006 156.976C18.4593 156.784 18.966 156.688 19.5206 156.688C20.0753 156.688 20.5766 156.784 21.0246 156.976C21.4833 157.157 21.8726 157.456 22.1926 157.872C22.5126 158.288 22.758 158.827 22.9286 159.488C23.11 160.149 23.2006 160.949 23.2006 161.888V162.912C23.2006 163.851 23.11 164.651 22.9286 165.312C22.758 165.963 22.5126 166.496 22.1926 166.912C21.8726 167.328 21.4833 167.632 21.0246 167.824C20.5766 168.016 20.0753 168.112 19.5206 168.112ZM19.5206 167.056C19.9046 167.056 20.2513 166.992 20.5606 166.864C20.8806 166.725 21.1473 166.496 21.3606 166.176C21.5846 165.856 21.7553 165.429 21.8726 164.896C21.99 164.363 22.0486 163.701 22.0486 162.912V161.888C22.0486 161.099 21.99 160.443 21.8726 159.92C21.7553 159.387 21.5846 158.96 21.3606 158.64C21.1366 158.32 20.87 158.091 20.5606 157.952C20.2513 157.813 19.9046 157.744 19.5206 157.744C19.1366 157.744 18.7846 157.813 18.4646 157.952C18.1553 158.08 17.8886 158.304 17.6646 158.624C17.4513 158.944 17.286 159.371 17.1686 159.904C17.0513 160.437 16.9926 161.099 16.9926 161.888V162.912C16.9926 163.701 17.0513 164.363 17.1686 164.896C17.286 165.419 17.4566 165.84 17.6806 166.16C17.9046 166.48 18.1713 166.709 18.4806 166.848C18.79 166.987 19.1366 167.056 19.5206 167.056Z" fill="#3C455E"/>
<path d="M4.56 218.112C3.632 218.112 2.83733 217.883 2.176 217.424C1.52533 216.965 1.09333 216.293 0.88 215.408H2.064C2.256 215.963 2.56533 216.379 2.992 216.656C3.41867 216.923 3.94133 217.056 4.56 217.056C5.328 217.056 5.94133 216.821 6.4 216.352C6.85867 215.872 7.088 215.211 7.088 214.368C7.088 213.515 6.85867 212.853 6.4 212.384C5.94133 211.915 5.328 211.68 4.56 211.68C4.016 211.68 3.552 211.803 3.168 212.048C2.784 212.293 2.496 212.571 2.304 212.88H1.2L1.68 206.8H7.52V207.824H2.704L2.4 211.536C2.67733 211.248 3.01333 211.024 3.408 210.864C3.80267 210.704 4.24 210.624 4.72 210.624C5.232 210.624 5.70133 210.715 6.128 210.896C6.56533 211.067 6.93867 211.317 7.248 211.648C7.55733 211.968 7.79733 212.363 7.968 212.832C8.14933 213.291 8.24 213.803 8.24 214.368C8.24 214.933 8.14933 215.445 7.968 215.904C7.79733 216.363 7.54667 216.757 7.216 217.088C6.896 217.419 6.50667 217.675 6.048 217.856C5.6 218.027 5.104 218.112 4.56 218.112ZM13.9269 218.112C13.3615 218.112 12.8495 218.021 12.3909 217.84C11.9429 217.648 11.5589 217.344 11.2389 216.928C10.9189 216.512 10.6735 215.979 10.5029 215.328C10.3322 214.667 10.2469 213.861 10.2469 212.912V211.888C10.2469 210.949 10.3322 210.155 10.5029 209.504C10.6842 208.843 10.9349 208.304 11.2549 207.888C11.5749 207.472 11.9589 207.168 12.4069 206.976C12.8655 206.784 13.3722 206.688 13.9269 206.688C14.4815 206.688 14.9829 206.784 15.4309 206.976C15.8895 207.157 16.2789 207.456 16.5989 207.872C16.9189 208.288 17.1642 208.827 17.3349 209.488C17.5162 210.149 17.6069 210.949 17.6069 211.888V212.912C17.6069 213.851 17.5162 214.651 17.3349 215.312C17.1642 215.963 16.9189 216.496 16.5989 216.912C16.2789 217.328 15.8895 217.632 15.4309 217.824C14.9829 218.016 14.4815 218.112 13.9269 218.112ZM13.9269 217.056C14.3109 217.056 14.6575 216.992 14.9669 216.864C15.2869 216.725 15.5535 216.496 15.7669 216.176C15.9909 215.856 16.1615 215.429 16.2789 214.896C16.3962 214.363 16.4549 213.701 16.4549 212.912V211.888C16.4549 211.099 16.3962 210.443 16.2789 209.92C16.1615 209.387 15.9909 208.96 15.7669 208.64C15.5429 208.32 15.2762 208.091 14.9669 207.952C14.6575 207.813 14.3109 207.744 13.9269 207.744C13.5429 207.744 13.1909 207.813 12.8709 207.952C12.5615 208.08 12.2949 208.304 12.0709 208.624C11.8575 208.944 11.6922 209.371 11.5749 209.904C11.4575 210.437 11.3989 211.099 11.3989 211.888V212.912C11.3989 213.701 11.4575 214.363 11.5749 214.896C11.6922 215.419 11.8629 215.84 12.0869 216.16C12.3109 216.48 12.5775 216.709 12.8869 216.848C13.1962 216.987 13.5429 217.056 13.9269 217.056Z" fill="#3C455E"/>
<path d="M4.88 268.112C4.31467 268.112 3.80267 268.021 3.344 267.84C2.896 267.648 2.512 267.344 2.192 266.928C1.872 266.512 1.62667 265.979 1.456 265.328C1.28533 264.667 1.2 263.861 1.2 262.912V261.888C1.2 260.949 1.28533 260.155 1.456 259.504C1.63733 258.843 1.888 258.304 2.208 257.888C2.528 257.472 2.912 257.168 3.36 256.976C3.81867 256.784 4.32533 256.688 4.88 256.688C5.43467 256.688 5.936 256.784 6.384 256.976C6.84267 257.157 7.232 257.456 7.552 257.872C7.872 258.288 8.11733 258.827 8.288 259.488C8.46933 260.149 8.56 260.949 8.56 261.888V262.912C8.56 263.851 8.46933 264.651 8.288 265.312C8.11733 265.963 7.872 266.496 7.552 266.912C7.232 267.328 6.84267 267.632 6.384 267.824C5.936 268.016 5.43467 268.112 4.88 268.112ZM4.88 267.056C5.264 267.056 5.61067 266.992 5.92 266.864C6.24 266.725 6.50667 266.496 6.72 266.176C6.944 265.856 7.11467 265.429 7.232 264.896C7.34933 264.363 7.408 263.701 7.408 262.912V261.888C7.408 261.099 7.34933 260.443 7.232 259.92C7.11467 259.387 6.944 258.96 6.72 258.64C6.496 258.32 6.22933 258.091 5.92 257.952C5.61067 257.813 5.264 257.744 4.88 257.744C4.496 257.744 4.144 257.813 3.824 257.952C3.51467 258.08 3.248 258.304 3.024 258.624C2.81067 258.944 2.64533 259.371 2.528 259.904C2.41067 260.437 2.352 261.099 2.352 261.888V262.912C2.352 263.701 2.41067 264.363 2.528 264.896C2.64533 265.419 2.816 265.84 3.04 266.16C3.264 266.48 3.53067 266.709 3.84 266.848C4.14933 266.987 4.496 267.056 4.88 267.056Z" fill="#3C455E"/>
<rect x="70" width="1" height="245" fill="#E2E6F0"/>
<path d="M61.6978 256.8H70.0178V268H68.8978V257.824H62.8178V268H61.6978V256.8ZM72.8209 260H73.8769V263.44H78.3249V260H79.3809V268H78.3249V264.4H73.8769V268H72.8209V260Z" fill="#3C455E"/>
<rect x="184" width="1" height="245" fill="#E2E6F0"/>
<path d="M177.495 256.8H181.015C182.295 256.8 183.228 257.067 183.815 257.6C184.401 258.123 184.695 258.848 184.695 259.776C184.695 260.331 184.561 260.811 184.295 261.216C184.039 261.621 183.665 261.936 183.175 262.16V262.192C183.783 262.405 184.241 262.741 184.551 263.2C184.86 263.648 185.015 264.203 185.015 264.864C185.015 265.877 184.721 266.656 184.135 267.2C183.548 267.733 182.615 268 181.335 268H177.495V256.8ZM178.615 257.824V261.728H180.935C181.873 261.728 182.54 261.557 182.935 261.216C183.34 260.864 183.543 260.384 183.543 259.776C183.543 259.168 183.34 258.693 182.935 258.352C182.54 258 181.873 257.824 180.935 257.824H178.615ZM178.615 262.752V266.976H181.255C182.193 266.976 182.86 266.8 183.255 266.448C183.66 266.085 183.863 265.557 183.863 264.864C183.863 264.171 183.66 263.648 183.255 263.296C182.86 262.933 182.193 262.752 181.255 262.752H178.615ZM188.89 260.96H186.218V260H192.618V260.96H189.946V268H188.89V260.96Z" fill="#3C455E"/>
<rect x="297.5" width="1" height="245" fill="#E2E6F0"/>
<path d="M293.678 268.112C293.006 268.112 292.393 267.995 291.838 267.76C291.283 267.525 290.803 267.184 290.398 266.736C289.993 266.277 289.678 265.717 289.454 265.056C289.23 264.384 289.118 263.616 289.118 262.752V261.888C289.118 261.067 289.23 260.336 289.454 259.696C289.678 259.045 289.993 258.501 290.398 258.064C290.803 257.616 291.283 257.275 291.838 257.04C292.403 256.805 293.017 256.688 293.678 256.688C294.286 256.688 294.83 256.779 295.31 256.96C295.801 257.131 296.227 257.365 296.59 257.664C296.953 257.963 297.241 258.315 297.454 258.72C297.678 259.115 297.833 259.541 297.918 260H296.734C296.649 259.68 296.521 259.381 296.35 259.104C296.19 258.827 295.982 258.587 295.726 258.384C295.47 258.171 295.171 258.005 294.83 257.888C294.489 257.771 294.105 257.712 293.678 257.712C293.187 257.712 292.734 257.803 292.318 257.984C291.902 258.165 291.539 258.432 291.23 258.784C290.931 259.136 290.697 259.573 290.526 260.096C290.355 260.608 290.27 261.205 290.27 261.888V262.752C290.27 263.467 290.355 264.096 290.526 264.64C290.707 265.184 290.947 265.637 291.246 266C291.555 266.363 291.918 266.635 292.334 266.816C292.75 266.997 293.198 267.088 293.678 267.088C294.542 267.088 295.225 266.859 295.726 266.4C296.238 265.941 296.574 265.355 296.734 264.64H297.918C297.833 265.141 297.678 265.605 297.454 266.032C297.241 266.448 296.953 266.811 296.59 267.12C296.227 267.429 295.801 267.675 295.31 267.856C294.83 268.027 294.286 268.112 293.678 268.112ZM300.157 260H300.989L301.117 261.2H301.149C301.501 260.741 301.89 260.411 302.317 260.208C302.744 259.995 303.245 259.888 303.821 259.888C304.29 259.888 304.722 259.973 305.117 260.144C305.512 260.304 305.848 260.549 306.125 260.88C306.413 261.2 306.637 261.6 306.797 262.08C306.957 262.56 307.037 263.109 307.037 263.728V264.272C307.037 264.891 306.957 265.44 306.797 265.92C306.637 266.389 306.413 266.789 306.125 267.12C305.837 267.44 305.496 267.685 305.101 267.856C304.706 268.027 304.28 268.112 303.821 268.112C302.669 268.112 301.81 267.701 301.245 266.88H301.213V271.2H300.157V260ZM303.581 267.152C304.285 267.152 304.856 266.917 305.293 266.448C305.73 265.968 305.949 265.243 305.949 264.272V263.728C305.949 262.779 305.725 262.064 305.277 261.584C304.84 261.093 304.274 260.848 303.581 260.848C302.877 260.848 302.306 261.088 301.869 261.568C301.432 262.037 301.213 262.757 301.213 263.728V264.272C301.213 265.221 301.432 265.941 301.869 266.432C302.317 266.912 302.888 267.152 303.581 267.152Z" fill="#3C455E"/>
<rect x="411.5" width="1" height="245" fill="#E2E6F0"/>
<path d="M408.238 263.872C407.598 263.872 407.059 263.808 406.622 263.68C406.184 263.552 405.822 263.387 405.534 263.184C405.256 262.981 405.038 262.747 404.878 262.48C404.728 262.213 404.616 261.941 404.542 261.664C404.467 261.376 404.424 261.099 404.414 260.832C404.403 260.555 404.398 260.304 404.398 260.08V256.8H405.518V260C405.518 260.299 405.534 260.613 405.566 260.944C405.598 261.275 405.699 261.584 405.87 261.872C406.04 262.149 406.307 262.384 406.67 262.576C407.043 262.757 407.566 262.848 408.238 262.848C409.187 262.848 410.094 262.709 410.958 262.432V256.8H412.078V268H410.958V263.488C410.499 263.616 410.035 263.712 409.566 263.776C409.107 263.84 408.664 263.872 408.238 263.872ZM416.508 260.96H413.836V260H420.236V260.96H417.564V268H416.508V260.96Z" fill="#3C455E"/>
<rect x="525" width="1" height="245" fill="#E2E6F0"/>
<path d="M517.815 256.8H526.135V268H525.015V257.824H518.935V268H517.815V256.8ZM530.57 260.96H527.898V260H534.298V260.96H531.626V268H530.57V260.96Z" fill="#3C455E"/>
<rect x="639.5" width="1" height="245" fill="#E2E6F0"/>
<path d="M635.803 268.112C635.131 268.112 634.518 267.995 633.963 267.76C633.408 267.525 632.928 267.184 632.523 266.736C632.118 266.277 631.803 265.717 631.579 265.056C631.355 264.384 631.243 263.616 631.243 262.752V261.888C631.243 261.067 631.355 260.336 631.579 259.696C631.803 259.045 632.118 258.501 632.523 258.064C632.928 257.616 633.408 257.275 633.963 257.04C634.528 256.805 635.142 256.688 635.803 256.688C636.411 256.688 636.955 256.779 637.435 256.96C637.926 257.131 638.352 257.365 638.715 257.664C639.078 257.963 639.366 258.315 639.579 258.72C639.803 259.115 639.958 259.541 640.043 260H638.859C638.774 259.68 638.646 259.381 638.475 259.104C638.315 258.827 638.107 258.587 637.851 258.384C637.595 258.171 637.296 258.005 636.955 257.888C636.614 257.771 636.23 257.712 635.803 257.712C635.312 257.712 634.859 257.803 634.443 257.984C634.027 258.165 633.664 258.432 633.355 258.784C633.056 259.136 632.822 259.573 632.651 260.096C632.48 260.608 632.395 261.205 632.395 261.888V262.752C632.395 263.467 632.48 264.096 632.651 264.64C632.832 265.184 633.072 265.637 633.371 266C633.68 266.363 634.043 266.635 634.459 266.816C634.875 266.997 635.323 267.088 635.803 267.088C636.667 267.088 637.35 266.859 637.851 266.4C638.363 265.941 638.699 265.355 638.859 264.64H640.043C639.958 265.141 639.803 265.605 639.579 266.032C639.366 266.448 639.078 266.811 638.715 267.12C638.352 267.429 637.926 267.675 637.435 267.856C636.955 268.027 636.411 268.112 635.803 268.112ZM645.418 268.112C644.33 268.112 643.466 267.765 642.826 267.072C642.197 266.368 641.882 265.275 641.882 263.792V262.928C641.882 262.32 641.909 261.744 641.962 261.2C642.015 260.656 642.106 260.16 642.234 259.712C642.373 259.264 642.559 258.869 642.794 258.528C643.029 258.176 643.333 257.888 643.706 257.664C644.037 257.472 644.362 257.344 644.682 257.28C645.013 257.205 645.359 257.152 645.722 257.12C646.085 257.088 646.474 257.051 646.89 257.008C647.306 256.955 647.77 256.848 648.282 256.688V257.664C647.877 257.813 647.482 257.909 647.098 257.952C646.725 257.995 646.362 258.032 646.01 258.064C645.669 258.096 645.343 258.139 645.034 258.192C644.725 258.245 644.442 258.352 644.186 258.512C643.791 258.768 643.493 259.131 643.29 259.6C643.098 260.069 642.97 260.683 642.906 261.44H642.938C643.215 260.992 643.578 260.651 644.026 260.416C644.485 260.171 645.013 260.048 645.61 260.048C646.09 260.048 646.533 260.133 646.938 260.304C647.343 260.475 647.69 260.72 647.978 261.04C648.277 261.36 648.506 261.755 648.666 262.224C648.837 262.693 648.922 263.221 648.922 263.808V264.352C648.922 264.939 648.837 265.467 648.666 265.936C648.495 266.395 648.255 266.789 647.946 267.12C647.647 267.44 647.279 267.685 646.842 267.856C646.415 268.027 645.941 268.112 645.418 268.112ZM645.418 267.152C646.143 267.152 646.725 266.917 647.162 266.448C647.61 265.968 647.834 265.269 647.834 264.352V263.808C647.834 262.891 647.61 262.197 647.162 261.728C646.725 261.248 646.143 261.008 645.418 261.008C644.671 261.008 644.074 261.243 643.626 261.712C643.189 262.181 642.97 262.88 642.97 263.808V264.352C642.97 265.259 643.194 265.952 643.642 266.432C644.09 266.912 644.682 267.152 645.418 267.152Z" fill="#3C455E"/>
<rect x="753.5" width="1" height="245" fill="#E2E6F0"/>
<path d="M746.44 256.8H749.96C751.24 256.8 752.173 257.067 752.76 257.6C753.347 258.123 753.64 258.848 753.64 259.776C753.64 260.331 753.507 260.811 753.24 261.216C752.984 261.621 752.611 261.936 752.12 262.16V262.192C752.728 262.405 753.187 262.741 753.496 263.2C753.805 263.648 753.96 264.203 753.96 264.864C753.96 265.877 753.667 266.656 753.08 267.2C752.493 267.733 751.56 268 750.28 268H746.44V256.8ZM747.56 257.824V261.728H749.88C750.819 261.728 751.485 261.557 751.88 261.216C752.285 260.864 752.488 260.384 752.488 259.776C752.488 259.168 752.285 258.693 751.88 258.352C751.485 258 750.819 257.824 749.88 257.824H747.56ZM747.56 262.752V266.976H750.2C751.139 266.976 751.805 266.8 752.2 266.448C752.605 266.085 752.808 265.557 752.808 264.864C752.808 264.171 752.605 263.648 752.2 263.296C751.805 262.933 751.139 262.752 750.2 262.752H747.56ZM759.162 268.112C758.661 268.112 758.202 268.032 757.786 267.872C757.37 267.701 757.013 267.451 756.714 267.12C756.426 266.789 756.202 266.379 756.042 265.888C755.882 265.397 755.802 264.832 755.802 264.192V263.648C755.802 263.051 755.882 262.523 756.042 262.064C756.213 261.595 756.442 261.2 756.73 260.88C757.029 260.56 757.381 260.315 757.786 260.144C758.202 259.973 758.661 259.888 759.162 259.888C759.631 259.888 760.053 259.952 760.426 260.08C760.799 260.197 761.119 260.368 761.386 260.592C761.653 260.805 761.866 261.056 762.026 261.344C762.186 261.621 762.298 261.92 762.362 262.24H761.274C761.157 261.845 760.938 261.515 760.618 261.248C760.298 260.981 759.839 260.848 759.242 260.848C758.559 260.848 757.994 261.088 757.546 261.568C757.109 262.048 756.89 262.741 756.89 263.648V264.192C756.89 265.173 757.114 265.915 757.562 266.416C758.01 266.907 758.57 267.152 759.242 267.152C759.839 267.152 760.298 267.013 760.618 266.736C760.938 266.459 761.157 266.08 761.274 265.6H762.362C762.298 265.963 762.186 266.299 762.026 266.608C761.866 266.907 761.653 267.168 761.386 267.392C761.119 267.616 760.799 267.792 760.426 267.92C760.053 268.048 759.631 268.112 759.162 268.112Z" fill="#3C455E"/>
<rect x="63" y="245" width="697" height="1" fill="#E2E6F0"/>
</svg>
