<svg width="180" height="44" viewBox="0 0 180 44" fill="none" xmlns="http://www.w3.org/2000/svg">
<path d="M0 0H17.1322V3.30184H10.4351V21.8046H6.69713V3.30184H0V0Z" fill="white"/>
<path d="M23.4378 22.085C21.4857 22.085 19.9698 21.4724 18.89 20.2471V28.0345H15.2766V6.22989H18.1112L18.4539 8.34805C18.9938 7.53817 19.6791 6.93595 20.5097 6.54139C21.3611 6.14683 22.3372 5.94955 23.4378 5.94955C24.3307 5.94955 25.151 6.11568 25.8986 6.44794C26.6669 6.75943 27.3211 7.23706 27.861 7.88081C28.4009 8.5038 28.8266 9.29292 29.1381 10.2482C29.4496 11.1827 29.6054 12.2729 29.6054 13.5189V14.5156C29.6054 15.7616 29.4496 16.8519 29.1381 17.7863C28.8266 18.7208 28.3905 19.5099 27.8298 20.1537C27.2899 20.7974 26.6462 21.2855 25.8986 21.6177C25.151 21.9292 24.3307 22.085 23.4378 22.085ZM22.3475 18.7208C23.4482 18.7208 24.2996 18.3886 24.9018 17.724C25.504 17.0595 25.8051 15.9901 25.8051 14.5156V13.5189C25.8051 12.086 25.4936 11.0269 24.8706 10.3416C24.2477 9.65633 23.4066 9.31369 22.3475 9.31369C21.3508 9.31369 20.5305 9.65633 19.8867 10.3416C19.2637 11.0269 18.9315 12.0237 18.89 13.332V14.5156C18.89 15.8862 19.2118 16.9349 19.8556 17.6617C20.5201 18.3678 21.3508 18.7208 22.3475 18.7208Z" fill="white"/>
<path d="M36.7563 22.085C35.0743 22.085 33.7971 21.6696 32.925 20.839C32.0528 20.0083 31.6167 18.8558 31.6167 17.3814C31.6167 16.5715 31.7413 15.8447 31.9905 15.2009C32.2604 14.5364 32.6758 13.9861 33.2365 13.55C33.8179 13.0932 34.5551 12.7505 35.4481 12.5221C36.3618 12.2729 37.4728 12.1483 38.7811 12.1483H41.3976V11.2138C41.3976 10.4662 41.1899 9.90552 40.7746 9.53173C40.3801 9.13717 39.7155 8.93989 38.7811 8.93989C37.9089 8.93989 37.2755 9.10602 36.8809 9.43828C36.4864 9.77055 36.2476 10.2066 36.1645 10.7466H32.2397C32.3227 9.35522 32.8834 8.21307 33.9217 7.32012C34.9808 6.4064 36.6006 5.94955 38.7811 5.94955C40.8577 5.94955 42.4152 6.42717 43.4535 7.38242C44.4918 8.33767 45.0109 9.6148 45.0109 11.2138V21.8046H42.1763L41.8026 19.6553C41.2626 20.4444 40.5566 21.0466 39.6844 21.462C38.833 21.8773 37.857 22.085 36.7563 22.085ZM37.3793 19.0946C37.9608 19.0946 38.4903 19.0012 38.968 18.8143C39.4663 18.6066 39.8921 18.3366 40.2451 18.0044C40.5981 17.6514 40.8785 17.2568 41.0861 16.8207C41.2938 16.3846 41.3976 15.9174 41.3976 15.419V14.9517H38.7811C37.5351 14.9517 36.6629 15.1594 36.1645 15.5747C35.6661 15.9901 35.4169 16.5507 35.4169 17.2568C35.4169 17.8175 35.583 18.264 35.9153 18.5962C36.2683 18.9285 36.7563 19.0946 37.3793 19.0946Z" fill="white"/>
<path d="M59.2939 15.4501H52.5034V21.8046H48.89V6.22989H52.5034V12.2729H59.2939V6.22989H62.9073V21.8046H59.2939V15.4501Z" fill="white"/>
<path d="M73.3448 22.085C72.2234 22.085 71.2058 21.9188 70.2921 21.5866C69.3992 21.2335 68.6308 20.7352 67.9871 20.0914C67.3641 19.4269 66.8761 18.6274 66.523 17.6929C66.1908 16.7584 66.0247 15.6993 66.0247 14.5156V13.5189C66.0247 12.3559 66.1908 11.3072 66.523 10.3728C66.8761 9.43828 67.3745 8.64916 68.0182 8.00541C68.662 7.34089 69.4303 6.83211 70.3233 6.47909C71.237 6.12606 72.2442 5.94955 73.3448 5.94955C75.3176 5.94955 76.8439 6.43755 77.9238 7.41357C79.0244 8.38959 79.7304 9.65633 80.0419 11.2138H76.1794C76.0132 10.6531 75.6706 10.1963 75.1514 9.84323C74.6323 9.4902 73.9781 9.31369 73.189 9.31369C72.7322 9.31369 72.2961 9.39675 71.8808 9.56288C71.4862 9.70825 71.1332 9.95744 70.8217 10.3105C70.5102 10.6427 70.261 11.0788 70.0741 11.6187C69.908 12.1379 69.8249 12.7713 69.8249 13.5189V14.5156C69.8249 15.2425 69.9183 15.8758 70.1052 16.4158C70.2921 16.9349 70.5413 17.371 70.8528 17.724C71.1643 18.0563 71.5173 18.3055 71.9119 18.4716C72.3272 18.6378 72.7529 18.7208 73.189 18.7208C74.082 18.7208 74.7569 18.5235 75.2137 18.129C75.6914 17.7344 76.0132 17.2464 76.1794 16.665H80.0419C79.7304 18.3055 79.0244 19.6242 77.9238 20.6209C76.8439 21.597 75.3176 22.085 73.3448 22.085Z" fill="white"/>
<path d="M89.0716 22.085C87.9502 22.085 86.9327 21.9188 86.019 21.5866C85.126 21.2335 84.3576 20.7352 83.7139 20.0914C83.0909 19.4269 82.6029 18.6274 82.2499 17.6929C81.9176 16.7584 81.7515 15.6993 81.7515 14.5156V13.5189C81.7515 12.3559 81.9176 11.3072 82.2499 10.3728C82.6029 9.43828 83.1013 8.64916 83.745 8.00541C84.3888 7.34089 85.1572 6.83211 86.0501 6.47909C86.9638 6.12606 87.971 5.94955 89.0716 5.94955C91.0444 5.94955 92.5707 6.43755 93.6506 7.41357C94.7512 8.38959 95.4572 9.65633 95.7687 11.2138H91.9062C91.7401 10.6531 91.3974 10.1963 90.8783 9.84323C90.3591 9.4902 89.705 9.31369 88.9158 9.31369C88.459 9.31369 88.0229 9.39675 87.6076 9.56288C87.213 9.70825 86.86 9.95744 86.5485 10.3105C86.237 10.6427 85.9878 11.0788 85.8009 11.6187C85.6348 12.1379 85.5517 12.7713 85.5517 13.5189V14.5156C85.5517 15.2425 85.6452 15.8758 85.832 16.4158C86.0189 16.9349 86.2682 17.371 86.5796 17.724C86.8911 18.0563 87.2442 18.3055 87.6387 18.4716C88.054 18.6378 88.4798 18.7208 88.9158 18.7208C89.8088 18.7208 90.4837 18.5235 90.9406 18.129C91.4182 17.7344 91.7401 17.2464 91.9062 16.665H95.7687C95.4572 18.3055 94.7512 19.6242 93.6506 20.6209C92.5707 21.597 91.0444 22.085 89.0716 22.085Z" fill="white"/>
<path d="M104.798 22.085C103.677 22.085 102.67 21.9188 101.777 21.5866C100.884 21.2335 100.116 20.7352 99.4719 20.0914C98.8281 19.4269 98.3297 18.6274 97.9767 17.6929C97.6444 16.7584 97.4783 15.6993 97.4783 14.5156V13.5189C97.4783 12.3352 97.6444 11.2761 97.9767 10.3416C98.3297 9.40714 98.8281 8.61802 99.4719 7.97426C100.116 7.30974 100.884 6.81135 101.777 6.47909C102.67 6.12606 103.677 5.94955 104.798 5.94955C107.062 5.94955 108.848 6.64522 110.156 8.03656C111.464 9.4279 112.119 11.4215 112.119 14.0173V15.2321H101.092C101.195 16.5404 101.559 17.4852 102.182 18.0667C102.805 18.6274 103.677 18.9077 104.798 18.9077C105.899 18.9077 106.699 18.7208 107.197 18.347C107.716 17.9525 108.059 17.4956 108.225 16.9764H111.963C111.797 17.7033 111.537 18.3782 111.184 19.0012C110.831 19.6242 110.364 20.1641 109.782 20.6209C109.201 21.0778 108.495 21.4412 107.664 21.7112C106.834 21.9604 105.878 22.085 104.798 22.085ZM104.798 9.12679C103.739 9.12679 102.909 9.38637 102.306 9.90553C101.704 10.4247 101.32 11.245 101.154 12.3663H108.443C108.298 11.2034 107.913 10.3728 107.29 9.87438C106.688 9.37599 105.858 9.12679 104.798 9.12679Z" fill="white"/>
<path d="M123.396 22.085C121.444 22.085 119.928 21.4724 118.848 20.2471V28.0345H115.235V6.22989H118.069L118.412 8.34805C118.952 7.53817 119.637 6.93595 120.468 6.54139C121.319 6.14683 122.295 5.94955 123.396 5.94955C124.289 5.94955 125.109 6.11568 125.857 6.44794C126.625 6.75943 127.279 7.23706 127.819 7.88081C128.359 8.5038 128.785 9.29292 129.096 10.2482C129.408 11.1827 129.563 12.2729 129.563 13.5189V14.5156C129.563 15.7616 129.408 16.8519 129.096 17.7863C128.785 18.7208 128.349 19.5099 127.788 20.1537C127.248 20.7974 126.604 21.2855 125.857 21.6177C125.109 21.9292 124.289 22.085 123.396 22.085ZM122.306 18.7208C123.406 18.7208 124.258 18.3886 124.86 17.724C125.462 17.0595 125.763 15.9901 125.763 14.5156V13.5189C125.763 12.086 125.452 11.0269 124.829 10.3416C124.206 9.65633 123.365 9.31369 122.306 9.31369C121.309 9.31369 120.489 9.65633 119.845 10.3416C119.222 11.0269 118.89 12.0237 118.848 13.332V14.5156C118.848 15.8862 119.17 16.9349 119.814 17.6617C120.478 18.3678 121.309 18.7208 122.306 18.7208Z" fill="white"/>
<path d="M132.665 6.22989H138.739C139.902 6.22989 140.888 6.33372 141.698 6.54139C142.508 6.74905 143.162 7.05016 143.661 7.44472C144.18 7.81851 144.554 8.27537 144.782 8.8153C145.011 9.35522 145.125 9.95744 145.125 10.622C145.125 11.245 144.969 11.8264 144.658 12.3663C144.346 12.9063 143.858 13.3631 143.194 13.7369C144.086 14.0899 144.73 14.5779 145.125 15.2009C145.54 15.8239 145.748 16.5092 145.748 17.2568C145.748 17.9628 145.634 18.5962 145.405 19.1569C145.177 19.7176 144.803 20.1952 144.284 20.5898C143.785 20.9843 143.131 21.2855 142.321 21.4931C141.511 21.7008 140.525 21.8046 139.362 21.8046H132.665V6.22989ZM136.154 15.2632V18.9389H139.362C140.317 18.9389 140.982 18.7831 141.356 18.4716C141.75 18.1394 141.948 17.6825 141.948 17.101C141.948 16.5196 141.75 16.0731 141.356 15.7616C140.982 15.4294 140.317 15.2632 139.362 15.2632H136.154ZM136.154 9.09564V12.4598H138.739C139.736 12.4598 140.411 12.3144 140.764 12.0237C141.138 11.733 141.325 11.3176 141.325 10.7777C141.325 10.2378 141.138 9.82246 140.764 9.53173C140.411 9.241 139.736 9.09564 138.739 9.09564H136.154Z" fill="white"/>
<path d="M159.252 10.8089L157.85 13.7058L153.396 21.8046H148.848V6.22989H152.461V17.2256L153.863 14.3287L158.318 6.22989H162.865V21.8046H159.252V10.8089Z" fill="white"/>
<path d="M173.303 22.085C172.181 22.085 171.164 21.9188 170.25 21.5866C169.357 21.2335 168.589 20.7352 167.945 20.0914C167.322 19.4269 166.834 18.6274 166.481 17.6929C166.149 16.7584 165.983 15.6993 165.983 14.5156V13.5189C165.983 12.3559 166.149 11.3072 166.481 10.3728C166.834 9.43828 167.333 8.64916 167.976 8.00541C168.62 7.34089 169.388 6.83211 170.281 6.47909C171.195 6.12606 172.202 5.94955 173.303 5.94955C175.276 5.94955 176.802 6.43755 177.882 7.41357C178.982 8.38959 179.689 9.65633 180 11.2138H176.137C175.971 10.6531 175.629 10.1963 175.11 9.84323C174.59 9.4902 173.936 9.31369 173.147 9.31369C172.69 9.31369 172.254 9.39675 171.839 9.56288C171.444 9.70825 171.091 9.95744 170.78 10.3105C170.468 10.6427 170.219 11.0788 170.032 11.6187C169.866 12.1379 169.783 12.7713 169.783 13.5189V14.5156C169.783 15.2425 169.876 15.8758 170.063 16.4158C170.25 16.9349 170.499 17.371 170.811 17.724C171.122 18.0563 171.475 18.3055 171.87 18.4716C172.285 18.6378 172.711 18.7208 173.147 18.7208C174.04 18.7208 174.715 18.5235 175.172 18.129C175.649 17.7344 175.971 17.2464 176.137 16.665H180C179.689 18.3055 178.982 19.6242 177.882 20.6209C176.802 21.597 175.276 22.085 173.303 22.085Z" fill="white"/>
<path d="M8.14699 41.4242L6.03516 36.1969H7.05971L8.64881 40.2429L10.1543 36.1969H11.1579L8.34563 43.5152H7.34199L8.14699 41.4242Z" fill="#55BC7E"/>
<path d="M15.4394 37.0542H13.0349V41.4242H12.0939V36.1969H16.3803V41.4242H15.4394V37.0542Z" fill="#55BC7E"/>
<path d="M20.4741 41.5079C19.7841 41.5079 19.2544 41.2814 18.885 40.8283V43.5152H17.944V36.1969H18.6759L18.77 36.9497C18.9512 36.6709 19.1881 36.4618 19.4809 36.3224C19.7736 36.183 20.1082 36.1133 20.4845 36.1133C20.7772 36.1133 21.0491 36.169 21.3 36.2806C21.5579 36.3851 21.7774 36.5454 21.9586 36.7615C22.1398 36.9706 22.2827 37.2319 22.3873 37.5456C22.4918 37.8522 22.5441 38.2077 22.5441 38.6119V39.0092C22.5441 39.4135 22.4918 39.7724 22.3873 40.086C22.2827 40.3927 22.1364 40.6541 21.9482 40.8701C21.767 41.0792 21.5474 41.2395 21.2895 41.3511C21.0386 41.4556 20.7668 41.5079 20.4741 41.5079ZM20.2232 40.6088C20.6413 40.6088 20.9689 40.4798 21.2059 40.222C21.4429 39.9641 21.5613 39.5598 21.5613 39.0092V38.6119C21.5613 38.0683 21.4429 37.6675 21.2059 37.4097C20.9689 37.1448 20.6413 37.0124 20.2232 37.0124C19.8468 37.0124 19.5331 37.1413 19.2822 37.3992C19.0313 37.6571 18.8989 38.0369 18.885 38.5388V39.0092C18.885 39.525 19.0104 39.9223 19.2613 40.201C19.5122 40.4729 19.8328 40.6088 20.2232 40.6088Z" fill="#55BC7E"/>
<path d="M25.101 41.5079C24.5573 41.5079 24.1426 41.372 23.8569 41.1001C23.5711 40.8214 23.4282 40.4415 23.4282 39.9606C23.4282 39.6957 23.4701 39.4588 23.5537 39.2497C23.6373 39.0336 23.7698 38.8524 23.951 38.706C24.1391 38.5597 24.3761 38.4481 24.6619 38.3715C24.9546 38.2948 25.3101 38.2565 25.7283 38.2565H26.7737V37.8697C26.7737 37.5769 26.6866 37.3504 26.5124 37.1901C26.3451 37.0298 26.0837 36.9497 25.7283 36.9497C25.3728 36.9497 25.1149 37.0159 24.9546 37.1483C24.8013 37.2807 24.7107 37.4515 24.6828 37.6606H23.6373C23.6652 37.2145 23.8464 36.8451 24.181 36.5524C24.5225 36.2596 25.0382 36.1133 25.7283 36.1133C26.3834 36.1133 26.8783 36.2701 27.2128 36.5837C27.5474 36.8974 27.7146 37.326 27.7146 37.8697V41.4242H26.9828L26.8678 40.567C26.6796 40.8667 26.4322 41.1001 26.1255 41.2674C25.8258 41.4277 25.4843 41.5079 25.101 41.5079ZM25.2055 40.6715C25.4355 40.6715 25.6446 40.6332 25.8328 40.5565C26.028 40.4798 26.1952 40.3788 26.3346 40.2533C26.474 40.1209 26.582 39.9676 26.6587 39.7933C26.7354 39.6191 26.7737 39.4344 26.7737 39.2392V39.051H25.7283C25.2473 39.051 24.9058 39.1347 24.7037 39.3019C24.5085 39.4622 24.411 39.6748 24.411 39.9397C24.411 40.1627 24.4807 40.3404 24.6201 40.4729C24.7595 40.6053 24.9546 40.6715 25.2055 40.6715Z" fill="#55BC7E"/>
<path d="M29.2257 36.1969H31.212C31.916 36.1969 32.4213 36.3293 32.728 36.5942C33.0416 36.859 33.1984 37.211 33.1984 37.6501C33.1984 37.8662 33.1461 38.0648 33.0416 38.246C32.937 38.4272 32.7733 38.5806 32.5502 38.706C32.843 38.8245 33.059 38.9918 33.1984 39.2079C33.3378 39.4169 33.4075 39.6504 33.4075 39.9083C33.4075 40.3823 33.2507 40.7551 32.937 41.027C32.6304 41.2918 32.1251 41.4242 31.4211 41.4242H29.2257V36.1969ZM30.1666 39.166V40.567H31.4211C31.7975 40.567 32.0589 40.5077 32.2052 40.3892C32.3516 40.2638 32.4248 40.086 32.4248 39.856C32.4248 39.633 32.3516 39.4622 32.2052 39.3438C32.0589 39.2253 31.7975 39.166 31.4211 39.166H30.1666ZM30.1666 37.0542V38.3506H31.212C31.5954 38.3506 31.8567 38.2948 31.9961 38.1833C32.1425 38.0648 32.2157 37.9045 32.2157 37.7024C32.2157 37.5003 32.1425 37.3434 31.9961 37.2319C31.8567 37.1134 31.5954 37.0542 31.212 37.0542H30.1666Z" fill="#55BC7E"/>
<path d="M34.0299 40.6088H34.1867C34.2982 40.6088 34.4028 40.5809 34.5003 40.5251C34.6049 40.4694 34.6955 40.3718 34.7722 40.2324C34.8488 40.093 34.9081 39.9048 34.9499 39.6679C34.9987 39.4309 35.0231 39.1312 35.0231 38.7688V36.1969H38.7867V41.4242H37.8458V37.0542H35.964V38.7688C35.964 39.2845 35.9222 39.7166 35.8385 40.0651C35.7549 40.4136 35.6364 40.6959 35.4831 40.912C35.3297 41.128 35.1416 41.2814 34.9185 41.372C34.7025 41.4626 34.4585 41.5079 34.1867 41.5079H34.0299V40.6088Z" fill="#55BC7E"/>
<path d="M42.3928 41.5079C42.0443 41.5079 41.7237 41.4521 41.4309 41.3406C41.1452 41.2221 40.8978 41.0548 40.6887 40.8388C40.4865 40.6227 40.3262 40.3613 40.2078 40.0547C40.0962 39.748 40.0405 39.3995 40.0405 39.0092V38.6119C40.0405 38.2286 40.0962 37.8836 40.2078 37.5769C40.3262 37.2703 40.49 37.0089 40.6991 36.7928C40.9082 36.5768 41.1556 36.4095 41.4414 36.291C41.7272 36.1725 42.0443 36.1133 42.3928 36.1133C42.7413 36.1133 43.0584 36.1725 43.3441 36.291C43.6369 36.4025 43.8843 36.5663 44.0864 36.7824C44.2955 36.9984 44.4558 37.2633 44.5673 37.5769C44.6858 37.8836 44.7451 38.2286 44.7451 38.6119V39.1138H41.0232C41.0372 39.6226 41.1696 40.0059 41.4205 40.2638C41.6714 40.5217 41.9955 40.6506 42.3928 40.6506C42.804 40.6506 43.1037 40.5774 43.2919 40.431C43.4801 40.2847 43.6264 40.0756 43.731 39.8038H44.6928C44.5882 40.3195 44.3548 40.7342 43.9923 41.0479C43.6299 41.3545 43.0967 41.5079 42.3928 41.5079ZM42.3928 36.9706C42.0164 36.9706 41.7062 37.0821 41.4623 37.3051C41.2253 37.5212 41.0825 37.8522 41.0337 38.2983H43.7414C43.6996 37.8383 43.5637 37.5037 43.3337 37.2947C43.1037 37.0786 42.7901 36.9706 42.3928 36.9706Z" fill="#55BC7E"/>
<path d="M49.5546 39.1869H46.9409V41.4242H46V36.1969H46.9409V38.3297H49.5546V36.1969H50.4955V41.4242H49.5546V39.1869Z" fill="#55BC7E"/>
<path d="M55.6191 37.3156L55.0441 38.3924L53.2773 41.4242H52.0645V36.1969H53.0054V40.3056L53.5805 39.2288L55.3473 36.1969H56.56V41.4242H55.6191V37.3156Z" fill="#55BC7E"/>
<path d="M60.1677 41.5079C59.8192 41.5079 59.4986 41.4521 59.2059 41.3406C58.9201 41.2221 58.6727 41.0548 58.4636 40.8388C58.2615 40.6227 58.1012 40.3613 57.9827 40.0547C57.8712 39.748 57.8154 39.3995 57.8154 39.0092V38.6119C57.8154 38.2286 57.8712 37.8836 57.9827 37.5769C58.1012 37.2703 58.2649 37.0089 58.474 36.7928C58.6831 36.5768 58.9306 36.4095 59.2163 36.291C59.5021 36.1725 59.8192 36.1133 60.1677 36.1133C60.5162 36.1133 60.8333 36.1725 61.1191 36.291C61.4118 36.4025 61.6592 36.5663 61.8613 36.7824C62.0704 36.9984 62.2307 37.2633 62.3423 37.5769C62.4607 37.8836 62.52 38.2286 62.52 38.6119V39.1138H58.7981C58.8121 39.6226 58.9445 40.0059 59.1954 40.2638C59.4463 40.5217 59.7704 40.6506 60.1677 40.6506C60.5789 40.6506 60.8786 40.5774 61.0668 40.431C61.255 40.2847 61.4013 40.0756 61.5059 39.8038H62.4677C62.3632 40.3195 62.1297 40.7342 61.7672 41.0479C61.4048 41.3545 60.8716 41.5079 60.1677 41.5079ZM60.1677 36.9706C59.7913 36.9706 59.4812 37.0821 59.2372 37.3051C59.0003 37.5212 58.8574 37.8522 58.8086 38.2983H61.5163C61.4745 37.8383 61.3386 37.5037 61.1086 37.2947C60.8786 37.0786 60.565 36.9706 60.1677 36.9706Z" fill="#55BC7E"/>
<path d="M68.4795 41.5079C68.1101 41.5079 67.7756 41.4521 67.4759 41.3406C67.1832 41.2221 66.9322 41.0583 66.7232 40.8492C66.5141 40.6332 66.3538 40.3718 66.2422 40.0651C66.1307 39.7515 66.075 39.3995 66.075 39.0092V38.6119C66.075 38.2286 66.1307 37.8836 66.2422 37.5769C66.3607 37.2633 66.5245 36.9984 66.7336 36.7824C66.9427 36.5663 67.1936 36.4025 67.4863 36.291C67.786 36.1725 68.1171 36.1133 68.4795 36.1133C68.842 36.1133 69.1695 36.1725 69.4623 36.291C69.762 36.4025 70.0164 36.5663 70.2254 36.7824C70.4345 36.9915 70.5948 37.2528 70.7064 37.5665C70.8249 37.8731 70.8841 38.2216 70.8841 38.6119V39.0092C70.8841 39.3995 70.8249 39.748 70.7064 40.0547C70.5948 40.3613 70.4345 40.6227 70.2254 40.8388C70.0164 41.0548 69.762 41.2221 69.4623 41.3406C69.1695 41.4521 68.842 41.5079 68.4795 41.5079ZM68.4795 40.6088C68.9186 40.6088 69.2636 40.4763 69.5145 40.2115C69.7724 39.9397 69.9014 39.5389 69.9014 39.0092V38.6119C69.9014 38.0892 69.7724 37.6919 69.5145 37.4201C69.2636 37.1483 68.9186 37.0124 68.4795 37.0124C68.0404 37.0124 67.6919 37.1483 67.4341 37.4201C67.1832 37.685 67.0577 38.0822 67.0577 38.6119V39.0092C67.0577 39.5319 67.1832 39.9292 67.4341 40.201C67.6919 40.4729 68.0404 40.6088 68.4795 40.6088Z" fill="#55BC7E"/>
<path d="M75.0639 39.6365C74.9106 39.6713 74.7363 39.7027 74.5412 39.7306C74.353 39.7515 74.1439 39.7619 73.9139 39.7619C73.1751 39.7619 72.6419 39.6016 72.3143 39.281C71.9868 38.9604 71.823 38.4551 71.823 37.7651V36.1969H72.7639V37.7651C72.7639 37.9812 72.7813 38.1624 72.8162 38.3088C72.858 38.4551 72.9242 38.5736 73.0148 38.6642C73.1054 38.7478 73.2239 38.8106 73.3702 38.8524C73.5166 38.8872 73.6978 38.9047 73.9139 38.9047C74.1369 38.9047 74.346 38.8942 74.5412 38.8733C74.7433 38.8454 74.9175 38.8141 75.0639 38.7792V36.1969H76.0048V41.4242H75.0639V39.6365Z" fill="#55BC7E"/>
<path d="M79.6068 41.5079C79.2583 41.5079 78.9377 41.4521 78.6449 41.3406C78.3592 41.2221 78.1118 41.0548 77.9027 40.8388C77.7005 40.6227 77.5402 40.3613 77.4217 40.0547C77.3102 39.748 77.2545 39.3995 77.2545 39.0092V38.6119C77.2545 38.2286 77.3102 37.8836 77.4217 37.5769C77.5402 37.2703 77.704 37.0089 77.9131 36.7928C78.1222 36.5768 78.3696 36.4095 78.6554 36.291C78.9412 36.1725 79.2583 36.1133 79.6068 36.1133C79.9553 36.1133 80.2724 36.1725 80.5581 36.291C80.8509 36.4025 81.0983 36.5663 81.3004 36.7824C81.5095 36.9984 81.6698 37.2633 81.7813 37.5769C81.8998 37.8836 81.9591 38.2286 81.9591 38.6119V39.1138H78.2372C78.2512 39.6226 78.3836 40.0059 78.6345 40.2638C78.8854 40.5217 79.2095 40.6506 79.6068 40.6506C80.018 40.6506 80.3177 40.5774 80.5059 40.431C80.6941 40.2847 80.8404 40.0756 80.945 39.8038H81.9068C81.8022 40.3195 81.5687 40.7342 81.2063 41.0479C80.8439 41.3545 80.3107 41.5079 79.6068 41.5079ZM79.6068 36.9706C79.2304 36.9706 78.9202 37.0821 78.6763 37.3051C78.4393 37.5212 78.2964 37.8522 78.2477 38.2983H80.9554C80.9136 37.8383 80.7777 37.5037 80.5477 37.2947C80.3177 37.0786 80.004 36.9706 79.6068 36.9706Z" fill="#55BC7E"/>
<path d="M85.744 41.5079C85.054 41.5079 84.5243 41.2814 84.1549 40.8283V43.5152H83.214V36.1969H83.9458L84.0399 36.9497C84.2212 36.6709 84.4581 36.4618 84.7509 36.3224C85.0436 36.183 85.3781 36.1133 85.7545 36.1133C86.0472 36.1133 86.319 36.169 86.57 36.2806C86.8278 36.3851 87.0474 36.5454 87.2286 36.7615C87.4098 36.9706 87.5527 37.2319 87.6572 37.5456C87.7618 37.8522 87.8141 38.2077 87.8141 38.6119V39.0092C87.8141 39.4135 87.7618 39.7724 87.6572 40.086C87.5527 40.3927 87.4063 40.6541 87.2181 40.8701C87.0369 41.0792 86.8174 41.2395 86.5595 41.3511C86.3086 41.4556 86.0368 41.5079 85.744 41.5079ZM85.4931 40.6088C85.9113 40.6088 86.2389 40.4798 86.4759 40.222C86.7128 39.9641 86.8313 39.5598 86.8313 39.0092V38.6119C86.8313 38.0683 86.7128 37.6675 86.4759 37.4097C86.2389 37.1448 85.9113 37.0124 85.4931 37.0124C85.1168 37.0124 84.8031 37.1413 84.5522 37.3992C84.3013 37.6571 84.1689 38.0369 84.1549 38.5388V39.0092C84.1549 39.525 84.2804 39.9223 84.5313 40.201C84.7822 40.4729 85.1028 40.6088 85.4931 40.6088Z" fill="#55BC7E"/>
<path d="M91.1028 41.5079C90.7543 41.5079 90.4337 41.4521 90.141 41.3406C89.8552 41.2221 89.6078 41.0548 89.3987 40.8388C89.1965 40.6227 89.0362 40.3613 88.9178 40.0547C88.8062 39.748 88.7505 39.3995 88.7505 39.0092V38.6119C88.7505 38.2286 88.8062 37.8836 88.9178 37.5769C89.0362 37.2703 89.2 37.0089 89.4091 36.7928C89.6182 36.5768 89.8656 36.4095 90.1514 36.291C90.4372 36.1725 90.7543 36.1133 91.1028 36.1133C91.4513 36.1133 91.7684 36.1725 92.0541 36.291C92.3469 36.4025 92.5943 36.5663 92.7964 36.7824C93.0055 36.9984 93.1658 37.2633 93.2773 37.5769C93.3958 37.8836 93.4551 38.2286 93.4551 38.6119V39.1138H89.7332C89.7472 39.6226 89.8796 40.0059 90.1305 40.2638C90.3814 40.5217 90.7055 40.6506 91.1028 40.6506C91.514 40.6506 91.8137 40.5774 92.0019 40.431C92.1901 40.2847 92.3364 40.0756 92.441 39.8038H93.4028C93.2982 40.3195 93.0648 40.7342 92.7023 41.0479C92.3399 41.3545 91.8067 41.5079 91.1028 41.5079ZM91.1028 36.9706C90.7264 36.9706 90.4163 37.0821 90.1723 37.3051C89.9353 37.5212 89.7925 37.8522 89.7437 38.2983H92.4514C92.4096 37.8383 92.2737 37.5037 92.0437 37.2947C91.8137 37.0786 91.5001 36.9706 91.1028 36.9706Z" fill="#55BC7E"/>
<path d="M98.4762 41.4242H94.8693V42.7833H93.9284V40.567H94.4929C94.6045 40.4136 94.6951 40.2568 94.7648 40.0965C94.8414 39.9292 94.9007 39.7376 94.9425 39.5215C94.9843 39.3054 95.0122 39.058 95.0261 38.7792C95.047 38.4935 95.0575 38.1554 95.0575 37.7651V36.1969H98.7375V40.567H99.4171V42.7833H98.4762V41.4242ZM95.9775 37.7651C95.9775 38.1833 95.967 38.5422 95.9461 38.8419C95.9252 39.1416 95.8939 39.3995 95.852 39.6156C95.8102 39.8316 95.7579 40.0163 95.6952 40.1697C95.6395 40.316 95.5767 40.4485 95.507 40.567H97.7966V37.0542H95.9775V37.7651Z" fill="#55BC7E"/>
<path d="M100.144 37.9115C100.144 37.3609 100.315 36.9392 100.657 36.6465C100.998 36.3468 101.577 36.1969 102.392 36.1969H104.222V41.4242H103.281V39.6051H102.392C102.315 39.6051 102.239 39.6051 102.162 39.6051C102.092 39.6051 102.023 39.6016 101.953 39.5947L100.981 41.4242H99.9353L101.064 39.4065C100.73 39.2671 100.493 39.0719 100.353 38.821C100.214 38.5701 100.144 38.2669 100.144 37.9115ZM101.127 37.9115C101.127 38.1833 101.214 38.3924 101.389 38.5388C101.57 38.6782 101.904 38.7478 102.392 38.7478H103.281V37.0542H102.392C101.904 37.0542 101.57 37.1274 101.389 37.2737C101.214 37.4131 101.127 37.6257 101.127 37.9115Z" fill="#55BC7E"/>
<path d="M107.241 38.3924L106.728 37.2633V41.4242H105.787V36.1969H107.167L108.579 39.166L109.99 36.1969H111.328V41.4242H110.387V37.2528L109.865 38.3924L109.028 40.1697H108.087L107.241 38.3924Z" fill="#55BC7E"/>
<path d="M116.448 37.3156L115.873 38.3924L114.106 41.4242H112.893V36.1969H113.834V40.3056L114.409 39.2288L116.176 36.1969H117.389V41.4242H116.448V37.3156Z" fill="#55BC7E"/>
</svg>
