<svg width="180" height="40" viewBox="0 0 180 40" fill="none" xmlns="http://www.w3.org/2000/svg">
<path d="M0 0.742432H17.1322V4.04427H10.4351V22.547H6.69713V4.04427H0V0.742432Z" fill="#1C2644"/>
<path d="M23.4378 22.8274C21.4857 22.8274 19.9698 22.2148 18.89 20.9896V28.7769H15.2766V6.97232H18.1112L18.4539 9.09049C18.9938 8.2806 19.6791 7.67838 20.5097 7.28382C21.3611 6.88926 22.3372 6.69198 23.4378 6.69198C24.3307 6.69198 25.151 6.85811 25.8986 7.19037C26.6669 7.50186 27.3211 7.97949 27.861 8.62324C28.4009 9.24623 28.8266 10.0354 29.1381 10.9906C29.4496 11.9251 29.6054 13.0153 29.6054 14.2613V15.2581C29.6054 16.5041 29.4496 17.5943 29.1381 18.5288C28.8266 19.4633 28.3905 20.2524 27.8298 20.8961C27.2899 21.5399 26.6462 22.0279 25.8986 22.3601C25.151 22.6716 24.3307 22.8274 23.4378 22.8274ZM22.3475 19.4632C23.4482 19.4632 24.2996 19.131 24.9018 18.4665C25.504 17.8019 25.8051 16.7325 25.8051 15.2581V14.2613C25.8051 12.8284 25.4936 11.7693 24.8706 11.084C24.2477 10.3988 23.4066 10.0561 22.3475 10.0561C21.3508 10.0561 20.5305 10.3988 19.8867 11.084C19.2637 11.7693 18.9315 12.7661 18.89 14.0744V15.2581C18.89 16.6287 19.2118 17.6773 19.8556 18.4042C20.5201 19.1102 21.3508 19.4632 22.3475 19.4632Z" fill="#1C2644"/>
<path d="M36.7563 22.8274C35.0743 22.8274 33.7971 22.4121 32.925 21.5814C32.0528 20.7508 31.6167 19.5982 31.6167 18.1238C31.6167 17.3139 31.7413 16.5871 31.9905 15.9434C32.2604 15.2788 32.6758 14.7285 33.2365 14.2924C33.8179 13.8356 34.5551 13.4929 35.4481 13.2645C36.3618 13.0153 37.4728 12.8907 38.7811 12.8907H41.3976V11.9562C41.3976 11.2086 41.1899 10.648 40.7746 10.2742C40.3801 9.8796 39.7155 9.68232 38.7811 9.68232C37.9089 9.68232 37.2755 9.84845 36.8809 10.1807C36.4864 10.513 36.2476 10.9491 36.1645 11.489H32.2397C32.3227 10.0976 32.8834 8.9555 33.9217 8.06255C34.9808 7.14884 36.6006 6.69198 38.7811 6.69198C40.8577 6.69198 42.4152 7.1696 43.4535 8.12485C44.4918 9.0801 45.0109 10.3572 45.0109 11.9562V22.547H42.1763L41.8026 20.3977C41.2626 21.1869 40.5566 21.7891 39.6844 22.2044C38.833 22.6197 37.857 22.8274 36.7563 22.8274ZM37.3793 19.837C37.9608 19.837 38.4903 19.7436 38.968 19.5567C39.4663 19.349 39.8921 19.0791 40.2451 18.7468C40.5981 18.3938 40.8785 17.9992 41.0861 17.5631C41.2938 17.127 41.3976 16.6598 41.3976 16.1614V15.6942H38.7811C37.5351 15.6942 36.6629 15.9018 36.1645 16.3172C35.6661 16.7325 35.4169 17.2932 35.4169 17.9992C35.4169 18.5599 35.583 19.0064 35.9153 19.3387C36.2683 19.6709 36.7563 19.837 37.3793 19.837Z" fill="#1C2644"/>
<path d="M59.2939 16.1926H52.5034V22.547H48.89V6.97232H52.5034V13.0153H59.2939V6.97232H62.9073V22.547H59.2939V16.1926Z" fill="#1C2644"/>
<path d="M73.3448 22.8274C72.2234 22.8274 71.2058 22.6613 70.2921 22.329C69.3992 21.976 68.6308 21.4776 67.9871 20.8338C67.3641 20.1693 66.8761 19.3698 66.523 18.4353C66.1908 17.5008 66.0247 16.4418 66.0247 15.2581V14.2613C66.0247 13.0984 66.1908 12.0497 66.523 11.1152C66.8761 10.1807 67.3745 9.39159 68.0182 8.74784C68.662 8.08332 69.4303 7.57454 70.3233 7.22152C71.237 6.86849 72.2442 6.69198 73.3448 6.69198C75.3176 6.69198 76.8439 7.17999 77.9238 8.156C79.0244 9.13202 79.7304 10.3988 80.0419 11.9562H76.1794C76.0132 11.3955 75.6706 10.9387 75.1514 10.5857C74.6323 10.2326 73.9781 10.0561 73.189 10.0561C72.7322 10.0561 72.2961 10.1392 71.8808 10.3053C71.4862 10.4507 71.1332 10.6999 70.8217 11.0529C70.5102 11.3852 70.261 11.8213 70.0741 12.3612C69.908 12.8803 69.8249 13.5137 69.8249 14.2613V15.2581C69.8249 15.9849 69.9183 16.6183 70.1052 17.1582C70.2921 17.6773 70.5413 18.1134 70.8528 18.4665C71.1643 18.7987 71.5173 19.0479 71.9119 19.2141C72.3272 19.3802 72.7529 19.4632 73.189 19.4632C74.082 19.4632 74.7569 19.266 75.2137 18.8714C75.6914 18.4769 76.0132 17.9888 76.1794 17.4074H80.0419C79.7304 19.0479 79.0244 20.3666 77.9238 21.3634C76.8439 22.3394 75.3176 22.8274 73.3448 22.8274Z" fill="#1C2644"/>
<path d="M89.0716 22.8274C87.9502 22.8274 86.9327 22.6613 86.019 22.329C85.126 21.976 84.3576 21.4776 83.7139 20.8338C83.0909 20.1693 82.6029 19.3698 82.2499 18.4353C81.9176 17.5008 81.7515 16.4418 81.7515 15.2581V14.2613C81.7515 13.0984 81.9176 12.0497 82.2499 11.1152C82.6029 10.1807 83.1013 9.39159 83.745 8.74784C84.3888 8.08332 85.1572 7.57454 86.0501 7.22152C86.9638 6.86849 87.971 6.69198 89.0716 6.69198C91.0444 6.69198 92.5707 7.17999 93.6506 8.156C94.7512 9.13202 95.4572 10.3988 95.7687 11.9562H91.9062C91.7401 11.3955 91.3974 10.9387 90.8783 10.5857C90.3591 10.2326 89.705 10.0561 88.9158 10.0561C88.459 10.0561 88.0229 10.1392 87.6076 10.3053C87.213 10.4507 86.86 10.6999 86.5485 11.0529C86.237 11.3852 85.9878 11.8213 85.8009 12.3612C85.6348 12.8803 85.5517 13.5137 85.5517 14.2613V15.2581C85.5517 15.9849 85.6452 16.6183 85.832 17.1582C86.0189 17.6773 86.2682 18.1134 86.5796 18.4665C86.8911 18.7987 87.2442 19.0479 87.6387 19.2141C88.054 19.3802 88.4798 19.4632 88.9158 19.4632C89.8088 19.4632 90.4837 19.266 90.9406 18.8714C91.4182 18.4769 91.7401 17.9888 91.9062 17.4074H95.7687C95.4572 19.0479 94.7512 20.3666 93.6506 21.3634C92.5707 22.3394 91.0444 22.8274 89.0716 22.8274Z" fill="#1C2644"/>
<path d="M104.798 22.8274C103.677 22.8274 102.67 22.6613 101.777 22.329C100.884 21.976 100.116 21.4776 99.4719 20.8338C98.8281 20.1693 98.3297 19.3698 97.9767 18.4353C97.6444 17.5008 97.4783 16.4418 97.4783 15.2581V14.2613C97.4783 13.0776 97.6444 12.0185 97.9767 11.084C98.3297 10.1496 98.8281 9.36045 99.4719 8.71669C100.116 8.05217 100.884 7.55378 101.777 7.22152C102.67 6.86849 103.677 6.69198 104.798 6.69198C107.062 6.69198 108.848 7.38765 110.156 8.77899C111.464 10.1703 112.119 12.1639 112.119 14.7597V15.9745H101.092C101.195 17.2828 101.559 18.2277 102.182 18.8091C102.805 19.3698 103.677 19.6501 104.798 19.6501C105.899 19.6501 106.699 19.4633 107.197 19.0895C107.716 18.6949 108.059 18.238 108.225 17.7189H111.963C111.797 18.4457 111.537 19.1206 111.184 19.7436C110.831 20.3666 110.364 20.9065 109.782 21.3634C109.201 21.8202 108.495 22.1836 107.664 22.4536C106.834 22.7028 105.878 22.8274 104.798 22.8274ZM104.798 9.86922C103.739 9.86922 102.909 10.1288 102.306 10.648C101.704 11.1671 101.32 11.9874 101.154 13.1088H108.443C108.298 11.9459 107.913 11.1152 107.29 10.6168C106.688 10.1184 105.858 9.86922 104.798 9.86922Z" fill="#1C2644"/>
<path d="M123.396 22.8274C121.444 22.8274 119.928 22.2148 118.848 20.9896V28.7769H115.235V6.97232H118.069L118.412 9.09049C118.952 8.2806 119.637 7.67838 120.468 7.28382C121.319 6.88926 122.295 6.69198 123.396 6.69198C124.289 6.69198 125.109 6.85811 125.857 7.19037C126.625 7.50186 127.279 7.97949 127.819 8.62324C128.359 9.24623 128.785 10.0354 129.096 10.9906C129.408 11.9251 129.563 13.0153 129.563 14.2613V15.2581C129.563 16.5041 129.408 17.5943 129.096 18.5288C128.785 19.4633 128.349 20.2524 127.788 20.8961C127.248 21.5399 126.604 22.0279 125.857 22.3601C125.109 22.6716 124.289 22.8274 123.396 22.8274ZM122.306 19.4632C123.406 19.4632 124.258 19.131 124.86 18.4665C125.462 17.8019 125.763 16.7325 125.763 15.2581V14.2613C125.763 12.8284 125.452 11.7693 124.829 11.084C124.206 10.3988 123.365 10.0561 122.306 10.0561C121.309 10.0561 120.489 10.3988 119.845 11.084C119.222 11.7693 118.89 12.7661 118.848 14.0744V15.2581C118.848 16.6287 119.17 17.6773 119.814 18.4042C120.478 19.1102 121.309 19.4632 122.306 19.4632Z" fill="#1C2644"/>
<path d="M132.665 6.97232H138.739C139.902 6.97232 140.888 7.07615 141.698 7.28382C142.508 7.49148 143.162 7.79259 143.661 8.18715C144.18 8.56094 144.554 9.0178 144.782 9.55773C145.011 10.0977 145.125 10.6999 145.125 11.3644C145.125 11.9874 144.969 12.5688 144.658 13.1088C144.346 13.6487 143.858 14.1055 143.194 14.4793C144.086 14.8324 144.73 15.3204 145.125 15.9434C145.54 16.5664 145.748 17.2516 145.748 17.9992C145.748 18.7053 145.634 19.3387 145.405 19.8993C145.177 20.46 144.803 20.9377 144.284 21.3322C143.785 21.7268 143.131 22.0279 142.321 22.2355C141.511 22.4432 140.525 22.547 139.362 22.547H132.665V6.97232ZM136.154 16.0057V19.6813H139.362C140.317 19.6813 140.982 19.5255 141.356 19.2141C141.75 18.8818 141.948 18.4249 141.948 17.8435C141.948 17.262 141.75 16.8155 141.356 16.5041C140.982 16.1718 140.317 16.0057 139.362 16.0057H136.154ZM136.154 9.83807V13.2022H138.739C139.736 13.2022 140.411 13.0568 140.764 12.7661C141.138 12.4754 141.325 12.0601 141.325 11.5201C141.325 10.9802 141.138 10.5649 140.764 10.2742C140.411 9.98343 139.736 9.83807 138.739 9.83807H136.154Z" fill="#1C2644"/>
<path d="M159.252 11.5513L157.85 14.4482L153.396 22.547H148.848V6.97232H152.461V17.9681L153.863 15.0712L158.318 6.97232H162.865V22.547H159.252V11.5513Z" fill="#1C2644"/>
<path d="M173.303 22.8274C172.181 22.8274 171.164 22.6613 170.25 22.329C169.357 21.976 168.589 21.4776 167.945 20.8338C167.322 20.1693 166.834 19.3698 166.481 18.4353C166.149 17.5008 165.983 16.4418 165.983 15.2581V14.2613C165.983 13.0984 166.149 12.0497 166.481 11.1152C166.834 10.1807 167.333 9.39159 167.976 8.74784C168.62 8.08332 169.388 7.57454 170.281 7.22152C171.195 6.86849 172.202 6.69198 173.303 6.69198C175.276 6.69198 176.802 7.17999 177.882 8.156C178.982 9.13202 179.689 10.3988 180 11.9562H176.137C175.971 11.3955 175.629 10.9387 175.11 10.5857C174.59 10.2326 173.936 10.0561 173.147 10.0561C172.69 10.0561 172.254 10.1392 171.839 10.3053C171.444 10.4507 171.091 10.6999 170.78 11.0529C170.468 11.3852 170.219 11.8213 170.032 12.3612C169.866 12.8803 169.783 13.5137 169.783 14.2613V15.2581C169.783 15.9849 169.876 16.6183 170.063 17.1582C170.25 17.6773 170.499 18.1134 170.811 18.4665C171.122 18.7987 171.475 19.0479 171.87 19.2141C172.285 19.3802 172.711 19.4632 173.147 19.4632C174.04 19.4632 174.715 19.266 175.172 18.8714C175.649 18.4769 175.971 17.9888 176.137 17.4074H180C179.689 19.0479 178.982 20.3666 177.882 21.3634C176.802 22.3394 175.276 22.8274 173.303 22.8274Z" fill="#1C2644"/>
<path d="M8.14699 37.1669L6.03516 31.9396H7.05971L8.64881 35.9855L10.1543 31.9396H11.1579L8.34563 39.2578H7.34199L8.14699 37.1669Z" fill="#55BC7E"/>
<path d="M15.4394 32.7969H13.0349V37.1669H12.0939V31.9396H16.3803V37.1669H15.4394V32.7969Z" fill="#55BC7E"/>
<path d="M20.4741 37.2505C19.7841 37.2505 19.2544 37.024 18.885 36.571V39.2578H17.944V31.9396H18.6759L18.77 32.6923C18.9512 32.4135 19.1881 32.2044 19.4809 32.065C19.7736 31.9257 20.1082 31.856 20.4845 31.856C20.7772 31.856 21.0491 31.9117 21.3 32.0232C21.5579 32.1278 21.7774 32.2881 21.9586 32.5041C22.1398 32.7132 22.2827 32.9746 22.3873 33.2882C22.4918 33.5949 22.5441 33.9504 22.5441 34.3546V34.7519C22.5441 35.1561 22.4918 35.5151 22.3873 35.8287C22.2827 36.1354 22.1364 36.3968 21.9482 36.6128C21.767 36.8219 21.5474 36.9822 21.2895 37.0937C21.0386 37.1983 20.7668 37.2505 20.4741 37.2505ZM20.2232 36.3514C20.6413 36.3514 20.9689 36.2225 21.2059 35.9646C21.4429 35.7067 21.5613 35.3025 21.5613 34.7519V34.3546C21.5613 33.811 21.4429 33.4102 21.2059 33.1523C20.9689 32.8875 20.6413 32.7551 20.2232 32.7551C19.8468 32.7551 19.5331 32.884 19.2822 33.1419C19.0313 33.3998 18.8989 33.7796 18.885 34.2814V34.7519C18.885 35.2677 19.0104 35.6649 19.2613 35.9437C19.5122 36.2155 19.8328 36.3514 20.2232 36.3514Z" fill="#55BC7E"/>
<path d="M25.101 37.2505C24.5573 37.2505 24.1426 37.1146 23.8569 36.8428C23.5711 36.564 23.4282 36.1842 23.4282 35.7033C23.4282 35.4384 23.4701 35.2014 23.5537 34.9923C23.6373 34.7763 23.7698 34.5951 23.951 34.4487C24.1391 34.3023 24.3761 34.1908 24.6619 34.1142C24.9546 34.0375 25.3101 33.9992 25.7283 33.9992H26.7737V33.6123C26.7737 33.3196 26.6866 33.0931 26.5124 32.9328C26.3451 32.7725 26.0837 32.6923 25.7283 32.6923C25.3728 32.6923 25.1149 32.7585 24.9546 32.891C24.8013 33.0234 24.7107 33.1942 24.6828 33.4032H23.6373C23.6652 32.9572 23.8464 32.5878 24.181 32.2951C24.5225 32.0023 25.0382 31.856 25.7283 31.856C26.3834 31.856 26.8783 32.0128 27.2128 32.3264C27.5474 32.6401 27.7146 33.0687 27.7146 33.6123V37.1669H26.9828L26.8678 36.3096C26.6796 36.6093 26.4322 36.8428 26.1255 37.0101C25.8258 37.1704 25.4843 37.2505 25.101 37.2505ZM25.2055 36.4142C25.4355 36.4142 25.6446 36.3758 25.8328 36.2992C26.028 36.2225 26.1952 36.1214 26.3346 35.996C26.474 35.8636 26.582 35.7102 26.6587 35.536C26.7354 35.3617 26.7737 35.177 26.7737 34.9819V34.7937H25.7283C25.2473 34.7937 24.9058 34.8773 24.7037 35.0446C24.5085 35.2049 24.411 35.4175 24.411 35.6824C24.411 35.9054 24.4807 36.0831 24.6201 36.2155C24.7595 36.348 24.9546 36.4142 25.2055 36.4142Z" fill="#55BC7E"/>
<path d="M29.2257 31.9396H31.212C31.916 31.9396 32.4213 32.072 32.728 32.3369C33.0416 32.6017 33.1984 32.9537 33.1984 33.3928C33.1984 33.6089 33.1461 33.8075 33.0416 33.9887C32.937 34.1699 32.7733 34.3233 32.5502 34.4487C32.843 34.5672 33.059 34.7345 33.1984 34.9505C33.3378 35.1596 33.4075 35.3931 33.4075 35.651C33.4075 36.1249 33.2507 36.4978 32.937 36.7696C32.6304 37.0345 32.1251 37.1669 31.4211 37.1669H29.2257V31.9396ZM30.1666 34.9087V36.3096H31.4211C31.7975 36.3096 32.0589 36.2504 32.2052 36.1319C32.3516 36.0064 32.4248 35.8287 32.4248 35.5987C32.4248 35.3757 32.3516 35.2049 32.2052 35.0864C32.0589 34.968 31.7975 34.9087 31.4211 34.9087H30.1666ZM30.1666 32.7969V34.0932H31.212C31.5954 34.0932 31.8567 34.0375 31.9961 33.926C32.1425 33.8075 32.2157 33.6472 32.2157 33.4451C32.2157 33.2429 32.1425 33.0861 31.9961 32.9746C31.8567 32.8561 31.5954 32.7969 31.212 32.7969H30.1666Z" fill="#55BC7E"/>
<path d="M34.0299 36.3514H34.1867C34.2982 36.3514 34.4028 36.3236 34.5003 36.2678C34.6049 36.2121 34.6955 36.1145 34.7722 35.9751C34.8488 35.8357 34.9081 35.6475 34.9499 35.4105C34.9987 35.1736 35.0231 34.8739 35.0231 34.5114V31.9396H38.7867V37.1669H37.8458V32.7969H35.964V34.5114C35.964 35.0272 35.9222 35.4593 35.8385 35.8078C35.7549 36.1563 35.6364 36.4386 35.4831 36.6546C35.3297 36.8707 35.1416 37.024 34.9185 37.1146C34.7025 37.2052 34.4585 37.2505 34.1867 37.2505H34.0299V36.3514Z" fill="#55BC7E"/>
<path d="M42.3928 37.2505C42.0443 37.2505 41.7237 37.1948 41.4309 37.0833C41.1452 36.9648 40.8978 36.7975 40.6887 36.5815C40.4865 36.3654 40.3262 36.104 40.2078 35.7974C40.0962 35.4907 40.0405 35.1422 40.0405 34.7519V34.3546C40.0405 33.9713 40.0962 33.6263 40.2078 33.3196C40.3262 33.0129 40.49 32.7516 40.6991 32.5355C40.9082 32.3194 41.1556 32.1522 41.4414 32.0337C41.7272 31.9152 42.0443 31.856 42.3928 31.856C42.7413 31.856 43.0584 31.9152 43.3441 32.0337C43.6369 32.1452 43.8843 32.309 44.0864 32.5251C44.2955 32.7411 44.4558 33.006 44.5673 33.3196C44.6858 33.6263 44.7451 33.9713 44.7451 34.3546V34.8564H41.0232C41.0372 35.3652 41.1696 35.7486 41.4205 36.0064C41.6714 36.2643 41.9955 36.3933 42.3928 36.3933C42.804 36.3933 43.1037 36.3201 43.2919 36.1737C43.4801 36.0274 43.6264 35.8183 43.731 35.5464H44.6928C44.5882 36.0622 44.3548 36.4769 43.9923 36.7905C43.6299 37.0972 43.0967 37.2505 42.3928 37.2505ZM42.3928 32.7132C42.0164 32.7132 41.7062 32.8248 41.4623 33.0478C41.2253 33.2638 41.0825 33.5949 41.0337 34.041H43.7414C43.6996 33.581 43.5637 33.2464 43.3337 33.0373C43.1037 32.8213 42.7901 32.7132 42.3928 32.7132Z" fill="#55BC7E"/>
<path d="M49.5546 34.9296H46.9409V37.1669H46V31.9396H46.9409V34.0723H49.5546V31.9396H50.4955V37.1669H49.5546V34.9296Z" fill="#55BC7E"/>
<path d="M55.6191 33.0582L55.0441 34.1351L53.2773 37.1669H52.0645V31.9396H53.0054V36.0483L53.5805 34.9714L55.3473 31.9396H56.56V37.1669H55.6191V33.0582Z" fill="#55BC7E"/>
<path d="M60.1677 37.2505C59.8192 37.2505 59.4986 37.1948 59.2059 37.0833C58.9201 36.9648 58.6727 36.7975 58.4636 36.5815C58.2615 36.3654 58.1012 36.104 57.9827 35.7974C57.8712 35.4907 57.8154 35.1422 57.8154 34.7519V34.3546C57.8154 33.9713 57.8712 33.6263 57.9827 33.3196C58.1012 33.0129 58.2649 32.7516 58.474 32.5355C58.6831 32.3194 58.9306 32.1522 59.2163 32.0337C59.5021 31.9152 59.8192 31.856 60.1677 31.856C60.5162 31.856 60.8333 31.9152 61.1191 32.0337C61.4118 32.1452 61.6592 32.309 61.8613 32.5251C62.0704 32.7411 62.2307 33.006 62.3423 33.3196C62.4607 33.6263 62.52 33.9713 62.52 34.3546V34.8564H58.7981C58.8121 35.3652 58.9445 35.7486 59.1954 36.0064C59.4463 36.2643 59.7704 36.3933 60.1677 36.3933C60.5789 36.3933 60.8786 36.3201 61.0668 36.1737C61.255 36.0274 61.4013 35.8183 61.5059 35.5464H62.4677C62.3632 36.0622 62.1297 36.4769 61.7672 36.7905C61.4048 37.0972 60.8716 37.2505 60.1677 37.2505ZM60.1677 32.7132C59.7913 32.7132 59.4812 32.8248 59.2372 33.0478C59.0003 33.2638 58.8574 33.5949 58.8086 34.041H61.5163C61.4745 33.581 61.3386 33.2464 61.1086 33.0373C60.8786 32.8213 60.565 32.7132 60.1677 32.7132Z" fill="#55BC7E"/>
<path d="M68.4795 37.2505C68.1101 37.2505 67.7756 37.1948 67.4759 37.0833C67.1832 36.9648 66.9322 36.801 66.7232 36.5919C66.5141 36.3758 66.3538 36.1145 66.2422 35.8078C66.1307 35.4942 66.075 35.1422 66.075 34.7519V34.3546C66.075 33.9713 66.1307 33.6263 66.2422 33.3196C66.3607 33.006 66.5245 32.7411 66.7336 32.5251C66.9427 32.309 67.1936 32.1452 67.4863 32.0337C67.786 31.9152 68.1171 31.856 68.4795 31.856C68.842 31.856 69.1695 31.9152 69.4623 32.0337C69.762 32.1452 70.0164 32.309 70.2254 32.5251C70.4345 32.7341 70.5948 32.9955 70.7064 33.3092C70.8249 33.6158 70.8841 33.9643 70.8841 34.3546V34.7519C70.8841 35.1422 70.8249 35.4907 70.7064 35.7974C70.5948 36.104 70.4345 36.3654 70.2254 36.5815C70.0164 36.7975 69.762 36.9648 69.4623 37.0833C69.1695 37.1948 68.842 37.2505 68.4795 37.2505ZM68.4795 36.3514C68.9186 36.3514 69.2636 36.219 69.5145 35.9542C69.7724 35.6824 69.9014 35.2816 69.9014 34.7519V34.3546C69.9014 33.8319 69.7724 33.4346 69.5145 33.1628C69.2636 32.891 68.9186 32.7551 68.4795 32.7551C68.0404 32.7551 67.6919 32.891 67.4341 33.1628C67.1832 33.4276 67.0577 33.8249 67.0577 34.3546V34.7519C67.0577 35.2746 67.1832 35.6719 67.4341 35.9437C67.6919 36.2155 68.0404 36.3514 68.4795 36.3514Z" fill="#55BC7E"/>
<path d="M75.0639 35.3792C74.9106 35.414 74.7363 35.4454 74.5412 35.4733C74.353 35.4942 74.1439 35.5046 73.9139 35.5046C73.1751 35.5046 72.6419 35.3443 72.3143 35.0237C71.9868 34.7031 71.823 34.1978 71.823 33.5078V31.9396H72.7639V33.5078C72.7639 33.7239 72.7813 33.9051 72.8162 34.0514C72.858 34.1978 72.9242 34.3163 73.0148 34.4069C73.1054 34.4905 73.2239 34.5533 73.3702 34.5951C73.5166 34.6299 73.6978 34.6473 73.9139 34.6473C74.1369 34.6473 74.346 34.6369 74.5412 34.616C74.7433 34.5881 74.9175 34.5567 75.0639 34.5219V31.9396H76.0048V37.1669H75.0639V35.3792Z" fill="#55BC7E"/>
<path d="M79.6068 37.2505C79.2583 37.2505 78.9377 37.1948 78.6449 37.0833C78.3592 36.9648 78.1118 36.7975 77.9027 36.5815C77.7005 36.3654 77.5402 36.104 77.4217 35.7974C77.3102 35.4907 77.2545 35.1422 77.2545 34.7519V34.3546C77.2545 33.9713 77.3102 33.6263 77.4217 33.3196C77.5402 33.0129 77.704 32.7516 77.9131 32.5355C78.1222 32.3194 78.3696 32.1522 78.6554 32.0337C78.9412 31.9152 79.2583 31.856 79.6068 31.856C79.9553 31.856 80.2724 31.9152 80.5581 32.0337C80.8509 32.1452 81.0983 32.309 81.3004 32.5251C81.5095 32.7411 81.6698 33.006 81.7813 33.3196C81.8998 33.6263 81.9591 33.9713 81.9591 34.3546V34.8564H78.2372C78.2512 35.3652 78.3836 35.7486 78.6345 36.0064C78.8854 36.2643 79.2095 36.3933 79.6068 36.3933C80.018 36.3933 80.3177 36.3201 80.5059 36.1737C80.6941 36.0274 80.8404 35.8183 80.945 35.5464H81.9068C81.8022 36.0622 81.5687 36.4769 81.2063 36.7905C80.8439 37.0972 80.3107 37.2505 79.6068 37.2505ZM79.6068 32.7132C79.2304 32.7132 78.9202 32.8248 78.6763 33.0478C78.4393 33.2638 78.2964 33.5949 78.2477 34.041H80.9554C80.9136 33.581 80.7777 33.2464 80.5477 33.0373C80.3177 32.8213 80.004 32.7132 79.6068 32.7132Z" fill="#55BC7E"/>
<path d="M85.744 37.2505C85.054 37.2505 84.5243 37.024 84.1549 36.571V39.2578H83.214V31.9396H83.9458L84.0399 32.6923C84.2212 32.4135 84.4581 32.2044 84.7509 32.065C85.0436 31.9257 85.3781 31.856 85.7545 31.856C86.0472 31.856 86.319 31.9117 86.57 32.0232C86.8278 32.1278 87.0474 32.2881 87.2286 32.5041C87.4098 32.7132 87.5527 32.9746 87.6572 33.2882C87.7618 33.5949 87.8141 33.9504 87.8141 34.3546V34.7519C87.8141 35.1561 87.7618 35.5151 87.6572 35.8287C87.5527 36.1354 87.4063 36.3968 87.2181 36.6128C87.0369 36.8219 86.8174 36.9822 86.5595 37.0937C86.3086 37.1983 86.0368 37.2505 85.744 37.2505ZM85.4931 36.3514C85.9113 36.3514 86.2389 36.2225 86.4759 35.9646C86.7128 35.7067 86.8313 35.3025 86.8313 34.7519V34.3546C86.8313 33.811 86.7128 33.4102 86.4759 33.1523C86.2389 32.8875 85.9113 32.7551 85.4931 32.7551C85.1168 32.7551 84.8031 32.884 84.5522 33.1419C84.3013 33.3998 84.1689 33.7796 84.1549 34.2814V34.7519C84.1549 35.2677 84.2804 35.6649 84.5313 35.9437C84.7822 36.2155 85.1028 36.3514 85.4931 36.3514Z" fill="#55BC7E"/>
<path d="M91.1028 37.2505C90.7543 37.2505 90.4337 37.1948 90.141 37.0833C89.8552 36.9648 89.6078 36.7975 89.3987 36.5815C89.1965 36.3654 89.0362 36.104 88.9178 35.7974C88.8062 35.4907 88.7505 35.1422 88.7505 34.7519V34.3546C88.7505 33.9713 88.8062 33.6263 88.9178 33.3196C89.0362 33.0129 89.2 32.7516 89.4091 32.5355C89.6182 32.3194 89.8656 32.1522 90.1514 32.0337C90.4372 31.9152 90.7543 31.856 91.1028 31.856C91.4513 31.856 91.7684 31.9152 92.0541 32.0337C92.3469 32.1452 92.5943 32.309 92.7964 32.5251C93.0055 32.7411 93.1658 33.006 93.2773 33.3196C93.3958 33.6263 93.4551 33.9713 93.4551 34.3546V34.8564H89.7332C89.7472 35.3652 89.8796 35.7486 90.1305 36.0064C90.3814 36.2643 90.7055 36.3933 91.1028 36.3933C91.514 36.3933 91.8137 36.3201 92.0019 36.1737C92.1901 36.0274 92.3364 35.8183 92.441 35.5464H93.4028C93.2982 36.0622 93.0648 36.4769 92.7023 36.7905C92.3399 37.0972 91.8067 37.2505 91.1028 37.2505ZM91.1028 32.7132C90.7264 32.7132 90.4163 32.8248 90.1723 33.0478C89.9353 33.2638 89.7925 33.5949 89.7437 34.041H92.4514C92.4096 33.581 92.2737 33.2464 92.0437 33.0373C91.8137 32.8213 91.5001 32.7132 91.1028 32.7132Z" fill="#55BC7E"/>
<path d="M98.4762 37.1669H94.8693V38.526H93.9284V36.3096H94.4929C94.6045 36.1563 94.6951 35.9995 94.7648 35.8392C94.8414 35.6719 94.9007 35.4802 94.9425 35.2642C94.9843 35.0481 95.0122 34.8007 95.0261 34.5219C95.047 34.2361 95.0575 33.8981 95.0575 33.5078V31.9396H98.7375V36.3096H99.4171V38.526H98.4762V37.1669ZM95.9775 33.5078C95.9775 33.926 95.967 34.2849 95.9461 34.5846C95.9252 34.8843 95.8939 35.1422 95.852 35.3583C95.8102 35.5743 95.7579 35.759 95.6952 35.9124C95.6395 36.0587 95.5767 36.1911 95.507 36.3096H97.7966V32.7969H95.9775V33.5078Z" fill="#55BC7E"/>
<path d="M100.144 33.6542C100.144 33.1035 100.315 32.6819 100.657 32.3891C100.998 32.0894 101.577 31.9396 102.392 31.9396H104.222V37.1669H103.281V35.3478H102.392C102.315 35.3478 102.239 35.3478 102.162 35.3478C102.092 35.3478 102.023 35.3443 101.953 35.3373L100.981 37.1669H99.9353L101.064 35.1492C100.73 35.0098 100.493 34.8146 100.353 34.5637C100.214 34.3128 100.144 34.0096 100.144 33.6542ZM101.127 33.6542C101.127 33.926 101.214 34.1351 101.389 34.2814C101.57 34.4208 101.904 34.4905 102.392 34.4905H103.281V32.7969H102.392C101.904 32.7969 101.57 32.8701 101.389 33.0164C101.214 33.1558 101.127 33.3684 101.127 33.6542Z" fill="#55BC7E"/>
<path d="M107.241 34.1351L106.728 33.006V37.1669H105.787V31.9396H107.167L108.579 34.9087L109.99 31.9396H111.328V37.1669H110.387V32.9955L109.865 34.1351L109.028 35.9124H108.087L107.241 34.1351Z" fill="#55BC7E"/>
<path d="M116.448 33.0582L115.873 34.1351L114.106 37.1669H112.893V31.9396H113.834V36.0483L114.409 34.9714L116.176 31.9396H117.389V37.1669H116.448V33.0582Z" fill="#55BC7E"/>
</svg>
