<svg width="272" height="276" viewBox="0 0 272 276" fill="none" xmlns="http://www.w3.org/2000/svg">
<path d="M130.823 14.104L134.295 10.66C134.594 10.3613 134.855 10.0907 135.079 9.848C135.313 9.60533 135.504 9.37667 135.653 9.162C135.812 8.94733 135.929 8.742 136.003 8.546C136.078 8.35 136.115 8.14467 136.115 7.93C136.115 7.37933 135.924 6.92667 135.541 6.572C135.159 6.208 134.636 6.026 133.973 6.026C133.311 6.026 132.788 6.208 132.405 6.572C132.023 6.92667 131.831 7.37933 131.831 7.93H130.823C130.823 7.52867 130.898 7.15533 131.047 6.81C131.197 6.46467 131.407 6.166 131.677 5.914C131.948 5.662 132.279 5.466 132.671 5.326C133.063 5.17667 133.497 5.102 133.973 5.102C134.449 5.102 134.883 5.17667 135.275 5.326C135.667 5.466 135.999 5.662 136.269 5.914C136.54 6.166 136.75 6.46467 136.899 6.81C137.049 7.15533 137.123 7.52867 137.123 7.93C137.123 8.47133 136.937 8.99867 136.563 9.512C136.199 10.0253 135.691 10.5993 135.037 11.234L132.097 14.104H137.123V15H130.823V14.104ZM138.241 11.752L142.833 5.2H144.051V11.752H145.381V12.648H144.051V15H143.071V12.648H138.241V11.752ZM143.071 11.752V6.334L139.319 11.752H143.071Z" fill="#3C455E"/>
<path d="M20.2993 197.306L18.1993 198.734V197.642L20.2993 196.2H21.2793V206H20.2993V197.306ZM26.9438 206.098C26.4492 206.098 26.0012 206.019 25.5998 205.86C25.2078 205.692 24.8718 205.44 24.5918 205.104C24.3118 204.768 24.0972 204.343 23.9478 203.83C23.7985 203.307 23.7238 202.687 23.7238 201.968V201.072C23.7238 200.167 23.8032 199.401 23.9618 198.776C24.1298 198.141 24.3585 197.628 24.6478 197.236C24.9372 196.835 25.2825 196.545 25.6838 196.368C26.0852 196.191 26.5285 196.102 27.0138 196.102C27.3872 196.102 27.7232 196.158 28.0218 196.27C28.3298 196.382 28.5958 196.536 28.8198 196.732C29.0532 196.919 29.2445 197.143 29.3938 197.404C29.5432 197.665 29.6552 197.941 29.7298 198.23H28.6938C28.5538 197.885 28.3485 197.6 28.0778 197.376C27.8165 197.152 27.4618 197.04 27.0138 197.04C26.6685 197.04 26.3558 197.101 26.0758 197.222C25.7958 197.334 25.5532 197.53 25.3478 197.81C25.1518 198.081 24.9932 198.445 24.8718 198.902C24.7598 199.359 24.6945 199.929 24.6758 200.61C24.9278 200.246 25.2545 199.966 25.6558 199.77C26.0572 199.565 26.5098 199.462 27.0138 199.462C27.4432 199.462 27.8398 199.541 28.2038 199.7C28.5678 199.849 28.8852 200.064 29.1558 200.344C29.4265 200.624 29.6365 200.96 29.7858 201.352C29.9445 201.735 30.0238 202.155 30.0238 202.612V202.948C30.0238 203.415 29.9445 203.839 29.7858 204.222C29.6365 204.605 29.4218 204.936 29.1418 205.216C28.8712 205.496 28.5492 205.715 28.1758 205.874C27.8025 206.023 27.3918 206.098 26.9438 206.098ZM24.7318 202.808C24.7318 203.564 24.9278 204.147 25.3198 204.558C25.7212 204.969 26.2625 205.174 26.9438 205.174C27.5598 205.174 28.0592 204.978 28.4418 204.586C28.8245 204.185 29.0158 203.639 29.0158 202.948V202.612C29.0158 201.921 28.8245 201.38 28.4418 200.988C28.0592 200.587 27.5598 200.386 26.9438 200.386C26.2625 200.386 25.7212 200.582 25.3198 200.974C24.9278 201.357 24.7318 201.856 24.7318 202.472V202.808Z" fill="#3C455E"/>
<path d="M6.89891 165.306L4.79891 166.734V165.642L6.89891 164.2H7.87891V174H6.89891V165.306ZM14.7054 165.096H9.55344V164.2H15.7134V165.096L12.0594 174H11.0234L14.7054 165.096Z" fill="#3C455E"/>
<path d="M264.705 165.096H259.553V164.2H265.713V165.096L262.059 174H261.023L264.705 165.096Z" fill="#3C455E"/>
<path d="M229.734 231.098C229.342 231.098 228.987 231.042 228.67 230.93C228.362 230.818 228.091 230.669 227.858 230.482C227.624 230.286 227.428 230.062 227.27 229.81C227.12 229.549 227.013 229.269 226.948 228.97H227.984C228.124 229.315 228.329 229.6 228.6 229.824C228.87 230.048 229.248 230.16 229.734 230.16C230.06 230.16 230.359 230.104 230.63 229.992C230.9 229.871 231.134 229.675 231.33 229.404C231.526 229.124 231.68 228.755 231.792 228.298C231.913 227.841 231.983 227.271 232.002 226.59C231.75 226.954 231.423 227.239 231.022 227.444C230.62 227.64 230.168 227.738 229.664 227.738C229.234 227.738 228.838 227.663 228.474 227.514C228.11 227.355 227.792 227.136 227.522 226.856C227.251 226.576 227.036 226.245 226.878 225.862C226.728 225.479 226.654 225.055 226.654 224.588V224.252C226.654 223.795 226.728 223.375 226.878 222.992C227.036 222.6 227.251 222.264 227.522 221.984C227.802 221.704 228.128 221.489 228.502 221.34C228.875 221.181 229.286 221.102 229.734 221.102C230.219 221.102 230.658 221.186 231.05 221.354C231.451 221.513 231.792 221.76 232.072 222.096C232.352 222.432 232.566 222.861 232.716 223.384C232.874 223.897 232.954 224.513 232.954 225.232V226.128C232.954 227.033 232.874 227.803 232.716 228.438C232.557 229.063 232.333 229.577 232.044 229.978C231.754 230.37 231.414 230.655 231.022 230.832C230.63 231.009 230.2 231.098 229.734 231.098ZM227.662 224.588C227.662 225.279 227.853 225.825 228.236 226.226C228.618 226.618 229.118 226.814 229.734 226.814C230.415 226.814 230.952 226.623 231.344 226.24C231.745 225.848 231.946 225.344 231.946 224.728V224.392C231.946 223.636 231.745 223.053 231.344 222.642C230.952 222.231 230.415 222.026 229.734 222.026C229.118 222.026 228.618 222.227 228.236 222.628C227.853 223.02 227.662 223.561 227.662 224.252V224.588Z" fill="#3C455E"/>
<path d="M39.7095 222.306L37.6095 223.734V222.642L39.7095 221.2H40.6895V231H39.7095V222.306ZM46.074 231.098C45.262 231.098 44.5667 230.897 43.988 230.496C43.4187 230.095 43.0407 229.507 42.854 228.732H43.89C44.058 229.217 44.3287 229.581 44.702 229.824C45.0753 230.057 45.5327 230.174 46.074 230.174C46.746 230.174 47.2827 229.969 47.684 229.558C48.0853 229.138 48.286 228.559 48.286 227.822C48.286 227.075 48.0853 226.497 47.684 226.086C47.2827 225.675 46.746 225.47 46.074 225.47C45.598 225.47 45.192 225.577 44.856 225.792C44.52 226.007 44.268 226.249 44.1 226.52H43.134L43.554 221.2H48.664V222.096H44.45L44.184 225.344C44.4267 225.092 44.7207 224.896 45.066 224.756C45.4113 224.616 45.794 224.546 46.214 224.546C46.662 224.546 47.0727 224.625 47.446 224.784C47.8287 224.933 48.1553 225.153 48.426 225.442C48.6967 225.722 48.9067 226.067 49.056 226.478C49.2147 226.879 49.294 227.327 49.294 227.822C49.294 228.317 49.2147 228.765 49.056 229.166C48.9067 229.567 48.6873 229.913 48.398 230.202C48.118 230.491 47.7773 230.715 47.376 230.874C46.984 231.023 46.55 231.098 46.074 231.098Z" fill="#3C455E"/>
<path d="M250.13 206.098C249.617 206.098 249.159 206.033 248.758 205.902C248.357 205.762 248.021 205.571 247.75 205.328C247.479 205.076 247.269 204.782 247.12 204.446C246.98 204.11 246.91 203.741 246.91 203.34C246.91 202.752 247.064 202.253 247.372 201.842C247.689 201.422 248.114 201.1 248.646 200.876C248.198 200.68 247.843 200.4 247.582 200.036C247.321 199.672 247.19 199.224 247.19 198.692C247.19 198.328 247.26 197.992 247.4 197.684C247.549 197.367 247.75 197.091 248.002 196.858C248.263 196.625 248.571 196.443 248.926 196.312C249.29 196.172 249.691 196.102 250.13 196.102C250.578 196.102 250.979 196.167 251.334 196.298C251.698 196.429 252.006 196.611 252.258 196.844C252.519 197.077 252.72 197.353 252.86 197.67C253 197.978 253.07 198.319 253.07 198.692C253.07 199.215 252.935 199.658 252.664 200.022C252.403 200.386 252.048 200.671 251.6 200.876C252.132 201.091 252.557 201.408 252.874 201.828C253.191 202.248 253.35 202.752 253.35 203.34C253.35 203.732 253.275 204.096 253.126 204.432C252.986 204.768 252.776 205.062 252.496 205.314C252.216 205.557 251.875 205.748 251.474 205.888C251.082 206.028 250.634 206.098 250.13 206.098ZM250.13 200.484C250.373 200.456 250.611 200.405 250.844 200.33C251.077 200.246 251.283 200.134 251.46 199.994C251.647 199.845 251.791 199.663 251.894 199.448C252.006 199.233 252.062 198.981 252.062 198.692C252.062 198.477 252.015 198.272 251.922 198.076C251.838 197.871 251.712 197.693 251.544 197.544C251.376 197.385 251.171 197.259 250.928 197.166C250.695 197.073 250.429 197.026 250.13 197.026C249.831 197.026 249.561 197.073 249.318 197.166C249.085 197.259 248.884 197.385 248.716 197.544C248.548 197.693 248.417 197.871 248.324 198.076C248.24 198.272 248.198 198.477 248.198 198.692C248.198 198.972 248.254 199.219 248.366 199.434C248.478 199.639 248.623 199.817 248.8 199.966C248.987 200.115 249.197 200.232 249.43 200.316C249.663 200.4 249.897 200.456 250.13 200.484ZM250.13 205.174C250.475 205.174 250.783 205.127 251.054 205.034C251.334 204.931 251.567 204.796 251.754 204.628C251.941 204.46 252.085 204.269 252.188 204.054C252.291 203.83 252.342 203.592 252.342 203.34C252.342 203.041 252.281 202.771 252.16 202.528C252.048 202.285 251.889 202.08 251.684 201.912C251.488 201.735 251.255 201.595 250.984 201.492C250.713 201.389 250.429 201.324 250.13 201.296C249.822 201.324 249.533 201.389 249.262 201.492C248.991 201.585 248.753 201.721 248.548 201.898C248.352 202.066 248.198 202.271 248.086 202.514C247.974 202.757 247.918 203.032 247.918 203.34C247.918 203.592 247.969 203.83 248.072 204.054C248.175 204.269 248.319 204.46 248.506 204.628C248.693 204.796 248.921 204.931 249.192 205.034C249.472 205.127 249.785 205.174 250.13 205.174Z" fill="#3C455E"/>
<path d="M15.3878 76.104L18.8598 72.66C19.1585 72.3613 19.4198 72.0907 19.6438 71.848C19.8771 71.6053 20.0685 71.3767 20.2178 71.162C20.3765 70.9473 20.4931 70.742 20.5678 70.546C20.6425 70.35 20.6798 70.1447 20.6798 69.93C20.6798 69.3793 20.4885 68.9267 20.1058 68.572C19.7231 68.208 19.2005 68.026 18.5378 68.026C17.8751 68.026 17.3525 68.208 16.9698 68.572C16.5871 68.9267 16.3958 69.3793 16.3958 69.93H15.3878C15.3878 69.5287 15.4625 69.1553 15.6118 68.81C15.7611 68.4647 15.9711 68.166 16.2418 67.914C16.5125 67.662 16.8438 67.466 17.2358 67.326C17.6278 67.1767 18.0618 67.102 18.5378 67.102C19.0138 67.102 19.4478 67.1767 19.8398 67.326C20.2318 67.466 20.5631 67.662 20.8338 67.914C21.1045 68.166 21.3145 68.4647 21.4638 68.81C21.6131 69.1553 21.6878 69.5287 21.6878 69.93C21.6878 70.4713 21.5011 70.9987 21.1278 71.512C20.7638 72.0253 20.2551 72.5993 19.6018 73.234L16.6618 76.104H21.6878V77H15.3878V76.104ZM26.7251 77.098C26.2304 77.098 25.7824 77.0187 25.3811 76.86C24.9891 76.692 24.6531 76.426 24.3731 76.062C24.0931 75.698 23.8784 75.2313 23.7291 74.662C23.5797 74.0833 23.5051 73.3787 23.5051 72.548V71.652C23.5051 70.8307 23.5797 70.1353 23.7291 69.566C23.8877 68.9873 24.1071 68.516 24.3871 68.152C24.6671 67.788 25.0031 67.522 25.3951 67.354C25.7964 67.186 26.2397 67.102 26.7251 67.102C27.2104 67.102 27.6491 67.186 28.0411 67.354C28.4424 67.5127 28.7831 67.774 29.0631 68.138C29.3431 68.502 29.5577 68.9733 29.7071 69.552C29.8657 70.1307 29.9451 70.8307 29.9451 71.652V72.548C29.9451 73.3693 29.8657 74.0693 29.7071 74.648C29.5577 75.2173 29.3431 75.684 29.0631 76.048C28.7831 76.412 28.4424 76.678 28.0411 76.846C27.6491 77.014 27.2104 77.098 26.7251 77.098ZM26.7251 76.174C27.0611 76.174 27.3644 76.118 27.6351 76.006C27.9151 75.8847 28.1484 75.684 28.3351 75.404C28.5311 75.124 28.6804 74.7507 28.7831 74.284C28.8857 73.8173 28.9371 73.2387 28.9371 72.548V71.652C28.9371 70.9613 28.8857 70.3873 28.7831 69.93C28.6804 69.4633 28.5311 69.09 28.3351 68.81C28.1391 68.53 27.9057 68.3293 27.6351 68.208C27.3644 68.0867 27.0611 68.026 26.7251 68.026C26.3891 68.026 26.0811 68.0867 25.8011 68.208C25.5304 68.32 25.2971 68.516 25.1011 68.796C24.9144 69.076 24.7697 69.4493 24.6671 69.916C24.5644 70.3827 24.5131 70.9613 24.5131 71.652V72.548C24.5131 73.2387 24.5644 73.8173 24.6671 74.284C24.7697 74.7413 24.9191 75.11 25.1151 75.39C25.3111 75.67 25.5444 75.8707 25.8151 75.992C26.0857 76.1133 26.3891 76.174 26.7251 76.174Z" fill="#3C455E"/>
<path d="M3.36766 129.306L1.26766 130.734V129.642L3.36766 128.2H4.34766V138H3.36766V129.306ZM9.87219 138.098C9.35885 138.098 8.90152 138.033 8.50019 137.902C8.09885 137.762 7.76285 137.571 7.49219 137.328C7.22152 137.076 7.01152 136.782 6.86219 136.446C6.72219 136.11 6.65219 135.741 6.65219 135.34C6.65219 134.752 6.80619 134.253 7.11419 133.842C7.43152 133.422 7.85619 133.1 8.38819 132.876C7.94019 132.68 7.58552 132.4 7.32419 132.036C7.06285 131.672 6.93219 131.224 6.93219 130.692C6.93219 130.328 7.00219 129.992 7.14219 129.684C7.29152 129.367 7.49219 129.091 7.74419 128.858C8.00552 128.625 8.31352 128.443 8.66819 128.312C9.03219 128.172 9.43352 128.102 9.87219 128.102C10.3202 128.102 10.7215 128.167 11.0762 128.298C11.4402 128.429 11.7482 128.611 12.0002 128.844C12.2615 129.077 12.4622 129.353 12.6022 129.67C12.7422 129.978 12.8122 130.319 12.8122 130.692C12.8122 131.215 12.6769 131.658 12.4062 132.022C12.1449 132.386 11.7902 132.671 11.3422 132.876C11.8742 133.091 12.2989 133.408 12.6162 133.828C12.9335 134.248 13.0922 134.752 13.0922 135.34C13.0922 135.732 13.0175 136.096 12.8682 136.432C12.7282 136.768 12.5182 137.062 12.2382 137.314C11.9582 137.557 11.6175 137.748 11.2162 137.888C10.8242 138.028 10.3762 138.098 9.87219 138.098ZM9.87219 132.484C10.1149 132.456 10.3529 132.405 10.5862 132.33C10.8195 132.246 11.0249 132.134 11.2022 131.994C11.3889 131.845 11.5335 131.663 11.6362 131.448C11.7482 131.233 11.8042 130.981 11.8042 130.692C11.8042 130.477 11.7575 130.272 11.6642 130.076C11.5802 129.871 11.4542 129.693 11.2862 129.544C11.1182 129.385 10.9129 129.259 10.6702 129.166C10.4369 129.073 10.1709 129.026 9.87219 129.026C9.57352 129.026 9.30285 129.073 9.06019 129.166C8.82685 129.259 8.62619 129.385 8.45819 129.544C8.29019 129.693 8.15952 129.871 8.06619 130.076C7.98219 130.272 7.94019 130.477 7.94019 130.692C7.94019 130.972 7.99619 131.219 8.10819 131.434C8.22019 131.639 8.36485 131.817 8.54219 131.966C8.72885 132.115 8.93885 132.232 9.17219 132.316C9.40552 132.4 9.63885 132.456 9.87219 132.484ZM9.87219 137.174C10.2175 137.174 10.5255 137.127 10.7962 137.034C11.0762 136.931 11.3095 136.796 11.4962 136.628C11.6829 136.46 11.8275 136.269 11.9302 136.054C12.0329 135.83 12.0842 135.592 12.0842 135.34C12.0842 135.041 12.0235 134.771 11.9022 134.528C11.7902 134.285 11.6315 134.08 11.4262 133.912C11.2302 133.735 10.9969 133.595 10.7262 133.492C10.4555 133.389 10.1709 133.324 9.87219 133.296C9.56419 133.324 9.27485 133.389 9.00419 133.492C8.73352 133.585 8.49552 133.721 8.29019 133.898C8.09419 134.066 7.94019 134.271 7.82819 134.514C7.71619 134.757 7.66019 135.032 7.66019 135.34C7.66019 135.592 7.71152 135.83 7.81419 136.054C7.91685 136.269 8.06152 136.46 8.24819 136.628C8.43485 136.796 8.66352 136.931 8.93419 137.034C9.21419 137.127 9.52685 137.174 9.87219 137.174Z" fill="#3C455E"/>
<path d="M267.27 138.098C266.775 138.098 266.327 138.019 265.926 137.86C265.534 137.692 265.198 137.44 264.918 137.104C264.638 136.768 264.423 136.343 264.274 135.83C264.125 135.307 264.05 134.687 264.05 133.968V133.072C264.05 132.167 264.129 131.401 264.288 130.776C264.456 130.141 264.685 129.628 264.974 129.236C265.263 128.835 265.609 128.545 266.01 128.368C266.411 128.191 266.855 128.102 267.34 128.102C267.713 128.102 268.049 128.158 268.348 128.27C268.656 128.382 268.922 128.536 269.146 128.732C269.379 128.919 269.571 129.143 269.72 129.404C269.869 129.665 269.981 129.941 270.056 130.23H269.02C268.88 129.885 268.675 129.6 268.404 129.376C268.143 129.152 267.788 129.04 267.34 129.04C266.995 129.04 266.682 129.101 266.402 129.222C266.122 129.334 265.879 129.53 265.674 129.81C265.478 130.081 265.319 130.445 265.198 130.902C265.086 131.359 265.021 131.929 265.002 132.61C265.254 132.246 265.581 131.966 265.982 131.77C266.383 131.565 266.836 131.462 267.34 131.462C267.769 131.462 268.166 131.541 268.53 131.7C268.894 131.849 269.211 132.064 269.482 132.344C269.753 132.624 269.963 132.96 270.112 133.352C270.271 133.735 270.35 134.155 270.35 134.612V134.948C270.35 135.415 270.271 135.839 270.112 136.222C269.963 136.605 269.748 136.936 269.468 137.216C269.197 137.496 268.875 137.715 268.502 137.874C268.129 138.023 267.718 138.098 267.27 138.098ZM265.058 134.808C265.058 135.564 265.254 136.147 265.646 136.558C266.047 136.969 266.589 137.174 267.27 137.174C267.886 137.174 268.385 136.978 268.768 136.586C269.151 136.185 269.342 135.639 269.342 134.948V134.612C269.342 133.921 269.151 133.38 268.768 132.988C268.385 132.587 267.886 132.386 267.27 132.386C266.589 132.386 266.047 132.582 265.646 132.974C265.254 133.357 265.058 133.856 265.058 134.472V134.808Z" fill="#3C455E"/>
<path d="M246.35 73.752L250.942 67.2H252.16V73.752H253.49V74.648H252.16V77H251.18V74.648H246.35V73.752ZM251.18 73.752V68.334L247.428 73.752H251.18Z" fill="#3C455E"/>
<path d="M201.63 28.104L205.102 24.66C205.401 24.3613 205.662 24.0907 205.886 23.848C206.119 23.6053 206.311 23.3767 206.46 23.162C206.619 22.9473 206.735 22.742 206.81 22.546C206.885 22.35 206.922 22.1447 206.922 21.93C206.922 21.3793 206.731 20.9267 206.348 20.572C205.965 20.208 205.443 20.026 204.78 20.026C204.117 20.026 203.595 20.208 203.212 20.572C202.829 20.9267 202.638 21.3793 202.638 21.93H201.63C201.63 21.5287 201.705 21.1553 201.854 20.81C202.003 20.4647 202.213 20.166 202.484 19.914C202.755 19.662 203.086 19.466 203.478 19.326C203.87 19.1767 204.304 19.102 204.78 19.102C205.256 19.102 205.69 19.1767 206.082 19.326C206.474 19.466 206.805 19.662 207.076 19.914C207.347 20.166 207.557 20.4647 207.706 20.81C207.855 21.1553 207.93 21.5287 207.93 21.93C207.93 22.4713 207.743 22.9987 207.37 23.512C207.006 24.0253 206.497 24.5993 205.844 25.234L202.904 28.104H207.93V29H201.63V28.104Z" fill="#3C455E"/>
<path d="M67.2355 31.104L70.7075 27.66C71.0061 27.3613 71.2675 27.0907 71.4915 26.848C71.7248 26.6053 71.9161 26.3767 72.0655 26.162C72.2241 25.9473 72.3408 25.742 72.4155 25.546C72.4901 25.35 72.5275 25.1447 72.5275 24.93C72.5275 24.3793 72.3361 23.9267 71.9535 23.572C71.5708 23.208 71.0481 23.026 70.3855 23.026C69.7228 23.026 69.2001 23.208 68.8175 23.572C68.4348 23.9267 68.2435 24.3793 68.2435 24.93H67.2355C67.2355 24.5287 67.3101 24.1553 67.4595 23.81C67.6088 23.4647 67.8188 23.166 68.0895 22.914C68.3601 22.662 68.6915 22.466 69.0835 22.326C69.4755 22.1767 69.9095 22.102 70.3855 22.102C70.8615 22.102 71.2955 22.1767 71.6875 22.326C72.0795 22.466 72.4108 22.662 72.6815 22.914C72.9521 23.166 73.1621 23.4647 73.3115 23.81C73.4608 24.1553 73.5355 24.5287 73.5355 24.93C73.5355 25.4713 73.3488 25.9987 72.9755 26.512C72.6115 27.0253 72.1028 27.5993 71.4495 28.234L68.5095 31.104H73.5355V32H67.2355V31.104ZM74.9327 31.104L78.4047 27.66C78.7034 27.3613 78.9647 27.0907 79.1887 26.848C79.4221 26.6053 79.6134 26.3767 79.7627 26.162C79.9214 25.9473 80.0381 25.742 80.1127 25.546C80.1874 25.35 80.2247 25.1447 80.2247 24.93C80.2247 24.3793 80.0334 23.9267 79.6507 23.572C79.2681 23.208 78.7454 23.026 78.0827 23.026C77.4201 23.026 76.8974 23.208 76.5147 23.572C76.1321 23.9267 75.9407 24.3793 75.9407 24.93H74.9327C74.9327 24.5287 75.0074 24.1553 75.1567 23.81C75.3061 23.4647 75.5161 23.166 75.7867 22.914C76.0574 22.662 76.3887 22.466 76.7807 22.326C77.1727 22.1767 77.6067 22.102 78.0827 22.102C78.5587 22.102 78.9927 22.1767 79.3847 22.326C79.7767 22.466 80.1081 22.662 80.3787 22.914C80.6494 23.166 80.8594 23.4647 81.0087 23.81C81.1581 24.1553 81.2327 24.5287 81.2327 24.93C81.2327 25.4713 81.0461 25.9987 80.6727 26.512C80.3087 27.0253 79.8001 27.5993 79.1467 28.234L76.2067 31.104H81.2327V32H74.9327V31.104Z" fill="#3C455E"/>
<path d="M39.0382 48.104L42.5102 44.66C42.8089 44.3613 43.0702 44.0907 43.2942 43.848C43.5275 43.6053 43.7189 43.3767 43.8682 43.162C44.0269 42.9473 44.1435 42.742 44.2182 42.546C44.2929 42.35 44.3302 42.1447 44.3302 41.93C44.3302 41.3793 44.1389 40.9267 43.7562 40.572C43.3735 40.208 42.8509 40.026 42.1882 40.026C41.5255 40.026 41.0029 40.208 40.6202 40.572C40.2375 40.9267 40.0462 41.3793 40.0462 41.93H39.0382C39.0382 41.5287 39.1129 41.1553 39.2622 40.81C39.4115 40.4647 39.6215 40.166 39.8922 39.914C40.1629 39.662 40.4942 39.466 40.8862 39.326C41.2782 39.1767 41.7122 39.102 42.1882 39.102C42.6642 39.102 43.0982 39.1767 43.4902 39.326C43.8822 39.466 44.2135 39.662 44.4842 39.914C44.7549 40.166 44.9649 40.4647 45.1142 40.81C45.2635 41.1553 45.3382 41.5287 45.3382 41.93C45.3382 42.4713 45.1515 42.9987 44.7782 43.512C44.4142 44.0253 43.9055 44.5993 43.2522 45.234L40.3122 48.104H45.3382V49H39.0382V48.104ZM48.6255 40.306L46.5255 41.734V40.642L48.6255 39.2H49.6055V49H48.6255V40.306Z" fill="#3C455E"/>
<path d="M233.869 50.098C232.88 50.098 232.105 49.8227 231.545 49.272C230.994 48.7213 230.696 47.9607 230.649 46.99H231.657C231.704 47.69 231.914 48.2313 232.287 48.614C232.66 48.9873 233.188 49.174 233.869 49.174C234.597 49.174 235.148 49.0013 235.521 48.656C235.894 48.3013 236.081 47.8393 236.081 47.27C236.081 46.7193 235.899 46.2713 235.535 45.926C235.171 45.5807 234.658 45.408 233.995 45.408H232.679V44.512H233.995C234.583 44.512 235.04 44.3533 235.367 44.036C235.703 43.7093 235.871 43.2893 235.871 42.776C235.871 42.244 235.698 41.8193 235.353 41.502C235.017 41.1847 234.522 41.026 233.869 41.026C233.281 41.026 232.814 41.1987 232.469 41.544C232.133 41.88 231.932 42.342 231.867 42.93H230.859C230.878 42.5007 230.962 42.1133 231.111 41.768C231.26 41.4227 231.461 41.1287 231.713 40.886C231.974 40.634 232.287 40.4427 232.651 40.312C233.015 40.172 233.421 40.102 233.869 40.102C234.345 40.102 234.77 40.1673 235.143 40.298C235.516 40.4287 235.829 40.6107 236.081 40.844C236.342 41.0773 236.538 41.362 236.669 41.698C236.809 42.0247 236.879 42.384 236.879 42.776C236.879 43.252 236.762 43.6813 236.529 44.064C236.305 44.4373 235.978 44.7313 235.549 44.946C236.053 45.1607 236.436 45.4687 236.697 45.87C236.958 46.2713 237.089 46.738 237.089 47.27C237.089 47.69 237.014 48.0727 236.865 48.418C236.725 48.7633 236.52 49.062 236.249 49.314C235.978 49.5567 235.642 49.748 235.241 49.888C234.84 50.028 234.382 50.098 233.869 50.098Z" fill="#3C455E"/>
<path d="M6.2993 97.306L4.1993 98.734V97.642L6.2993 96.2H7.2793V106H6.2993V97.306ZM12.7338 106.098C12.3418 106.098 11.9872 106.042 11.6698 105.93C11.3618 105.818 11.0912 105.669 10.8578 105.482C10.6245 105.286 10.4285 105.062 10.2698 104.81C10.1205 104.549 10.0132 104.269 9.94783 103.97H10.9838C11.1238 104.315 11.3292 104.6 11.5998 104.824C11.8705 105.048 12.2485 105.16 12.7338 105.16C13.0605 105.16 13.3592 105.104 13.6298 104.992C13.9005 104.871 14.1338 104.675 14.3298 104.404C14.5258 104.124 14.6798 103.755 14.7918 103.298C14.9132 102.841 14.9832 102.271 15.0018 101.59C14.7498 101.954 14.4232 102.239 14.0218 102.444C13.6205 102.64 13.1678 102.738 12.6638 102.738C12.2345 102.738 11.8378 102.663 11.4738 102.514C11.1098 102.355 10.7925 102.136 10.5218 101.856C10.2512 101.576 10.0365 101.245 9.87783 100.862C9.72849 100.479 9.65383 100.055 9.65383 99.588V99.252C9.65383 98.7947 9.72849 98.3747 9.87783 97.992C10.0365 97.6 10.2512 97.264 10.5218 96.984C10.8018 96.704 11.1285 96.4893 11.5018 96.34C11.8752 96.1813 12.2858 96.102 12.7338 96.102C13.2192 96.102 13.6578 96.186 14.0498 96.354C14.4512 96.5127 14.7918 96.76 15.0718 97.096C15.3518 97.432 15.5665 97.8613 15.7158 98.384C15.8745 98.8973 15.9538 99.5133 15.9538 100.232V101.128C15.9538 102.033 15.8745 102.803 15.7158 103.438C15.5572 104.063 15.3332 104.577 15.0438 104.978C14.7545 105.37 14.4138 105.655 14.0218 105.832C13.6298 106.009 13.2005 106.098 12.7338 106.098ZM10.6618 99.588C10.6618 100.279 10.8532 100.825 11.2358 101.226C11.6185 101.618 12.1178 101.814 12.7338 101.814C13.4152 101.814 13.9518 101.623 14.3438 101.24C14.7452 100.848 14.9458 100.344 14.9458 99.728V99.392C14.9458 98.636 14.7452 98.0527 14.3438 97.642C13.9518 97.2313 13.4152 97.026 12.7338 97.026C12.1178 97.026 11.6185 97.2267 11.2358 97.628C10.8532 98.02 10.6618 98.5613 10.6618 99.252V99.588Z" fill="#3C455E"/>
<path d="M266.074 106.098C265.262 106.098 264.567 105.897 263.988 105.496C263.419 105.095 263.041 104.507 262.854 103.732H263.89C264.058 104.217 264.329 104.581 264.702 104.824C265.075 105.057 265.533 105.174 266.074 105.174C266.746 105.174 267.283 104.969 267.684 104.558C268.085 104.138 268.286 103.559 268.286 102.822C268.286 102.075 268.085 101.497 267.684 101.086C267.283 100.675 266.746 100.47 266.074 100.47C265.598 100.47 265.192 100.577 264.856 100.792C264.52 101.007 264.268 101.249 264.1 101.52H263.134L263.554 96.2H268.664V97.096H264.45L264.184 100.344C264.427 100.092 264.721 99.896 265.066 99.756C265.411 99.616 265.794 99.546 266.214 99.546C266.662 99.546 267.073 99.6253 267.446 99.784C267.829 99.9333 268.155 100.153 268.426 100.442C268.697 100.722 268.907 101.067 269.056 101.478C269.215 101.879 269.294 102.327 269.294 102.822C269.294 103.317 269.215 103.765 269.056 104.166C268.907 104.567 268.687 104.913 268.398 105.202C268.118 105.491 267.777 105.715 267.376 105.874C266.984 106.023 266.55 106.098 266.074 106.098Z" fill="#3C455E"/>
<path d="M100.235 18.104L103.707 14.66C104.006 14.3613 104.267 14.0907 104.491 13.848C104.725 13.6053 104.916 13.3767 105.065 13.162C105.224 12.9473 105.341 12.742 105.415 12.546C105.49 12.35 105.527 12.1447 105.527 11.93C105.527 11.3793 105.336 10.9267 104.953 10.572C104.571 10.208 104.048 10.026 103.385 10.026C102.723 10.026 102.2 10.208 101.817 10.572C101.435 10.9267 101.243 11.3793 101.243 11.93H100.235C100.235 11.5287 100.31 11.1553 100.459 10.81C100.609 10.4647 100.819 10.166 101.089 9.914C101.36 9.662 101.691 9.466 102.083 9.326C102.475 9.17667 102.909 9.102 103.385 9.102C103.861 9.102 104.295 9.17667 104.687 9.326C105.079 9.466 105.411 9.662 105.681 9.914C105.952 10.166 106.162 10.4647 106.311 10.81C106.461 11.1553 106.535 11.5287 106.535 11.93C106.535 12.4713 106.349 12.9987 105.975 13.512C105.611 14.0253 105.103 14.5993 104.449 15.234L101.509 18.104H106.535V19H100.235V18.104ZM107.933 18.104L111.405 14.66C111.703 14.3613 111.965 14.0907 112.189 13.848C112.422 13.6053 112.613 13.3767 112.763 13.162C112.921 12.9473 113.038 12.742 113.113 12.546C113.187 12.35 113.225 12.1447 113.225 11.93C113.225 11.3793 113.033 10.9267 112.651 10.572C112.268 10.208 111.745 10.026 111.083 10.026C110.42 10.026 109.897 10.208 109.515 10.572C109.132 10.9267 108.941 11.3793 108.941 11.93H107.933C107.933 11.5287 108.007 11.1553 108.157 10.81C108.306 10.4647 108.516 10.166 108.787 9.914C109.057 9.662 109.389 9.466 109.781 9.326C110.173 9.17667 110.607 9.102 111.083 9.102C111.559 9.102 111.993 9.17667 112.385 9.326C112.777 9.466 113.108 9.662 113.379 9.914C113.649 10.166 113.859 10.4647 114.009 10.81C114.158 11.1553 114.233 11.5287 114.233 11.93C114.233 12.4713 114.046 12.9987 113.673 13.512C113.309 14.0253 112.8 14.5993 112.147 15.234L109.207 18.104H114.233V19H107.933V18.104Z" fill="#3C455E"/>
<path d="M169.625 10.306L167.525 11.734V10.642L169.625 9.2H170.605V19H169.625V10.306Z" fill="#3C455E"/>
<path d="M103.504 258.306L101.404 259.734V258.642L103.504 257.2H104.484V267H103.504V258.306ZM109.869 267.098C108.88 267.098 108.105 266.823 107.545 266.272C106.994 265.721 106.696 264.961 106.649 263.99H107.657C107.704 264.69 107.914 265.231 108.287 265.614C108.66 265.987 109.188 266.174 109.869 266.174C110.597 266.174 111.148 266.001 111.521 265.656C111.894 265.301 112.081 264.839 112.081 264.27C112.081 263.719 111.899 263.271 111.535 262.926C111.171 262.581 110.658 262.408 109.995 262.408H108.679V261.512H109.995C110.583 261.512 111.04 261.353 111.367 261.036C111.703 260.709 111.871 260.289 111.871 259.776C111.871 259.244 111.698 258.819 111.353 258.502C111.017 258.185 110.522 258.026 109.869 258.026C109.281 258.026 108.814 258.199 108.469 258.544C108.133 258.88 107.932 259.342 107.867 259.93H106.859C106.878 259.501 106.962 259.113 107.111 258.768C107.26 258.423 107.461 258.129 107.713 257.886C107.974 257.634 108.287 257.443 108.651 257.312C109.015 257.172 109.421 257.102 109.869 257.102C110.345 257.102 110.77 257.167 111.143 257.298C111.516 257.429 111.829 257.611 112.081 257.844C112.342 258.077 112.538 258.362 112.669 258.698C112.809 259.025 112.879 259.384 112.879 259.776C112.879 260.252 112.762 260.681 112.529 261.064C112.305 261.437 111.978 261.731 111.549 261.946C112.053 262.161 112.436 262.469 112.697 262.87C112.958 263.271 113.089 263.738 113.089 264.27C113.089 264.69 113.014 265.073 112.865 265.418C112.725 265.763 112.52 266.062 112.249 266.314C111.978 266.557 111.642 266.748 111.241 266.888C110.84 267.028 110.382 267.098 109.869 267.098Z" fill="#3C455E"/>
<path d="M166.731 258.306L164.631 259.734V258.642L166.731 257.2H167.711V267H166.731V258.306ZM171.625 258.306L169.525 259.734V258.642L171.625 257.2H172.605V267H171.625V258.306Z" fill="#3C455E"/>
<path d="M197.52 245.306L195.42 246.734V245.642L197.52 244.2H198.5V254H197.52V245.306ZM204.165 254.098C203.67 254.098 203.222 254.019 202.821 253.86C202.429 253.692 202.093 253.426 201.813 253.062C201.533 252.698 201.318 252.231 201.169 251.662C201.019 251.083 200.945 250.379 200.945 249.548V248.652C200.945 247.831 201.019 247.135 201.169 246.566C201.327 245.987 201.547 245.516 201.827 245.152C202.107 244.788 202.443 244.522 202.835 244.354C203.236 244.186 203.679 244.102 204.165 244.102C204.65 244.102 205.089 244.186 205.481 244.354C205.882 244.513 206.223 244.774 206.503 245.138C206.783 245.502 206.997 245.973 207.147 246.552C207.305 247.131 207.385 247.831 207.385 248.652V249.548C207.385 250.369 207.305 251.069 207.147 251.648C206.997 252.217 206.783 252.684 206.503 253.048C206.223 253.412 205.882 253.678 205.481 253.846C205.089 254.014 204.65 254.098 204.165 254.098ZM204.165 253.174C204.501 253.174 204.804 253.118 205.075 253.006C205.355 252.885 205.588 252.684 205.775 252.404C205.971 252.124 206.12 251.751 206.223 251.284C206.325 250.817 206.377 250.239 206.377 249.548V248.652C206.377 247.961 206.325 247.387 206.223 246.93C206.12 246.463 205.971 246.09 205.775 245.81C205.579 245.53 205.345 245.329 205.075 245.208C204.804 245.087 204.501 245.026 204.165 245.026C203.829 245.026 203.521 245.087 203.241 245.208C202.97 245.32 202.737 245.516 202.541 245.796C202.354 246.076 202.209 246.449 202.107 246.916C202.004 247.383 201.953 247.961 201.953 248.652V249.548C201.953 250.239 202.004 250.817 202.107 251.284C202.209 251.741 202.359 252.11 202.555 252.39C202.751 252.67 202.984 252.871 203.255 252.992C203.525 253.113 203.829 253.174 204.165 253.174Z" fill="#3C455E"/>
<path d="M68.7095 245.306L66.6095 246.734V245.642L68.7095 244.2H69.6895V254H68.7095V245.306ZM71.434 250.752L76.026 244.2H77.244V250.752H78.574V251.648H77.244V254H76.264V251.648H71.434V250.752ZM76.264 250.752V245.334L72.512 250.752H76.264Z" fill="#3C455E"/>
<path d="M134.724 262.306L132.624 263.734V262.642L134.724 261.2H135.704V271H134.724V262.306ZM137.729 270.104L141.201 266.66C141.499 266.361 141.761 266.091 141.985 265.848C142.218 265.605 142.409 265.377 142.559 265.162C142.717 264.947 142.834 264.742 142.909 264.546C142.983 264.35 143.021 264.145 143.021 263.93C143.021 263.379 142.829 262.927 142.447 262.572C142.064 262.208 141.541 262.026 140.879 262.026C140.216 262.026 139.693 262.208 139.311 262.572C138.928 262.927 138.737 263.379 138.737 263.93H137.729C137.729 263.529 137.803 263.155 137.953 262.81C138.102 262.465 138.312 262.166 138.583 261.914C138.853 261.662 139.185 261.466 139.577 261.326C139.969 261.177 140.403 261.102 140.879 261.102C141.355 261.102 141.789 261.177 142.181 261.326C142.573 261.466 142.904 261.662 143.175 261.914C143.445 262.166 143.655 262.465 143.805 262.81C143.954 263.155 144.029 263.529 144.029 263.93C144.029 264.471 143.842 264.999 143.469 265.512C143.105 266.025 142.596 266.599 141.943 267.234L139.003 270.104H144.029V271H137.729V270.104Z" fill="#3C455E"/>
<circle cx="139" cy="138" r="110" fill="#EDEFF1"/>
</svg>
